%TF.GenerationSoftware,KiCad,Pcbnew,(6.0.11-0)*%
%TF.CreationDate,2024-03-07T11:04:15-05:00*%
%TF.ProjectId,CamperLightsSMD,43616d70-6572-44c6-9967-687473534d44,rev?*%
%TF.SameCoordinates,Original*%
%TF.FileFunction,Soldermask,Top*%
%TF.FilePolarity,Negative*%
%FSLAX46Y46*%
G04 Gerber Fmt 4.6, Leading zero omitted, Abs format (unit mm)*
G04 Created by KiCad (PCBNEW (6.0.11-0)) date 2024-03-07 11:04:15*
%MOMM*%
%LPD*%
G01*
G04 APERTURE LIST*
G04 Aperture macros list*
%AMRoundRect*
0 Rectangle with rounded corners*
0 $1 Rounding radius*
0 $2 $3 $4 $5 $6 $7 $8 $9 X,Y pos of 4 corners*
0 Add a 4 corners polygon primitive as box body*
4,1,4,$2,$3,$4,$5,$6,$7,$8,$9,$2,$3,0*
0 Add four circle primitives for the rounded corners*
1,1,$1+$1,$2,$3*
1,1,$1+$1,$4,$5*
1,1,$1+$1,$6,$7*
1,1,$1+$1,$8,$9*
0 Add four rect primitives between the rounded corners*
20,1,$1+$1,$2,$3,$4,$5,0*
20,1,$1+$1,$4,$5,$6,$7,0*
20,1,$1+$1,$6,$7,$8,$9,0*
20,1,$1+$1,$8,$9,$2,$3,0*%
G04 Aperture macros list end*
%ADD10RoundRect,0.200000X-0.800000X-0.200000X0.800000X-0.200000X0.800000X0.200000X-0.800000X0.200000X0*%
%ADD11RoundRect,0.200000X-0.812500X-0.200000X0.812500X-0.200000X0.812500X0.200000X-0.812500X0.200000X0*%
%ADD12C,2.200000*%
%ADD13RoundRect,0.200000X0.200000X0.275000X-0.200000X0.275000X-0.200000X-0.275000X0.200000X-0.275000X0*%
%ADD14RoundRect,0.250000X0.725000X-0.600000X0.725000X0.600000X-0.725000X0.600000X-0.725000X-0.600000X0*%
%ADD15O,1.950000X1.700000*%
%ADD16RoundRect,0.250000X-0.725000X0.600000X-0.725000X-0.600000X0.725000X-0.600000X0.725000X0.600000X0*%
%ADD17RoundRect,0.102000X-0.762000X0.330200X-0.762000X-0.330200X0.762000X-0.330200X0.762000X0.330200X0*%
%ADD18RoundRect,0.225000X-0.225000X-0.250000X0.225000X-0.250000X0.225000X0.250000X-0.225000X0.250000X0*%
G04 APERTURE END LIST*
D10*
%TO.C,U1*%
X149352000Y-91563000D03*
X136652000Y-91563000D03*
D11*
X149364500Y-93063000D03*
X136639500Y-93063000D03*
X136639500Y-94563000D03*
X149364500Y-94563000D03*
X136639500Y-96063000D03*
X149364500Y-96063000D03*
X136639500Y-97563000D03*
X149364500Y-97563000D03*
X136639500Y-99063000D03*
X149364500Y-99063000D03*
%TD*%
D12*
%TO.C,H2*%
X135128000Y-104648000D03*
%TD*%
%TO.C,H1*%
X150622000Y-86614000D03*
%TD*%
D13*
%TO.C,R4*%
X148273000Y-103416000D03*
X149923000Y-103416000D03*
%TD*%
%TO.C,R3*%
X149923000Y-106464000D03*
X148273000Y-106464000D03*
%TD*%
%TO.C,R2*%
X146113000Y-83312000D03*
X144463000Y-83312000D03*
%TD*%
%TO.C,R1*%
X146113000Y-86360000D03*
X144463000Y-86360000D03*
%TD*%
D14*
%TO.C,J2*%
X153924000Y-97790000D03*
D15*
X153924000Y-95290000D03*
X153924000Y-92790000D03*
%TD*%
D16*
%TO.C,J1*%
X131872000Y-92750000D03*
D15*
X131872000Y-95250000D03*
X131872000Y-97750000D03*
%TD*%
D17*
%TO.C,IC2*%
X140282600Y-103289000D03*
X146229400Y-103289000D03*
X140282600Y-104559000D03*
X140282600Y-105829000D03*
X146229400Y-104559000D03*
X146229400Y-105829000D03*
X140282600Y-107099000D03*
X146229400Y-107099000D03*
%TD*%
%TO.C,IC1*%
X136472600Y-83693000D03*
X142419400Y-83693000D03*
X136472600Y-84963000D03*
X136472600Y-86233000D03*
X142419400Y-84963000D03*
X142419400Y-86233000D03*
X136472600Y-87503000D03*
X142419400Y-87503000D03*
%TD*%
D18*
%TO.C,C2*%
X148323000Y-104940000D03*
X149873000Y-104940000D03*
%TD*%
%TO.C,C1*%
X144513000Y-84836000D03*
X146063000Y-84836000D03*
%TD*%
M02*
