%TF.GenerationSoftware,KiCad,Pcbnew,(6.0.11-0)*%
%TF.CreationDate,2024-03-07T11:04:15-05:00*%
%TF.ProjectId,CamperLightsSMD,43616d70-6572-44c6-9967-687473534d44,rev?*%
%TF.SameCoordinates,Original*%
%TF.FileFunction,Legend,Bot*%
%TF.FilePolarity,Positive*%
%FSLAX46Y46*%
G04 Gerber Fmt 4.6, Leading zero omitted, Abs format (unit mm)*
G04 Created by KiCad (PCBNEW (6.0.11-0)) date 2024-03-07 11:04:15*
%MOMM*%
%LPD*%
G01*
G04 APERTURE LIST*
G04 Aperture macros list*
%AMRoundRect*
0 Rectangle with rounded corners*
0 $1 Rounding radius*
0 $2 $3 $4 $5 $6 $7 $8 $9 X,Y pos of 4 corners*
0 Add a 4 corners polygon primitive as box body*
4,1,4,$2,$3,$4,$5,$6,$7,$8,$9,$2,$3,0*
0 Add four circle primitives for the rounded corners*
1,1,$1+$1,$2,$3*
1,1,$1+$1,$4,$5*
1,1,$1+$1,$6,$7*
1,1,$1+$1,$8,$9*
0 Add four rect primitives between the rounded corners*
20,1,$1+$1,$2,$3,$4,$5,0*
20,1,$1+$1,$4,$5,$6,$7,0*
20,1,$1+$1,$6,$7,$8,$9,0*
20,1,$1+$1,$8,$9,$2,$3,0*%
G04 Aperture macros list end*
%ADD10C,0.150000*%
%ADD11C,2.200000*%
%ADD12RoundRect,0.250000X0.725000X-0.600000X0.725000X0.600000X-0.725000X0.600000X-0.725000X-0.600000X0*%
%ADD13O,1.950000X1.700000*%
%ADD14RoundRect,0.250000X-0.725000X0.600000X-0.725000X-0.600000X0.725000X-0.600000X0.725000X0.600000X0*%
G04 APERTURE END LIST*
D10*
X143668476Y-94178380D02*
X144001809Y-93702190D01*
X144239904Y-94178380D02*
X144239904Y-93178380D01*
X143858952Y-93178380D01*
X143763714Y-93226000D01*
X143716095Y-93273619D01*
X143668476Y-93368857D01*
X143668476Y-93511714D01*
X143716095Y-93606952D01*
X143763714Y-93654571D01*
X143858952Y-93702190D01*
X144239904Y-93702190D01*
X142716095Y-93226000D02*
X142811333Y-93178380D01*
X142954190Y-93178380D01*
X143097047Y-93226000D01*
X143192285Y-93321238D01*
X143239904Y-93416476D01*
X143287523Y-93606952D01*
X143287523Y-93749809D01*
X143239904Y-93940285D01*
X143192285Y-94035523D01*
X143097047Y-94130761D01*
X142954190Y-94178380D01*
X142858952Y-94178380D01*
X142716095Y-94130761D01*
X142668476Y-94083142D01*
X142668476Y-93749809D01*
X142858952Y-93749809D01*
X141906571Y-93654571D02*
X141763714Y-93702190D01*
X141716095Y-93749809D01*
X141668476Y-93845047D01*
X141668476Y-93987904D01*
X141716095Y-94083142D01*
X141763714Y-94130761D01*
X141858952Y-94178380D01*
X142239904Y-94178380D01*
X142239904Y-93178380D01*
X141906571Y-93178380D01*
X141811333Y-93226000D01*
X141763714Y-93273619D01*
X141716095Y-93368857D01*
X141716095Y-93464095D01*
X141763714Y-93559333D01*
X141811333Y-93606952D01*
X141906571Y-93654571D01*
X142239904Y-93654571D01*
X141335142Y-93178380D02*
X141097047Y-94178380D01*
X140906571Y-93464095D01*
X140716095Y-94178380D01*
X140478000Y-93178380D01*
X140097047Y-94178380D02*
X140097047Y-93178380D01*
X139716095Y-93178380D01*
X139620857Y-93226000D01*
X139573238Y-93273619D01*
X139525619Y-93368857D01*
X139525619Y-93511714D01*
X139573238Y-93606952D01*
X139620857Y-93654571D01*
X139716095Y-93702190D01*
X140097047Y-93702190D01*
X139144666Y-93892666D02*
X138668476Y-93892666D01*
X139239904Y-94178380D02*
X138906571Y-93178380D01*
X138573238Y-94178380D01*
X144176571Y-94781714D02*
X143938476Y-95448380D01*
X143700380Y-94781714D01*
X142795619Y-95448380D02*
X143367047Y-95448380D01*
X143081333Y-95448380D02*
X143081333Y-94448380D01*
X143176571Y-94591238D01*
X143271809Y-94686476D01*
X143367047Y-94734095D01*
X142367047Y-95353142D02*
X142319428Y-95400761D01*
X142367047Y-95448380D01*
X142414666Y-95400761D01*
X142367047Y-95353142D01*
X142367047Y-95448380D01*
X141700380Y-94448380D02*
X141605142Y-94448380D01*
X141509904Y-94496000D01*
X141462285Y-94543619D01*
X141414666Y-94638857D01*
X141367047Y-94829333D01*
X141367047Y-95067428D01*
X141414666Y-95257904D01*
X141462285Y-95353142D01*
X141509904Y-95400761D01*
X141605142Y-95448380D01*
X141700380Y-95448380D01*
X141795619Y-95400761D01*
X141843238Y-95353142D01*
X141890857Y-95257904D01*
X141938476Y-95067428D01*
X141938476Y-94829333D01*
X141890857Y-94638857D01*
X141843238Y-94543619D01*
X141795619Y-94496000D01*
X141700380Y-94448380D01*
%LPC*%
D11*
%TO.C,H2*%
X135128000Y-104648000D03*
%TD*%
%TO.C,H1*%
X150622000Y-86614000D03*
%TD*%
D12*
%TO.C,J2*%
X153924000Y-97790000D03*
D13*
X153924000Y-95290000D03*
X153924000Y-92790000D03*
%TD*%
D14*
%TO.C,J1*%
X131872000Y-92750000D03*
D13*
X131872000Y-95250000D03*
X131872000Y-97750000D03*
%TD*%
M02*
