%TF.GenerationSoftware,KiCad,Pcbnew,(6.0.11-0)*%
%TF.CreationDate,2024-03-07T11:04:15-05:00*%
%TF.ProjectId,CamperLightsSMD,43616d70-6572-44c6-9967-687473534d44,rev?*%
%TF.SameCoordinates,Original*%
%TF.FileFunction,Legend,Top*%
%TF.FilePolarity,Positive*%
%FSLAX46Y46*%
G04 Gerber Fmt 4.6, Leading zero omitted, Abs format (unit mm)*
G04 Created by KiCad (PCBNEW (6.0.11-0)) date 2024-03-07 11:04:15*
%MOMM*%
%LPD*%
G01*
G04 APERTURE LIST*
G04 Aperture macros list*
%AMRoundRect*
0 Rectangle with rounded corners*
0 $1 Rounding radius*
0 $2 $3 $4 $5 $6 $7 $8 $9 X,Y pos of 4 corners*
0 Add a 4 corners polygon primitive as box body*
4,1,4,$2,$3,$4,$5,$6,$7,$8,$9,$2,$3,0*
0 Add four circle primitives for the rounded corners*
1,1,$1+$1,$2,$3*
1,1,$1+$1,$4,$5*
1,1,$1+$1,$6,$7*
1,1,$1+$1,$8,$9*
0 Add four rect primitives between the rounded corners*
20,1,$1+$1,$2,$3,$4,$5,0*
20,1,$1+$1,$4,$5,$6,$7,0*
20,1,$1+$1,$6,$7,$8,$9,0*
20,1,$1+$1,$8,$9,$2,$3,0*%
G04 Aperture macros list end*
%ADD10C,0.120000*%
%ADD11C,0.152400*%
%ADD12C,0.050800*%
%ADD13RoundRect,0.200000X-0.800000X-0.200000X0.800000X-0.200000X0.800000X0.200000X-0.800000X0.200000X0*%
%ADD14RoundRect,0.200000X-0.812500X-0.200000X0.812500X-0.200000X0.812500X0.200000X-0.812500X0.200000X0*%
%ADD15C,2.200000*%
%ADD16RoundRect,0.200000X0.200000X0.275000X-0.200000X0.275000X-0.200000X-0.275000X0.200000X-0.275000X0*%
%ADD17RoundRect,0.250000X0.725000X-0.600000X0.725000X0.600000X-0.725000X0.600000X-0.725000X-0.600000X0*%
%ADD18O,1.950000X1.700000*%
%ADD19RoundRect,0.250000X-0.725000X0.600000X-0.725000X-0.600000X0.725000X-0.600000X0.725000X0.600000X0*%
%ADD20RoundRect,0.102000X-0.762000X0.330200X-0.762000X-0.330200X0.762000X-0.330200X0.762000X0.330200X0*%
%ADD21RoundRect,0.225000X-0.225000X-0.250000X0.225000X-0.250000X0.225000X0.250000X-0.225000X0.250000X0*%
G04 APERTURE END LIST*
D10*
%TO.C,U1*%
X135502000Y-91013000D02*
X150602000Y-91013000D01*
X150602000Y-91013000D02*
X150602000Y-99613000D01*
X150602000Y-99613000D02*
X135502000Y-99613000D01*
X135502000Y-99613000D02*
X135502000Y-91013000D01*
%TO.C,R4*%
X149335258Y-103938500D02*
X148860742Y-103938500D01*
X149335258Y-102893500D02*
X148860742Y-102893500D01*
%TO.C,R3*%
X149335258Y-105941500D02*
X148860742Y-105941500D01*
X149335258Y-106986500D02*
X148860742Y-106986500D01*
%TO.C,R2*%
X145525258Y-82789500D02*
X145050742Y-82789500D01*
X145525258Y-83834500D02*
X145050742Y-83834500D01*
%TO.C,R1*%
X145525258Y-85837500D02*
X145050742Y-85837500D01*
X145525258Y-86882500D02*
X145050742Y-86882500D01*
%TO.C,J2*%
X156234000Y-100400000D02*
X156234000Y-90180000D01*
X153924000Y-90680000D02*
X153924000Y-90180000D01*
X154734000Y-91180000D02*
X156234000Y-91180000D01*
X152714000Y-90680000D02*
X153924000Y-90680000D01*
X154034000Y-100700000D02*
X156534000Y-100700000D01*
X154734000Y-90180000D02*
X154734000Y-91180000D01*
X153924000Y-99900000D02*
X152714000Y-99900000D01*
X156534000Y-100700000D02*
X156534000Y-98200000D01*
X152214000Y-90180000D02*
X152214000Y-100400000D01*
X154734000Y-100400000D02*
X154734000Y-99400000D01*
X154734000Y-99400000D02*
X156234000Y-99400000D01*
X152214000Y-100400000D02*
X156234000Y-100400000D01*
X153924000Y-100400000D02*
X153924000Y-99900000D01*
X156234000Y-90180000D02*
X152214000Y-90180000D01*
X152714000Y-99900000D02*
X152714000Y-90680000D01*
%TO.C,J1*%
X129562000Y-90140000D02*
X129562000Y-100360000D01*
X131872000Y-99860000D02*
X131872000Y-100360000D01*
X131062000Y-99360000D02*
X129562000Y-99360000D01*
X133082000Y-99860000D02*
X131872000Y-99860000D01*
X131762000Y-89840000D02*
X129262000Y-89840000D01*
X131062000Y-100360000D02*
X131062000Y-99360000D01*
X131872000Y-90640000D02*
X133082000Y-90640000D01*
X129262000Y-89840000D02*
X129262000Y-92340000D01*
X133582000Y-100360000D02*
X133582000Y-90140000D01*
X131062000Y-90140000D02*
X131062000Y-91140000D01*
X131062000Y-91140000D02*
X129562000Y-91140000D01*
X133582000Y-90140000D02*
X129562000Y-90140000D01*
X131872000Y-90140000D02*
X131872000Y-90640000D01*
X129562000Y-100360000D02*
X133582000Y-100360000D01*
X133082000Y-90640000D02*
X133082000Y-99860000D01*
D11*
%TO.C,IC2*%
X145211800Y-107353000D02*
X145211800Y-103035000D01*
X141300200Y-107353000D02*
G75*
G03*
X141681200Y-107734000I381000J0D01*
G01*
X145211800Y-103035000D02*
G75*
G03*
X144830800Y-102654000I-381000J0D01*
G01*
X144830800Y-107734000D02*
G75*
G03*
X145211800Y-107353000I0J381000D01*
G01*
X141681200Y-102654000D02*
G75*
G03*
X141300200Y-103035000I0J-381000D01*
G01*
X141300200Y-103035000D02*
X141300200Y-107353000D01*
X141681200Y-107734000D02*
X144830800Y-107734000D01*
X144830800Y-102654000D02*
X141681200Y-102654000D01*
X142748000Y-102654000D02*
G75*
G03*
X143764000Y-102654000I508000J0D01*
G01*
D12*
X141655800Y-102654000D02*
X141655800Y-107734000D01*
D11*
%TO.C,IC1*%
X141401800Y-87757000D02*
X141401800Y-83439000D01*
X137490200Y-87757000D02*
G75*
G03*
X137871200Y-88138000I381000J0D01*
G01*
X141401800Y-83439000D02*
G75*
G03*
X141020800Y-83058000I-381000J0D01*
G01*
X141020800Y-88138000D02*
G75*
G03*
X141401800Y-87757000I0J381000D01*
G01*
X137871200Y-83058000D02*
G75*
G03*
X137490200Y-83439000I0J-381000D01*
G01*
X137490200Y-83439000D02*
X137490200Y-87757000D01*
X137871200Y-88138000D02*
X141020800Y-88138000D01*
X141020800Y-83058000D02*
X137871200Y-83058000D01*
X138938000Y-83058000D02*
G75*
G03*
X139954000Y-83058000I508000J0D01*
G01*
D12*
X137845800Y-83058000D02*
X137845800Y-88138000D01*
D10*
%TO.C,C2*%
X148957420Y-105450000D02*
X149238580Y-105450000D01*
X148957420Y-104430000D02*
X149238580Y-104430000D01*
%TO.C,C1*%
X145147420Y-85346000D02*
X145428580Y-85346000D01*
X145147420Y-84326000D02*
X145428580Y-84326000D01*
%TD*%
%LPC*%
D13*
%TO.C,U1*%
X149352000Y-91563000D03*
X136652000Y-91563000D03*
D14*
X149364500Y-93063000D03*
X136639500Y-93063000D03*
X136639500Y-94563000D03*
X149364500Y-94563000D03*
X136639500Y-96063000D03*
X149364500Y-96063000D03*
X136639500Y-97563000D03*
X149364500Y-97563000D03*
X136639500Y-99063000D03*
X149364500Y-99063000D03*
%TD*%
D15*
%TO.C,H2*%
X135128000Y-104648000D03*
%TD*%
%TO.C,H1*%
X150622000Y-86614000D03*
%TD*%
D16*
%TO.C,R4*%
X148273000Y-103416000D03*
X149923000Y-103416000D03*
%TD*%
%TO.C,R3*%
X149923000Y-106464000D03*
X148273000Y-106464000D03*
%TD*%
%TO.C,R2*%
X146113000Y-83312000D03*
X144463000Y-83312000D03*
%TD*%
%TO.C,R1*%
X146113000Y-86360000D03*
X144463000Y-86360000D03*
%TD*%
D17*
%TO.C,J2*%
X153924000Y-97790000D03*
D18*
X153924000Y-95290000D03*
X153924000Y-92790000D03*
%TD*%
D19*
%TO.C,J1*%
X131872000Y-92750000D03*
D18*
X131872000Y-95250000D03*
X131872000Y-97750000D03*
%TD*%
D20*
%TO.C,IC2*%
X140282600Y-103289000D03*
X146229400Y-103289000D03*
X140282600Y-104559000D03*
X140282600Y-105829000D03*
X146229400Y-104559000D03*
X146229400Y-105829000D03*
X140282600Y-107099000D03*
X146229400Y-107099000D03*
%TD*%
%TO.C,IC1*%
X136472600Y-83693000D03*
X142419400Y-83693000D03*
X136472600Y-84963000D03*
X136472600Y-86233000D03*
X142419400Y-84963000D03*
X142419400Y-86233000D03*
X136472600Y-87503000D03*
X142419400Y-87503000D03*
%TD*%
D21*
%TO.C,C2*%
X148323000Y-104940000D03*
X149873000Y-104940000D03*
%TD*%
%TO.C,C1*%
X144513000Y-84836000D03*
X146063000Y-84836000D03*
%TD*%
M02*
