%TF.GenerationSoftware,KiCad,Pcbnew,(6.0.11-0)*%
%TF.CreationDate,2024-03-07T11:04:15-05:00*%
%TF.ProjectId,CamperLightsSMD,43616d70-6572-44c6-9967-687473534d44,rev?*%
%TF.SameCoordinates,Original*%
%TF.FileFunction,Copper,L1,Top*%
%TF.FilePolarity,Positive*%
%FSLAX46Y46*%
G04 Gerber Fmt 4.6, Leading zero omitted, Abs format (unit mm)*
G04 Created by KiCad (PCBNEW (6.0.11-0)) date 2024-03-07 11:04:15*
%MOMM*%
%LPD*%
G01*
G04 APERTURE LIST*
G04 Aperture macros list*
%AMRoundRect*
0 Rectangle with rounded corners*
0 $1 Rounding radius*
0 $2 $3 $4 $5 $6 $7 $8 $9 X,Y pos of 4 corners*
0 Add a 4 corners polygon primitive as box body*
4,1,4,$2,$3,$4,$5,$6,$7,$8,$9,$2,$3,0*
0 Add four circle primitives for the rounded corners*
1,1,$1+$1,$2,$3*
1,1,$1+$1,$4,$5*
1,1,$1+$1,$6,$7*
1,1,$1+$1,$8,$9*
0 Add four rect primitives between the rounded corners*
20,1,$1+$1,$2,$3,$4,$5,0*
20,1,$1+$1,$4,$5,$6,$7,0*
20,1,$1+$1,$6,$7,$8,$9,0*
20,1,$1+$1,$8,$9,$2,$3,0*%
G04 Aperture macros list end*
%TA.AperFunction,NonConductor*%
%ADD10C,0.200000*%
%TD*%
%TA.AperFunction,SMDPad,CuDef*%
%ADD11RoundRect,0.200000X-0.800000X-0.200000X0.800000X-0.200000X0.800000X0.200000X-0.800000X0.200000X0*%
%TD*%
%TA.AperFunction,SMDPad,CuDef*%
%ADD12RoundRect,0.200000X-0.812500X-0.200000X0.812500X-0.200000X0.812500X0.200000X-0.812500X0.200000X0*%
%TD*%
%TA.AperFunction,SMDPad,CuDef*%
%ADD13RoundRect,0.200000X0.200000X0.275000X-0.200000X0.275000X-0.200000X-0.275000X0.200000X-0.275000X0*%
%TD*%
%TA.AperFunction,ComponentPad*%
%ADD14RoundRect,0.250000X0.725000X-0.600000X0.725000X0.600000X-0.725000X0.600000X-0.725000X-0.600000X0*%
%TD*%
%TA.AperFunction,ComponentPad*%
%ADD15O,1.950000X1.700000*%
%TD*%
%TA.AperFunction,ComponentPad*%
%ADD16RoundRect,0.250000X-0.725000X0.600000X-0.725000X-0.600000X0.725000X-0.600000X0.725000X0.600000X0*%
%TD*%
%TA.AperFunction,SMDPad,CuDef*%
%ADD17R,1.524000X0.660400*%
%TD*%
%TA.AperFunction,SMDPad,CuDef*%
%ADD18RoundRect,0.225000X-0.225000X-0.250000X0.225000X-0.250000X0.225000X0.250000X-0.225000X0.250000X0*%
%TD*%
%TA.AperFunction,ViaPad*%
%ADD19C,0.800000*%
%TD*%
%TA.AperFunction,Conductor*%
%ADD20C,0.250000*%
%TD*%
G04 APERTURE END LIST*
D10*
X157116410Y-95504000D02*
G75*
G03*
X157116410Y-95504000I-14368410J0D01*
G01*
D11*
%TO.P,U1,1,B+*%
%TO.N,5vIN*%
X149352000Y-91563000D03*
%TO.P,U1,7,B-*%
%TO.N,blue*%
X136652000Y-91563000D03*
D12*
%TO.P,U1,2,G+*%
%TO.N,5vIN*%
X149364500Y-93063000D03*
%TO.P,U1,8,G-*%
%TO.N,green*%
X136639500Y-93063000D03*
%TO.P,U1,9,R-*%
%TO.N,red*%
X136639500Y-94563000D03*
%TO.P,U1,3,R+*%
%TO.N,5vIN*%
X149364500Y-94563000D03*
%TO.P,U1,10,W-*%
%TO.N,white*%
X136639500Y-96063000D03*
%TO.P,U1,4,W+*%
%TO.N,5vIN*%
X149364500Y-96063000D03*
%TO.P,U1,11,P-*%
%TO.N,purple*%
X136639500Y-97563000D03*
%TO.P,U1,5,P+*%
%TO.N,5vIN*%
X149364500Y-97563000D03*
%TO.P,U1,12,Y-*%
%TO.N,yellow*%
X136639500Y-99063000D03*
%TO.P,U1,6,Y+*%
%TO.N,5vIN*%
X149364500Y-99063000D03*
%TD*%
D13*
%TO.P,R4,2*%
%TO.N,Net-(C2-Pad1)*%
X148273000Y-103416000D03*
%TO.P,R4,1*%
%TO.N,5vIN*%
X149923000Y-103416000D03*
%TD*%
%TO.P,R3,1*%
%TO.N,DOI*%
X149923000Y-106464000D03*
%TO.P,R3,2*%
%TO.N,Net-(IC2-Pad6)*%
X148273000Y-106464000D03*
%TD*%
%TO.P,R2,1*%
%TO.N,5vIN*%
X146113000Y-83312000D03*
%TO.P,R2,2*%
%TO.N,Net-(C1-Pad1)*%
X144463000Y-83312000D03*
%TD*%
%TO.P,R1,1*%
%TO.N,DIN*%
X146113000Y-86360000D03*
%TO.P,R1,2*%
%TO.N,Net-(IC1-Pad6)*%
X144463000Y-86360000D03*
%TD*%
D14*
%TO.P,J2,1,Pin_1*%
%TO.N,GND*%
X153924000Y-97790000D03*
D15*
%TO.P,J2,2,Pin_2*%
%TO.N,DO*%
X153924000Y-95290000D03*
%TO.P,J2,3,Pin_3*%
%TO.N,5vIN*%
X153924000Y-92790000D03*
%TD*%
D16*
%TO.P,J1,1,Pin_1*%
%TO.N,5vIN*%
X131872000Y-92750000D03*
D15*
%TO.P,J1,2,Pin_2*%
%TO.N,DIN*%
X131872000Y-95250000D03*
%TO.P,J1,3,Pin_3*%
%TO.N,GND*%
X131872000Y-97750000D03*
%TD*%
D17*
%TO.P,IC2,1,R*%
%TO.N,white*%
X140282600Y-103289000D03*
%TO.P,IC2,8,VDD*%
%TO.N,Net-(C2-Pad1)*%
X146229400Y-103289000D03*
%TO.P,IC2,2,G*%
%TO.N,purple*%
X140282600Y-104559000D03*
%TO.P,IC2,3,B*%
%TO.N,yellow*%
X140282600Y-105829000D03*
%TO.P,IC2,7,SET*%
%TO.N,unconnected-(IC2-Pad7)*%
X146229400Y-104559000D03*
%TO.P,IC2,6,DIN*%
%TO.N,Net-(IC2-Pad6)*%
X146229400Y-105829000D03*
%TO.P,IC2,4,GND*%
%TO.N,GND*%
X140282600Y-107099000D03*
%TO.P,IC2,5,DO*%
%TO.N,DO*%
X146229400Y-107099000D03*
%TD*%
%TO.P,IC1,1,R*%
%TO.N,red*%
X136472600Y-83693000D03*
%TO.P,IC1,8,VDD*%
%TO.N,Net-(C1-Pad1)*%
X142419400Y-83693000D03*
%TO.P,IC1,2,G*%
%TO.N,green*%
X136472600Y-84963000D03*
%TO.P,IC1,3,B*%
%TO.N,blue*%
X136472600Y-86233000D03*
%TO.P,IC1,7,SET*%
%TO.N,unconnected-(IC1-Pad7)*%
X142419400Y-84963000D03*
%TO.P,IC1,6,DIN*%
%TO.N,Net-(IC1-Pad6)*%
X142419400Y-86233000D03*
%TO.P,IC1,4,GND*%
%TO.N,GND*%
X136472600Y-87503000D03*
%TO.P,IC1,5,DO*%
%TO.N,DOI*%
X142419400Y-87503000D03*
%TD*%
D18*
%TO.P,C2,1*%
%TO.N,Net-(C2-Pad1)*%
X148323000Y-104940000D03*
%TO.P,C2,2*%
%TO.N,GND*%
X149873000Y-104940000D03*
%TD*%
%TO.P,C1,1*%
%TO.N,Net-(C1-Pad1)*%
X144513000Y-84836000D03*
%TO.P,C1,2*%
%TO.N,GND*%
X146063000Y-84836000D03*
%TD*%
D19*
%TO.N,DO*%
X145796000Y-97282000D03*
X143510000Y-103378000D03*
X146304000Y-107188000D03*
%TO.N,DIN*%
X146304000Y-86360000D03*
X134112000Y-95250000D03*
%TO.N,DOI*%
X149860000Y-106426000D03*
X142494000Y-87630000D03*
%TO.N,GND*%
X140208000Y-107188000D03*
X149860000Y-104902000D03*
X136398000Y-87376000D03*
X146050000Y-84836000D03*
%TD*%
D20*
%TO.N,DO*%
X143510000Y-103378000D02*
X143510000Y-99568000D01*
X143510000Y-99568000D02*
X145796000Y-97282000D01*
%TO.N,DIN*%
X131872000Y-95250000D02*
X134112000Y-95250000D01*
%TO.N,Net-(IC1-Pad6)*%
X142419400Y-86233000D02*
X144336000Y-86233000D01*
X144336000Y-86233000D02*
X144463000Y-86360000D01*
%TO.N,Net-(C1-Pad1)*%
X144513000Y-84836000D02*
X144513000Y-83362000D01*
X144513000Y-83362000D02*
X144463000Y-83312000D01*
X142419400Y-83693000D02*
X142875000Y-83693000D01*
X142875000Y-83693000D02*
X143256000Y-83312000D01*
X143256000Y-83312000D02*
X144463000Y-83312000D01*
%TO.N,blue*%
X136472600Y-86233000D02*
X137795000Y-86233000D01*
X138430000Y-86868000D02*
X138430000Y-89785000D01*
X137795000Y-86233000D02*
X138430000Y-86868000D01*
X138430000Y-89785000D02*
X136652000Y-91563000D01*
%TO.N,green*%
X136472600Y-84963000D02*
X135509000Y-84963000D01*
X135509000Y-84963000D02*
X135128000Y-85344000D01*
X135128000Y-85344000D02*
X135128000Y-92456000D01*
X135128000Y-92456000D02*
X135735000Y-93063000D01*
X135735000Y-93063000D02*
X136639500Y-93063000D01*
%TO.N,red*%
X136639500Y-94563000D02*
X134949000Y-94563000D01*
X134949000Y-94563000D02*
X134620000Y-94234000D01*
X134620000Y-94234000D02*
X134620000Y-85113800D01*
X134620000Y-85113800D02*
X136040800Y-83693000D01*
X136040800Y-83693000D02*
X136472600Y-83693000D01*
%TO.N,yellow*%
X136639500Y-99063000D02*
X136639500Y-102617700D01*
X139850800Y-105829000D02*
X140282600Y-105829000D01*
X136639500Y-102617700D02*
X139850800Y-105829000D01*
%TO.N,purple*%
X136639500Y-97563000D02*
X137949000Y-97563000D01*
X137949000Y-97563000D02*
X138684000Y-98298000D01*
X139357000Y-104559000D02*
X140282600Y-104559000D01*
X138684000Y-98298000D02*
X138684000Y-103886000D01*
X138684000Y-103886000D02*
X139357000Y-104559000D01*
%TO.N,white*%
X136639500Y-96063000D02*
X138481000Y-96063000D01*
X140282600Y-97864600D02*
X140282600Y-103289000D01*
X138481000Y-96063000D02*
X140282600Y-97864600D01*
%TO.N,Net-(IC2-Pad6)*%
X146229400Y-105829000D02*
X146977000Y-105829000D01*
X146977000Y-105829000D02*
X147612000Y-106464000D01*
X147612000Y-106464000D02*
X148273000Y-106464000D01*
%TO.N,Net-(C2-Pad1)*%
X148323000Y-104940000D02*
X148323000Y-103466000D01*
X148323000Y-103466000D02*
X148273000Y-103416000D01*
X146229400Y-103289000D02*
X148146000Y-103289000D01*
X148146000Y-103289000D02*
X148273000Y-103416000D01*
%TD*%
%TA.AperFunction,Conductor*%
%TO.N,5vIN*%
G36*
X143464854Y-81762861D02*
G01*
X143471403Y-81763204D01*
X144107036Y-81813230D01*
X144183023Y-81819210D01*
X144189585Y-81819900D01*
X144897261Y-81913067D01*
X144903759Y-81914097D01*
X145605604Y-82044176D01*
X145612029Y-82045541D01*
X145776912Y-82085126D01*
X145793793Y-82089179D01*
X145855362Y-82124532D01*
X145888044Y-82187558D01*
X145881463Y-82258249D01*
X145837709Y-82314161D01*
X145789124Y-82335244D01*
X145776649Y-82337743D01*
X145626757Y-82384715D01*
X145613012Y-82390921D01*
X145479426Y-82471824D01*
X145467557Y-82481131D01*
X145377449Y-82571239D01*
X145315137Y-82605265D01*
X145244322Y-82600200D01*
X145199259Y-82571239D01*
X145103381Y-82475361D01*
X144956699Y-82386528D01*
X144949452Y-82384257D01*
X144949450Y-82384256D01*
X144883164Y-82363483D01*
X144793062Y-82335247D01*
X144719635Y-82328500D01*
X144716737Y-82328500D01*
X144462335Y-82328501D01*
X144206366Y-82328501D01*
X144203508Y-82328764D01*
X144203499Y-82328764D01*
X144167996Y-82332026D01*
X144132938Y-82335247D01*
X144126560Y-82337246D01*
X144126559Y-82337246D01*
X143976550Y-82384256D01*
X143976548Y-82384257D01*
X143969301Y-82386528D01*
X143822619Y-82475361D01*
X143701361Y-82596619D01*
X143697424Y-82603120D01*
X143688551Y-82617771D01*
X143636154Y-82665678D01*
X143580775Y-82678500D01*
X143334763Y-82678500D01*
X143323579Y-82677973D01*
X143316091Y-82676299D01*
X143308168Y-82676548D01*
X143248033Y-82678438D01*
X143244075Y-82678500D01*
X143216144Y-82678500D01*
X143212229Y-82678995D01*
X143212225Y-82678995D01*
X143212167Y-82679003D01*
X143212138Y-82679006D01*
X143200296Y-82679939D01*
X143156110Y-82681327D01*
X143138744Y-82686372D01*
X143136658Y-82686978D01*
X143117306Y-82690986D01*
X143105068Y-82692532D01*
X143105066Y-82692533D01*
X143097203Y-82693526D01*
X143056086Y-82709806D01*
X143044885Y-82713641D01*
X143002406Y-82725982D01*
X142995587Y-82730015D01*
X142995582Y-82730017D01*
X142984971Y-82736293D01*
X142967221Y-82744990D01*
X142948383Y-82752448D01*
X142941967Y-82757109D01*
X142941966Y-82757110D01*
X142912625Y-82778428D01*
X142902701Y-82784947D01*
X142871460Y-82803422D01*
X142871455Y-82803426D01*
X142864637Y-82807458D01*
X142854700Y-82817395D01*
X142792388Y-82851421D01*
X142765605Y-82854300D01*
X141609266Y-82854300D01*
X141547084Y-82861055D01*
X141410695Y-82912185D01*
X141294139Y-82999539D01*
X141206785Y-83116095D01*
X141155655Y-83252484D01*
X141148900Y-83314666D01*
X141148900Y-84071334D01*
X141155655Y-84133516D01*
X141158429Y-84140915D01*
X141195876Y-84240804D01*
X141206785Y-84269905D01*
X141207713Y-84271143D01*
X141222083Y-84336848D01*
X141208162Y-84384257D01*
X141206785Y-84386095D01*
X141155655Y-84522484D01*
X141148900Y-84584666D01*
X141148900Y-85341334D01*
X141155655Y-85403516D01*
X141158429Y-85410915D01*
X141197679Y-85515614D01*
X141206785Y-85539905D01*
X141207713Y-85541143D01*
X141222083Y-85606848D01*
X141208162Y-85654257D01*
X141206785Y-85656095D01*
X141203636Y-85664496D01*
X141203634Y-85664499D01*
X141191900Y-85695801D01*
X141155655Y-85792484D01*
X141148900Y-85854666D01*
X141148900Y-86611334D01*
X141155655Y-86673516D01*
X141206785Y-86809905D01*
X141207713Y-86811143D01*
X141222083Y-86876848D01*
X141208162Y-86924257D01*
X141206785Y-86926095D01*
X141155655Y-87062484D01*
X141148900Y-87124666D01*
X141148900Y-87881334D01*
X141155655Y-87943516D01*
X141206785Y-88079905D01*
X141294139Y-88196461D01*
X141410695Y-88283815D01*
X141547084Y-88334945D01*
X141609266Y-88341700D01*
X141886999Y-88341700D01*
X141955120Y-88361702D01*
X141961060Y-88365764D01*
X142037248Y-88421118D01*
X142043276Y-88423802D01*
X142043278Y-88423803D01*
X142141873Y-88467700D01*
X142211712Y-88498794D01*
X142305113Y-88518647D01*
X142392056Y-88537128D01*
X142392061Y-88537128D01*
X142398513Y-88538500D01*
X142589487Y-88538500D01*
X142595939Y-88537128D01*
X142595944Y-88537128D01*
X142682887Y-88518647D01*
X142776288Y-88498794D01*
X142846127Y-88467700D01*
X142944722Y-88423803D01*
X142944724Y-88423802D01*
X142950752Y-88421118D01*
X143026940Y-88365764D01*
X143093808Y-88341906D01*
X143101001Y-88341700D01*
X143229534Y-88341700D01*
X143291716Y-88334945D01*
X143428105Y-88283815D01*
X143544661Y-88196461D01*
X143632015Y-88079905D01*
X143683145Y-87943516D01*
X143689900Y-87881334D01*
X143689900Y-87339875D01*
X143709902Y-87271754D01*
X143763558Y-87225261D01*
X143833832Y-87215157D01*
X143881171Y-87232099D01*
X143969301Y-87285472D01*
X143976548Y-87287743D01*
X143976550Y-87287744D01*
X144042836Y-87308517D01*
X144132938Y-87336753D01*
X144206365Y-87343500D01*
X144209263Y-87343500D01*
X144463665Y-87343499D01*
X144719634Y-87343499D01*
X144722492Y-87343236D01*
X144722501Y-87343236D01*
X144759080Y-87339875D01*
X144793062Y-87336753D01*
X144799447Y-87334752D01*
X144949450Y-87287744D01*
X144949452Y-87287743D01*
X144956699Y-87285472D01*
X145103381Y-87196639D01*
X145198905Y-87101115D01*
X145261217Y-87067089D01*
X145332032Y-87072154D01*
X145377095Y-87101115D01*
X145472619Y-87196639D01*
X145619301Y-87285472D01*
X145626548Y-87287743D01*
X145626550Y-87287744D01*
X145692836Y-87308517D01*
X145782938Y-87336753D01*
X145856365Y-87343500D01*
X145859263Y-87343500D01*
X146113665Y-87343499D01*
X146369634Y-87343499D01*
X146372492Y-87343236D01*
X146372501Y-87343236D01*
X146409080Y-87339875D01*
X146443062Y-87336753D01*
X146449447Y-87334752D01*
X146599450Y-87287744D01*
X146599452Y-87287743D01*
X146606699Y-87285472D01*
X146753381Y-87196639D01*
X146874639Y-87075381D01*
X146876437Y-87072412D01*
X146898947Y-87050713D01*
X146909909Y-87042749D01*
X146909911Y-87042747D01*
X146915253Y-87038866D01*
X146998178Y-86946768D01*
X147038621Y-86901852D01*
X147038622Y-86901851D01*
X147043040Y-86896944D01*
X147128657Y-86748652D01*
X147135223Y-86737279D01*
X147135224Y-86737278D01*
X147138527Y-86731556D01*
X147176724Y-86614000D01*
X149008526Y-86614000D01*
X149028391Y-86866403D01*
X149029545Y-86871210D01*
X149029546Y-86871216D01*
X149043201Y-86928092D01*
X149087495Y-87112591D01*
X149089388Y-87117162D01*
X149089389Y-87117164D01*
X149180346Y-87336753D01*
X149184384Y-87346502D01*
X149316672Y-87562376D01*
X149481102Y-87754898D01*
X149673624Y-87919328D01*
X149889498Y-88051616D01*
X149894068Y-88053509D01*
X149894072Y-88053511D01*
X149975142Y-88087091D01*
X150123409Y-88148505D01*
X150208032Y-88168821D01*
X150364784Y-88206454D01*
X150364790Y-88206455D01*
X150369597Y-88207609D01*
X150469416Y-88215465D01*
X150556345Y-88222307D01*
X150556352Y-88222307D01*
X150558801Y-88222500D01*
X150685199Y-88222500D01*
X150687648Y-88222307D01*
X150687655Y-88222307D01*
X150774584Y-88215465D01*
X150874403Y-88207609D01*
X150879210Y-88206455D01*
X150879216Y-88206454D01*
X151035968Y-88168821D01*
X151120591Y-88148505D01*
X151268858Y-88087091D01*
X151349928Y-88053511D01*
X151349932Y-88053509D01*
X151354502Y-88051616D01*
X151570376Y-87919328D01*
X151762898Y-87754898D01*
X151927328Y-87562376D01*
X152059616Y-87346502D01*
X152063655Y-87336753D01*
X152154611Y-87117164D01*
X152154612Y-87117162D01*
X152156505Y-87112591D01*
X152200799Y-86928092D01*
X152214454Y-86871216D01*
X152214455Y-86871210D01*
X152215609Y-86866403D01*
X152235474Y-86614000D01*
X152215609Y-86361597D01*
X152213650Y-86353435D01*
X152157660Y-86120221D01*
X152156505Y-86115409D01*
X152105716Y-85992793D01*
X152061511Y-85886072D01*
X152061509Y-85886068D01*
X152059616Y-85881498D01*
X151927328Y-85665624D01*
X151762898Y-85473102D01*
X151570376Y-85308672D01*
X151354502Y-85176384D01*
X151349932Y-85174491D01*
X151349928Y-85174489D01*
X151125164Y-85081389D01*
X151125162Y-85081388D01*
X151120591Y-85079495D01*
X151026175Y-85056828D01*
X150879216Y-85021546D01*
X150879210Y-85021545D01*
X150874403Y-85020391D01*
X150774584Y-85012535D01*
X150687655Y-85005693D01*
X150687648Y-85005693D01*
X150685199Y-85005500D01*
X150558801Y-85005500D01*
X150556352Y-85005693D01*
X150556345Y-85005693D01*
X150469416Y-85012535D01*
X150369597Y-85020391D01*
X150364790Y-85021545D01*
X150364784Y-85021546D01*
X150217825Y-85056828D01*
X150123409Y-85079495D01*
X150118838Y-85081388D01*
X150118836Y-85081389D01*
X149894072Y-85174489D01*
X149894068Y-85174491D01*
X149889498Y-85176384D01*
X149673624Y-85308672D01*
X149481102Y-85473102D01*
X149316672Y-85665624D01*
X149184384Y-85881498D01*
X149182491Y-85886068D01*
X149182489Y-85886072D01*
X149138284Y-85992793D01*
X149087495Y-86115409D01*
X149086340Y-86120221D01*
X149030351Y-86353435D01*
X149028391Y-86361597D01*
X149008526Y-86614000D01*
X147176724Y-86614000D01*
X147197542Y-86549928D01*
X147200708Y-86519810D01*
X147216814Y-86366565D01*
X147217504Y-86360000D01*
X147197542Y-86170072D01*
X147138527Y-85988444D01*
X147043040Y-85823056D01*
X147022587Y-85800340D01*
X146919675Y-85686045D01*
X146919674Y-85686044D01*
X146915253Y-85681134D01*
X146909909Y-85677251D01*
X146907814Y-85675365D01*
X146870575Y-85614918D01*
X146871928Y-85543934D01*
X146884866Y-85515614D01*
X146953462Y-85404331D01*
X146953463Y-85404329D01*
X146957302Y-85398101D01*
X147011149Y-85235757D01*
X147021500Y-85134732D01*
X147021500Y-84537268D01*
X147010887Y-84434981D01*
X146956756Y-84272732D01*
X146880454Y-84149429D01*
X146861617Y-84080978D01*
X146879823Y-84017856D01*
X146959077Y-83886992D01*
X146965285Y-83873243D01*
X147012256Y-83723356D01*
X147014869Y-83710306D01*
X147020734Y-83646479D01*
X147021000Y-83640691D01*
X147021000Y-83584115D01*
X147016525Y-83568876D01*
X147015135Y-83567671D01*
X147007452Y-83566000D01*
X145985000Y-83566000D01*
X145916879Y-83545998D01*
X145870386Y-83492342D01*
X145859000Y-83440000D01*
X145859000Y-83184000D01*
X145879002Y-83115879D01*
X145932658Y-83069386D01*
X145985000Y-83058000D01*
X147002884Y-83058000D01*
X147018123Y-83053525D01*
X147019328Y-83052135D01*
X147020999Y-83044452D01*
X147020999Y-82983295D01*
X147020736Y-82977546D01*
X147014868Y-82913685D01*
X147012257Y-82900649D01*
X146965285Y-82750757D01*
X146959079Y-82737012D01*
X146884398Y-82613700D01*
X146866219Y-82545070D01*
X146888029Y-82477507D01*
X146942905Y-82432460D01*
X147013423Y-82424233D01*
X147034234Y-82429655D01*
X147676004Y-82656917D01*
X147682162Y-82659281D01*
X148341613Y-82932435D01*
X148347639Y-82935118D01*
X148991890Y-83242410D01*
X148997768Y-83245405D01*
X149131625Y-83318083D01*
X149625071Y-83586002D01*
X149630742Y-83589276D01*
X150060285Y-83852500D01*
X150239377Y-83962248D01*
X150244909Y-83965841D01*
X150833158Y-84370134D01*
X150838478Y-84373999D01*
X151404796Y-84808550D01*
X151409901Y-84812685D01*
X151905256Y-85235757D01*
X151952661Y-85276245D01*
X151957560Y-85280656D01*
X152341098Y-85644619D01*
X152475333Y-85772003D01*
X152479994Y-85776664D01*
X152550792Y-85851269D01*
X152971341Y-86294436D01*
X152975752Y-86299336D01*
X153189778Y-86549928D01*
X153439315Y-86842099D01*
X153443450Y-86847204D01*
X153878001Y-87413522D01*
X153881866Y-87418842D01*
X154286159Y-88007091D01*
X154289752Y-88012623D01*
X154662724Y-88621258D01*
X154665998Y-88626929D01*
X154878762Y-89018792D01*
X155006595Y-89254232D01*
X155009590Y-89260110D01*
X155316882Y-89904361D01*
X155319565Y-89910387D01*
X155592719Y-90569838D01*
X155595083Y-90575996D01*
X155644987Y-90716921D01*
X155830075Y-91239592D01*
X155833354Y-91248853D01*
X155835391Y-91255123D01*
X156026220Y-91899351D01*
X156038112Y-91939498D01*
X156039816Y-91945853D01*
X156206455Y-92639954D01*
X156207824Y-92646396D01*
X156333200Y-93322865D01*
X156337902Y-93348232D01*
X156338933Y-93354739D01*
X156369703Y-93588462D01*
X156432100Y-94062417D01*
X156432790Y-94068977D01*
X156433386Y-94076550D01*
X156488796Y-94780597D01*
X156489139Y-94787146D01*
X156507696Y-95495826D01*
X156507824Y-95500702D01*
X156507824Y-95507284D01*
X156489139Y-96220854D01*
X156488796Y-96227403D01*
X156445574Y-96776588D01*
X156432790Y-96939023D01*
X156432100Y-96945583D01*
X156421347Y-97027260D01*
X156344496Y-97611007D01*
X156338934Y-97653252D01*
X156337903Y-97659759D01*
X156208672Y-98357032D01*
X156207826Y-98361594D01*
X156206457Y-98368037D01*
X156045771Y-99037343D01*
X156039820Y-99062130D01*
X156038117Y-99068485D01*
X155851978Y-99696880D01*
X155835392Y-99752873D01*
X155833355Y-99759143D01*
X155808768Y-99828576D01*
X155595083Y-100432004D01*
X155592719Y-100438162D01*
X155319565Y-101097613D01*
X155316882Y-101103639D01*
X155009590Y-101747890D01*
X155006595Y-101753768D01*
X154665998Y-102381071D01*
X154662724Y-102386742D01*
X154434122Y-102759787D01*
X154289752Y-102995377D01*
X154286159Y-103000909D01*
X154260381Y-103038417D01*
X153976827Y-103450990D01*
X153972961Y-103456310D01*
X153596352Y-103947116D01*
X153592201Y-103952242D01*
X153126472Y-104497541D01*
X153122061Y-104502440D01*
X152657809Y-104991660D01*
X152628404Y-105022646D01*
X152623742Y-105027308D01*
X152384323Y-105254509D01*
X152103538Y-105520964D01*
X152098638Y-105525375D01*
X151673118Y-105888804D01*
X151553336Y-105991107D01*
X151548210Y-105995259D01*
X151034203Y-106389670D01*
X150967983Y-106415270D01*
X150898434Y-106401005D01*
X150847638Y-106351404D01*
X150831499Y-106289707D01*
X150831499Y-106132366D01*
X150824753Y-106058938D01*
X150791657Y-105953328D01*
X150775744Y-105902550D01*
X150775743Y-105902548D01*
X150773472Y-105895301D01*
X150690179Y-105757766D01*
X150672000Y-105689137D01*
X150690695Y-105626380D01*
X150763462Y-105508331D01*
X150763463Y-105508329D01*
X150767302Y-105502101D01*
X150821149Y-105339757D01*
X150831500Y-105238732D01*
X150831500Y-104641268D01*
X150820887Y-104538981D01*
X150766756Y-104376732D01*
X150690454Y-104253429D01*
X150671617Y-104184978D01*
X150689823Y-104121856D01*
X150769077Y-103990992D01*
X150775285Y-103977243D01*
X150822256Y-103827356D01*
X150824869Y-103814306D01*
X150830734Y-103750479D01*
X150831000Y-103744691D01*
X150831000Y-103688115D01*
X150826525Y-103672876D01*
X150825135Y-103671671D01*
X150817452Y-103670000D01*
X149795000Y-103670000D01*
X149726879Y-103649998D01*
X149680386Y-103596342D01*
X149669000Y-103544000D01*
X149669000Y-103143885D01*
X150177000Y-103143885D01*
X150181475Y-103159124D01*
X150182865Y-103160329D01*
X150190548Y-103162000D01*
X150812884Y-103162000D01*
X150828123Y-103157525D01*
X150829328Y-103156135D01*
X150830999Y-103148452D01*
X150830999Y-103087295D01*
X150830736Y-103081546D01*
X150824868Y-103017685D01*
X150822257Y-103004649D01*
X150775285Y-102854757D01*
X150769079Y-102841012D01*
X150688176Y-102707426D01*
X150678869Y-102695557D01*
X150568443Y-102585131D01*
X150556574Y-102575824D01*
X150422988Y-102494921D01*
X150409243Y-102488715D01*
X150259356Y-102441744D01*
X150246306Y-102439131D01*
X150191414Y-102434087D01*
X150179876Y-102437475D01*
X150178671Y-102438865D01*
X150177000Y-102446548D01*
X150177000Y-103143885D01*
X149669000Y-103143885D01*
X149669000Y-102451116D01*
X149664525Y-102435877D01*
X149663135Y-102434672D01*
X149658706Y-102433709D01*
X149599685Y-102439132D01*
X149586649Y-102441743D01*
X149436757Y-102488715D01*
X149423012Y-102494921D01*
X149289426Y-102575824D01*
X149277557Y-102585131D01*
X149187449Y-102675239D01*
X149125137Y-102709265D01*
X149054322Y-102704200D01*
X149009259Y-102675239D01*
X148913381Y-102579361D01*
X148766699Y-102490528D01*
X148759452Y-102488257D01*
X148759450Y-102488256D01*
X148657165Y-102456202D01*
X148603062Y-102439247D01*
X148529635Y-102432500D01*
X148526737Y-102432500D01*
X148272335Y-102432501D01*
X148016366Y-102432501D01*
X148013508Y-102432764D01*
X148013499Y-102432764D01*
X147979619Y-102435877D01*
X147942938Y-102439247D01*
X147936560Y-102441246D01*
X147936559Y-102441246D01*
X147786550Y-102488256D01*
X147786548Y-102488257D01*
X147779301Y-102490528D01*
X147632619Y-102579361D01*
X147593385Y-102618595D01*
X147531073Y-102652621D01*
X147504290Y-102655500D01*
X147462626Y-102655500D01*
X147394505Y-102635498D01*
X147361801Y-102605065D01*
X147354661Y-102595539D01*
X147238105Y-102508185D01*
X147101716Y-102457055D01*
X147039534Y-102450300D01*
X145419266Y-102450300D01*
X145357084Y-102457055D01*
X145220695Y-102508185D01*
X145104139Y-102595539D01*
X145016785Y-102712095D01*
X144965655Y-102848484D01*
X144958900Y-102910666D01*
X144958900Y-103667334D01*
X144965655Y-103729516D01*
X144968429Y-103736915D01*
X145002334Y-103827356D01*
X145016785Y-103865905D01*
X145017713Y-103867143D01*
X145032083Y-103932848D01*
X145018162Y-103980257D01*
X145016785Y-103982095D01*
X145013636Y-103990496D01*
X145013634Y-103990499D01*
X144987299Y-104060749D01*
X144965655Y-104118484D01*
X144958900Y-104180666D01*
X144958900Y-104937334D01*
X144965655Y-104999516D01*
X145016785Y-105135905D01*
X145017713Y-105137143D01*
X145032083Y-105202848D01*
X145018162Y-105250257D01*
X145016785Y-105252095D01*
X145013636Y-105260496D01*
X145013634Y-105260499D01*
X144986486Y-105332918D01*
X144965655Y-105388484D01*
X144958900Y-105450666D01*
X144958900Y-106207334D01*
X144965655Y-106269516D01*
X144972818Y-106288623D01*
X145010699Y-106389670D01*
X145016785Y-106405905D01*
X145017713Y-106407143D01*
X145032083Y-106472848D01*
X145018162Y-106520257D01*
X145016785Y-106522095D01*
X144965655Y-106658484D01*
X144958900Y-106720666D01*
X144958900Y-107477334D01*
X144965655Y-107539516D01*
X145016785Y-107675905D01*
X145104139Y-107792461D01*
X145220695Y-107879815D01*
X145357084Y-107930945D01*
X145419266Y-107937700D01*
X145749301Y-107937700D01*
X145823361Y-107961763D01*
X145847248Y-107979118D01*
X145853276Y-107981802D01*
X145853278Y-107981803D01*
X146015681Y-108054109D01*
X146021712Y-108056794D01*
X146104085Y-108074303D01*
X146202056Y-108095128D01*
X146202061Y-108095128D01*
X146208513Y-108096500D01*
X146399487Y-108096500D01*
X146405939Y-108095128D01*
X146405944Y-108095128D01*
X146503915Y-108074303D01*
X146586288Y-108056794D01*
X146592319Y-108054109D01*
X146754722Y-107981803D01*
X146754724Y-107981802D01*
X146760752Y-107979118D01*
X146784639Y-107961763D01*
X146858699Y-107937700D01*
X147039534Y-107937700D01*
X147101716Y-107930945D01*
X147238105Y-107879815D01*
X147354661Y-107792461D01*
X147442015Y-107675905D01*
X147493145Y-107539516D01*
X147499900Y-107477334D01*
X147499900Y-107443875D01*
X147519902Y-107375754D01*
X147573558Y-107329261D01*
X147643832Y-107319157D01*
X147691171Y-107336099D01*
X147779301Y-107389472D01*
X147786548Y-107391743D01*
X147786550Y-107391744D01*
X147852836Y-107412517D01*
X147942938Y-107440753D01*
X148016365Y-107447500D01*
X148019263Y-107447500D01*
X148273665Y-107447499D01*
X148529634Y-107447499D01*
X148532492Y-107447236D01*
X148532501Y-107447236D01*
X148569080Y-107443875D01*
X148603062Y-107440753D01*
X148609447Y-107438752D01*
X148759450Y-107391744D01*
X148759452Y-107391743D01*
X148766699Y-107389472D01*
X148913381Y-107300639D01*
X149008905Y-107205115D01*
X149071217Y-107171089D01*
X149142032Y-107176154D01*
X149187095Y-107205115D01*
X149281368Y-107299388D01*
X149315394Y-107361700D01*
X149310329Y-107432515D01*
X149267782Y-107489351D01*
X149252395Y-107499214D01*
X149129955Y-107565693D01*
X149124079Y-107568687D01*
X148476787Y-107877430D01*
X148470772Y-107880108D01*
X147808221Y-108154545D01*
X147802063Y-108156909D01*
X147126044Y-108396301D01*
X147119774Y-108398338D01*
X146432165Y-108602017D01*
X146425827Y-108603716D01*
X145728455Y-108771140D01*
X145722022Y-108772507D01*
X145016878Y-108903197D01*
X145010380Y-108904227D01*
X144421037Y-108981815D01*
X144299376Y-108997832D01*
X144292816Y-108998522D01*
X144217576Y-109004444D01*
X143577851Y-109054791D01*
X143571302Y-109055134D01*
X142854378Y-109073907D01*
X142847810Y-109073907D01*
X142130886Y-109055134D01*
X142124337Y-109054791D01*
X141484612Y-109004444D01*
X141409372Y-108998522D01*
X141402812Y-108997832D01*
X141281151Y-108981815D01*
X140691808Y-108904227D01*
X140685310Y-108903197D01*
X139980166Y-108772507D01*
X139973733Y-108771140D01*
X139276361Y-108603716D01*
X139270023Y-108602017D01*
X138582414Y-108398338D01*
X138576144Y-108396301D01*
X137900125Y-108156909D01*
X137893967Y-108154545D01*
X137231416Y-107880108D01*
X137225401Y-107877430D01*
X136578109Y-107568687D01*
X136572233Y-107565693D01*
X136326949Y-107432515D01*
X135941981Y-107223495D01*
X135936310Y-107220221D01*
X135324815Y-106845496D01*
X135319283Y-106841903D01*
X134775321Y-106468048D01*
X134730510Y-106412980D01*
X134722585Y-106342427D01*
X134754062Y-106278789D01*
X134814947Y-106242272D01*
X134866399Y-106239759D01*
X134870783Y-106240453D01*
X134875597Y-106241609D01*
X134975416Y-106249465D01*
X135062345Y-106256307D01*
X135062352Y-106256307D01*
X135064801Y-106256500D01*
X135191199Y-106256500D01*
X135193648Y-106256307D01*
X135193655Y-106256307D01*
X135280584Y-106249465D01*
X135380403Y-106241609D01*
X135385210Y-106240455D01*
X135385216Y-106240454D01*
X135541968Y-106202821D01*
X135626591Y-106182505D01*
X135631164Y-106180611D01*
X135855928Y-106087511D01*
X135855932Y-106087509D01*
X135860502Y-106085616D01*
X136076376Y-105953328D01*
X136268898Y-105788898D01*
X136433328Y-105596376D01*
X136565616Y-105380502D01*
X136581656Y-105341780D01*
X136660611Y-105151164D01*
X136660612Y-105151162D01*
X136662505Y-105146591D01*
X136697814Y-104999516D01*
X136720454Y-104905216D01*
X136720455Y-104905210D01*
X136721609Y-104900403D01*
X136741474Y-104648000D01*
X136721609Y-104395597D01*
X136718748Y-104383676D01*
X136682162Y-104231287D01*
X136662505Y-104149409D01*
X136651092Y-104121856D01*
X136567511Y-103920072D01*
X136567509Y-103920068D01*
X136565616Y-103915498D01*
X136433328Y-103699624D01*
X136268898Y-103507102D01*
X136076376Y-103342672D01*
X135860502Y-103210384D01*
X135855932Y-103208491D01*
X135855928Y-103208489D01*
X135631164Y-103115389D01*
X135631162Y-103115388D01*
X135626591Y-103113495D01*
X135532842Y-103090988D01*
X135385216Y-103055546D01*
X135385210Y-103055545D01*
X135380403Y-103054391D01*
X135280584Y-103046535D01*
X135193655Y-103039693D01*
X135193648Y-103039693D01*
X135191199Y-103039500D01*
X135064801Y-103039500D01*
X135062352Y-103039693D01*
X135062345Y-103039693D01*
X134975416Y-103046535D01*
X134875597Y-103054391D01*
X134870790Y-103055545D01*
X134870784Y-103055546D01*
X134723158Y-103090988D01*
X134629409Y-103113495D01*
X134624838Y-103115388D01*
X134624836Y-103115389D01*
X134400072Y-103208489D01*
X134400068Y-103208491D01*
X134395498Y-103210384D01*
X134179624Y-103342672D01*
X133987102Y-103507102D01*
X133822672Y-103699624D01*
X133690384Y-103915498D01*
X133688491Y-103920068D01*
X133688489Y-103920072D01*
X133604908Y-104121856D01*
X133593495Y-104149409D01*
X133573838Y-104231287D01*
X133537253Y-104383676D01*
X133534391Y-104395597D01*
X133514526Y-104648000D01*
X133534391Y-104900403D01*
X133535545Y-104905210D01*
X133535546Y-104905216D01*
X133558186Y-104999516D01*
X133593495Y-105146591D01*
X133616798Y-105202848D01*
X133618809Y-105207704D01*
X133626398Y-105278293D01*
X133594619Y-105341780D01*
X133533561Y-105378008D01*
X133462610Y-105375474D01*
X133415667Y-105347319D01*
X133078448Y-105027310D01*
X133073784Y-105022646D01*
X133044379Y-104991660D01*
X132580127Y-104502440D01*
X132575716Y-104497541D01*
X132109987Y-103952242D01*
X132105835Y-103947116D01*
X132094887Y-103932848D01*
X131669243Y-103378138D01*
X131665375Y-103372813D01*
X131642886Y-103340090D01*
X131291514Y-102828842D01*
X131259191Y-102781811D01*
X131255598Y-102776279D01*
X131089378Y-102505033D01*
X130880873Y-102164783D01*
X130877599Y-102159112D01*
X130535401Y-101528861D01*
X130532406Y-101522984D01*
X130223669Y-100875705D01*
X130220986Y-100869678D01*
X129946549Y-100207127D01*
X129944185Y-100200969D01*
X129704793Y-99524950D01*
X129702755Y-99518676D01*
X129666917Y-99397688D01*
X129499077Y-98831071D01*
X129497374Y-98824716D01*
X129493665Y-98809263D01*
X129329954Y-98127361D01*
X129328585Y-98120918D01*
X129326728Y-98110895D01*
X129197897Y-97415784D01*
X129196866Y-97409277D01*
X129183665Y-97309000D01*
X129103262Y-96698282D01*
X129102572Y-96691722D01*
X129081318Y-96421667D01*
X129046303Y-95976757D01*
X129045960Y-95970208D01*
X129027187Y-95253284D01*
X129027187Y-95246702D01*
X129045960Y-94529792D01*
X129046303Y-94523243D01*
X129102572Y-93808278D01*
X129103262Y-93801718D01*
X129174467Y-93260862D01*
X129175499Y-93254346D01*
X129206374Y-93087760D01*
X129288176Y-92646396D01*
X129289545Y-92639954D01*
X129328454Y-92477885D01*
X130389000Y-92477885D01*
X130393475Y-92493124D01*
X130394865Y-92494329D01*
X130402548Y-92496000D01*
X131599885Y-92496000D01*
X131615124Y-92491525D01*
X131616329Y-92490135D01*
X131618000Y-92482452D01*
X131618000Y-92477885D01*
X132126000Y-92477885D01*
X132130475Y-92493124D01*
X132131865Y-92494329D01*
X132139548Y-92496000D01*
X133336884Y-92496000D01*
X133352123Y-92491525D01*
X133353328Y-92490135D01*
X133354999Y-92482452D01*
X133354999Y-92102905D01*
X133354662Y-92096386D01*
X133344743Y-92000794D01*
X133341851Y-91987400D01*
X133290412Y-91833216D01*
X133284239Y-91820038D01*
X133198937Y-91682193D01*
X133189901Y-91670792D01*
X133075171Y-91556261D01*
X133063760Y-91547249D01*
X132925757Y-91462184D01*
X132912576Y-91456037D01*
X132758290Y-91404862D01*
X132744914Y-91401995D01*
X132650562Y-91392328D01*
X132644145Y-91392000D01*
X132144115Y-91392000D01*
X132128876Y-91396475D01*
X132127671Y-91397865D01*
X132126000Y-91405548D01*
X132126000Y-92477885D01*
X131618000Y-92477885D01*
X131618000Y-91410116D01*
X131613525Y-91394877D01*
X131612135Y-91393672D01*
X131604452Y-91392001D01*
X131099905Y-91392001D01*
X131093386Y-91392338D01*
X130997794Y-91402257D01*
X130984400Y-91405149D01*
X130830216Y-91456588D01*
X130817038Y-91462761D01*
X130679193Y-91548063D01*
X130667792Y-91557099D01*
X130553261Y-91671829D01*
X130544249Y-91683240D01*
X130459184Y-91821243D01*
X130453037Y-91834424D01*
X130401862Y-91988710D01*
X130398995Y-92002086D01*
X130389328Y-92096438D01*
X130389000Y-92102855D01*
X130389000Y-92477885D01*
X129328454Y-92477885D01*
X129456184Y-91945853D01*
X129457888Y-91939498D01*
X129469781Y-91899351D01*
X129660609Y-91255123D01*
X129662646Y-91248853D01*
X129665926Y-91239592D01*
X129851013Y-90716921D01*
X129900917Y-90575996D01*
X129903281Y-90569838D01*
X130176435Y-89910387D01*
X130179118Y-89904361D01*
X130486410Y-89260110D01*
X130489405Y-89254232D01*
X130617238Y-89018792D01*
X130830002Y-88626929D01*
X130833276Y-88621258D01*
X131206248Y-88012623D01*
X131209841Y-88007091D01*
X131614134Y-87418842D01*
X131617999Y-87413522D01*
X132052550Y-86847204D01*
X132056685Y-86842099D01*
X132306222Y-86549928D01*
X132520248Y-86299336D01*
X132524659Y-86294436D01*
X132945209Y-85851269D01*
X133016006Y-85776664D01*
X133020667Y-85772003D01*
X133154902Y-85644619D01*
X133538440Y-85280656D01*
X133543339Y-85276245D01*
X133778670Y-85075254D01*
X133843459Y-85046223D01*
X133913659Y-85056828D01*
X133966982Y-85103703D01*
X133986500Y-85171065D01*
X133986500Y-94155233D01*
X133985973Y-94166416D01*
X133984298Y-94173909D01*
X133986097Y-94231122D01*
X133986435Y-94241888D01*
X133968583Y-94310604D01*
X133916415Y-94358759D01*
X133886694Y-94369094D01*
X133877225Y-94371107D01*
X133829712Y-94381206D01*
X133823682Y-94383891D01*
X133823681Y-94383891D01*
X133661278Y-94456197D01*
X133661276Y-94456198D01*
X133655248Y-94458882D01*
X133500747Y-94571134D01*
X133496332Y-94576037D01*
X133491420Y-94580460D01*
X133490295Y-94579211D01*
X133436986Y-94612051D01*
X133403800Y-94616500D01*
X133272596Y-94616500D01*
X133204475Y-94596498D01*
X133164877Y-94555866D01*
X133147519Y-94527260D01*
X133098623Y-94446683D01*
X133011689Y-94346500D01*
X132951023Y-94276588D01*
X132951021Y-94276586D01*
X132947523Y-94272555D01*
X132925751Y-94254703D01*
X132911471Y-94242994D01*
X132871476Y-94184334D01*
X132869545Y-94113364D01*
X132906290Y-94052616D01*
X132925059Y-94038416D01*
X133064807Y-93951937D01*
X133076208Y-93942901D01*
X133190739Y-93828171D01*
X133199751Y-93816760D01*
X133284816Y-93678757D01*
X133290963Y-93665576D01*
X133342138Y-93511290D01*
X133345005Y-93497914D01*
X133354672Y-93403562D01*
X133355000Y-93397146D01*
X133355000Y-93022115D01*
X133350525Y-93006876D01*
X133349135Y-93005671D01*
X133341452Y-93004000D01*
X130407116Y-93004000D01*
X130391877Y-93008475D01*
X130390672Y-93009865D01*
X130389001Y-93017548D01*
X130389001Y-93397095D01*
X130389338Y-93403614D01*
X130399257Y-93499206D01*
X130402149Y-93512600D01*
X130453588Y-93666784D01*
X130459761Y-93679962D01*
X130545063Y-93817807D01*
X130554099Y-93829208D01*
X130668829Y-93943739D01*
X130680243Y-93952753D01*
X130819713Y-94038723D01*
X130867207Y-94091495D01*
X130878631Y-94161566D01*
X130850357Y-94226690D01*
X130840574Y-94237149D01*
X130725865Y-94346576D01*
X130588246Y-94531542D01*
X130585830Y-94536293D01*
X130585828Y-94536297D01*
X130570086Y-94567260D01*
X130483760Y-94737051D01*
X130482178Y-94742145D01*
X130482177Y-94742148D01*
X130433335Y-94899446D01*
X130415393Y-94957227D01*
X130414692Y-94962516D01*
X130392604Y-95129173D01*
X130385102Y-95185774D01*
X130385302Y-95191103D01*
X130385302Y-95191105D01*
X130386604Y-95225774D01*
X130393751Y-95416158D01*
X130441093Y-95641791D01*
X130443051Y-95646750D01*
X130443052Y-95646752D01*
X130506616Y-95807704D01*
X130525776Y-95856221D01*
X130528543Y-95860780D01*
X130528544Y-95860783D01*
X130552789Y-95900737D01*
X130645377Y-96053317D01*
X130648874Y-96057347D01*
X130770148Y-96197103D01*
X130796477Y-96227445D01*
X130800608Y-96230832D01*
X130970627Y-96370240D01*
X130970633Y-96370244D01*
X130974755Y-96373624D01*
X131006250Y-96391552D01*
X131055555Y-96442632D01*
X131069417Y-96512262D01*
X131043434Y-96578333D01*
X131014284Y-96605573D01*
X130892681Y-96687441D01*
X130888824Y-96691120D01*
X130888822Y-96691122D01*
X130870665Y-96708443D01*
X130725865Y-96846576D01*
X130588246Y-97031542D01*
X130585830Y-97036293D01*
X130585828Y-97036297D01*
X130563230Y-97080745D01*
X130483760Y-97237051D01*
X130482178Y-97242145D01*
X130482177Y-97242148D01*
X130435860Y-97391312D01*
X130415393Y-97457227D01*
X130414692Y-97462516D01*
X130388549Y-97659768D01*
X130385102Y-97685774D01*
X130393751Y-97916158D01*
X130394846Y-97921377D01*
X130397608Y-97934542D01*
X130441093Y-98141791D01*
X130443051Y-98146750D01*
X130443052Y-98146752D01*
X130488610Y-98262110D01*
X130525776Y-98356221D01*
X130528543Y-98360780D01*
X130528544Y-98360783D01*
X130566067Y-98422619D01*
X130645377Y-98553317D01*
X130648874Y-98557347D01*
X130777687Y-98705791D01*
X130796477Y-98727445D01*
X130800608Y-98730832D01*
X130970627Y-98870240D01*
X130970633Y-98870244D01*
X130974755Y-98873624D01*
X130979391Y-98876263D01*
X130979394Y-98876265D01*
X131088422Y-98938327D01*
X131175114Y-98987675D01*
X131391825Y-99066337D01*
X131397074Y-99067286D01*
X131397077Y-99067287D01*
X131614608Y-99106623D01*
X131614615Y-99106624D01*
X131618692Y-99107361D01*
X131636414Y-99108197D01*
X131641356Y-99108430D01*
X131641363Y-99108430D01*
X131642844Y-99108500D01*
X132054890Y-99108500D01*
X132121809Y-99102822D01*
X132221409Y-99094371D01*
X132221413Y-99094370D01*
X132226720Y-99093920D01*
X132231875Y-99092582D01*
X132231881Y-99092581D01*
X132444703Y-99037343D01*
X132444707Y-99037342D01*
X132449872Y-99036001D01*
X132454738Y-99033809D01*
X132454741Y-99033808D01*
X132655202Y-98943507D01*
X132660075Y-98941312D01*
X132851319Y-98812559D01*
X132856802Y-98807329D01*
X132927798Y-98739601D01*
X133018135Y-98653424D01*
X133155754Y-98468458D01*
X133168394Y-98443598D01*
X133248498Y-98286043D01*
X133260240Y-98262949D01*
X133262954Y-98254211D01*
X133327024Y-98047871D01*
X133328607Y-98042773D01*
X133340114Y-97955955D01*
X133358198Y-97819511D01*
X133358198Y-97819506D01*
X133358898Y-97814226D01*
X133350249Y-97583842D01*
X133344614Y-97556983D01*
X133304002Y-97363428D01*
X133302907Y-97358209D01*
X133283577Y-97309263D01*
X133220185Y-97148744D01*
X133220184Y-97148742D01*
X133218224Y-97143779D01*
X133196523Y-97108016D01*
X133101390Y-96951243D01*
X133098623Y-96946683D01*
X133011755Y-96846576D01*
X132951023Y-96776588D01*
X132951021Y-96776586D01*
X132947523Y-96772555D01*
X132886999Y-96722928D01*
X132773373Y-96629760D01*
X132773367Y-96629756D01*
X132769245Y-96626376D01*
X132737750Y-96608448D01*
X132688445Y-96557368D01*
X132674583Y-96487738D01*
X132700566Y-96421667D01*
X132729716Y-96394427D01*
X132787790Y-96355329D01*
X132851319Y-96312559D01*
X133018135Y-96153424D01*
X133155754Y-95968458D01*
X133158170Y-95963706D01*
X133158175Y-95963698D01*
X133163922Y-95952394D01*
X133212625Y-95900737D01*
X133276238Y-95883500D01*
X133403800Y-95883500D01*
X133471921Y-95903502D01*
X133491147Y-95919843D01*
X133491420Y-95919540D01*
X133496332Y-95923963D01*
X133500747Y-95928866D01*
X133522329Y-95944546D01*
X133610296Y-96008458D01*
X133655248Y-96041118D01*
X133661276Y-96043802D01*
X133661278Y-96043803D01*
X133691699Y-96057347D01*
X133829712Y-96118794D01*
X133923112Y-96138647D01*
X134010056Y-96157128D01*
X134010061Y-96157128D01*
X134016513Y-96158500D01*
X134207487Y-96158500D01*
X134213939Y-96157128D01*
X134213944Y-96157128D01*
X134300887Y-96138647D01*
X134394288Y-96118794D01*
X134532301Y-96057347D01*
X134562722Y-96043803D01*
X134562724Y-96043802D01*
X134568752Y-96041118D01*
X134613705Y-96008458D01*
X134666351Y-95970208D01*
X134723253Y-95928866D01*
X134748539Y-95900783D01*
X134846621Y-95791852D01*
X134846622Y-95791851D01*
X134851040Y-95786944D01*
X134884110Y-95729665D01*
X134935491Y-95680673D01*
X135005204Y-95667236D01*
X135071115Y-95693623D01*
X135112298Y-95751455D01*
X135118265Y-95800582D01*
X135118897Y-95800611D01*
X135118766Y-95803474D01*
X135118500Y-95806365D01*
X135118501Y-96319634D01*
X135118764Y-96322492D01*
X135118764Y-96322501D01*
X135119583Y-96331414D01*
X135125247Y-96393062D01*
X135127246Y-96399440D01*
X135127246Y-96399441D01*
X135159151Y-96501248D01*
X135176528Y-96556699D01*
X135265361Y-96703381D01*
X135285885Y-96723905D01*
X135319911Y-96786217D01*
X135314846Y-96857032D01*
X135285885Y-96902095D01*
X135265361Y-96922619D01*
X135176528Y-97069301D01*
X135174257Y-97076548D01*
X135174256Y-97076550D01*
X135153489Y-97142817D01*
X135125247Y-97232938D01*
X135118500Y-97306365D01*
X135118501Y-97819634D01*
X135118764Y-97822492D01*
X135118764Y-97822501D01*
X135119583Y-97831414D01*
X135125247Y-97893062D01*
X135127246Y-97899440D01*
X135127246Y-97899441D01*
X135171356Y-98040194D01*
X135176528Y-98056699D01*
X135265361Y-98203381D01*
X135285885Y-98223905D01*
X135319911Y-98286217D01*
X135314846Y-98357032D01*
X135285885Y-98402095D01*
X135265361Y-98422619D01*
X135176528Y-98569301D01*
X135125247Y-98732938D01*
X135118500Y-98806365D01*
X135118501Y-99319634D01*
X135118764Y-99322492D01*
X135118764Y-99322501D01*
X135120889Y-99345627D01*
X135125247Y-99393062D01*
X135127246Y-99399440D01*
X135127246Y-99399441D01*
X135171331Y-99540114D01*
X135176528Y-99556699D01*
X135265361Y-99703381D01*
X135386619Y-99824639D01*
X135533301Y-99913472D01*
X135540548Y-99915743D01*
X135540550Y-99915744D01*
X135606836Y-99936517D01*
X135696938Y-99964753D01*
X135770365Y-99971500D01*
X135880000Y-99971500D01*
X135948121Y-99991502D01*
X135994614Y-100045158D01*
X136006000Y-100097500D01*
X136006000Y-102538933D01*
X136005473Y-102550116D01*
X136003798Y-102557609D01*
X136004047Y-102565535D01*
X136004047Y-102565536D01*
X136005938Y-102625686D01*
X136006000Y-102629645D01*
X136006000Y-102657556D01*
X136006497Y-102661490D01*
X136006497Y-102661491D01*
X136006505Y-102661556D01*
X136007438Y-102673393D01*
X136008827Y-102717589D01*
X136014478Y-102737039D01*
X136018487Y-102756400D01*
X136021026Y-102776497D01*
X136023945Y-102783868D01*
X136023945Y-102783870D01*
X136037304Y-102817612D01*
X136041149Y-102828842D01*
X136048678Y-102854757D01*
X136053482Y-102871293D01*
X136057515Y-102878112D01*
X136057517Y-102878117D01*
X136063793Y-102888728D01*
X136072488Y-102906476D01*
X136079948Y-102925317D01*
X136084610Y-102931733D01*
X136084610Y-102931734D01*
X136105936Y-102961087D01*
X136112452Y-102971007D01*
X136128525Y-102998184D01*
X136134958Y-103009062D01*
X136149279Y-103023383D01*
X136162119Y-103038416D01*
X136174028Y-103054807D01*
X136180134Y-103059858D01*
X136208105Y-103082998D01*
X136216884Y-103090988D01*
X138975195Y-105849300D01*
X139009221Y-105911612D01*
X139012100Y-105938395D01*
X139012100Y-106207334D01*
X139018855Y-106269516D01*
X139026018Y-106288623D01*
X139063899Y-106389670D01*
X139069985Y-106405905D01*
X139070913Y-106407143D01*
X139085283Y-106472848D01*
X139071362Y-106520257D01*
X139069985Y-106522095D01*
X139018855Y-106658484D01*
X139012100Y-106720666D01*
X139012100Y-107477334D01*
X139018855Y-107539516D01*
X139069985Y-107675905D01*
X139157339Y-107792461D01*
X139273895Y-107879815D01*
X139410284Y-107930945D01*
X139472466Y-107937700D01*
X139653301Y-107937700D01*
X139727361Y-107961763D01*
X139751248Y-107979118D01*
X139757276Y-107981802D01*
X139757278Y-107981803D01*
X139919681Y-108054109D01*
X139925712Y-108056794D01*
X140008085Y-108074303D01*
X140106056Y-108095128D01*
X140106061Y-108095128D01*
X140112513Y-108096500D01*
X140303487Y-108096500D01*
X140309939Y-108095128D01*
X140309944Y-108095128D01*
X140407915Y-108074303D01*
X140490288Y-108056794D01*
X140496319Y-108054109D01*
X140658722Y-107981803D01*
X140658724Y-107981802D01*
X140664752Y-107979118D01*
X140688639Y-107961763D01*
X140762699Y-107937700D01*
X141092734Y-107937700D01*
X141154916Y-107930945D01*
X141291305Y-107879815D01*
X141407861Y-107792461D01*
X141495215Y-107675905D01*
X141546345Y-107539516D01*
X141553100Y-107477334D01*
X141553100Y-106720666D01*
X141546345Y-106658484D01*
X141495215Y-106522095D01*
X141494287Y-106520857D01*
X141479917Y-106455152D01*
X141493838Y-106407743D01*
X141495215Y-106405905D01*
X141501302Y-106389670D01*
X141539182Y-106288623D01*
X141546345Y-106269516D01*
X141553100Y-106207334D01*
X141553100Y-105450666D01*
X141546345Y-105388484D01*
X141525514Y-105332918D01*
X141498366Y-105260499D01*
X141498364Y-105260496D01*
X141495215Y-105252095D01*
X141494287Y-105250857D01*
X141479917Y-105185152D01*
X141493838Y-105137743D01*
X141495215Y-105135905D01*
X141546345Y-104999516D01*
X141553100Y-104937334D01*
X141553100Y-104180666D01*
X141546345Y-104118484D01*
X141524701Y-104060749D01*
X141498366Y-103990499D01*
X141498364Y-103990496D01*
X141495215Y-103982095D01*
X141494287Y-103980857D01*
X141479917Y-103915152D01*
X141493838Y-103867743D01*
X141495215Y-103865905D01*
X141509667Y-103827356D01*
X141543571Y-103736915D01*
X141546345Y-103729516D01*
X141553100Y-103667334D01*
X141553100Y-103378000D01*
X142596496Y-103378000D01*
X142616458Y-103567928D01*
X142675473Y-103749556D01*
X142770960Y-103914944D01*
X142775378Y-103919851D01*
X142775379Y-103919852D01*
X142838990Y-103990499D01*
X142898747Y-104056866D01*
X143053248Y-104169118D01*
X143059276Y-104171802D01*
X143059278Y-104171803D01*
X143195153Y-104232298D01*
X143227712Y-104246794D01*
X143301076Y-104262388D01*
X143408056Y-104285128D01*
X143408061Y-104285128D01*
X143414513Y-104286500D01*
X143605487Y-104286500D01*
X143611939Y-104285128D01*
X143611944Y-104285128D01*
X143718924Y-104262388D01*
X143792288Y-104246794D01*
X143824847Y-104232298D01*
X143960722Y-104171803D01*
X143960724Y-104171802D01*
X143966752Y-104169118D01*
X144121253Y-104056866D01*
X144181010Y-103990499D01*
X144244621Y-103919852D01*
X144244622Y-103919851D01*
X144249040Y-103914944D01*
X144344527Y-103749556D01*
X144403542Y-103567928D01*
X144423504Y-103378000D01*
X144403542Y-103188072D01*
X144344527Y-103006444D01*
X144338138Y-102995377D01*
X144296829Y-102923829D01*
X144249040Y-102841056D01*
X144175863Y-102759785D01*
X144145147Y-102695779D01*
X144143500Y-102675476D01*
X144143500Y-99882594D01*
X144163502Y-99814473D01*
X144180405Y-99793499D01*
X144646610Y-99327294D01*
X147844709Y-99327294D01*
X147850132Y-99386315D01*
X147852743Y-99399351D01*
X147899715Y-99549243D01*
X147905921Y-99562988D01*
X147986824Y-99696574D01*
X147996131Y-99708443D01*
X148106557Y-99818869D01*
X148118426Y-99828176D01*
X148252012Y-99909079D01*
X148265757Y-99915285D01*
X148415644Y-99962256D01*
X148428694Y-99964869D01*
X148492521Y-99970734D01*
X148498309Y-99971000D01*
X149092385Y-99971000D01*
X149107624Y-99966525D01*
X149108829Y-99965135D01*
X149110500Y-99957452D01*
X149110500Y-99952884D01*
X149618500Y-99952884D01*
X149622975Y-99968123D01*
X149624365Y-99969328D01*
X149632048Y-99970999D01*
X150230705Y-99970999D01*
X150236454Y-99970736D01*
X150300315Y-99964868D01*
X150313351Y-99962257D01*
X150463243Y-99915285D01*
X150476988Y-99909079D01*
X150610574Y-99828176D01*
X150622443Y-99818869D01*
X150732869Y-99708443D01*
X150742176Y-99696574D01*
X150823079Y-99562988D01*
X150829285Y-99549243D01*
X150876256Y-99399356D01*
X150878869Y-99386306D01*
X150883913Y-99331414D01*
X150880525Y-99319876D01*
X150879135Y-99318671D01*
X150871452Y-99317000D01*
X149636615Y-99317000D01*
X149621376Y-99321475D01*
X149620171Y-99322865D01*
X149618500Y-99330548D01*
X149618500Y-99952884D01*
X149110500Y-99952884D01*
X149110500Y-99335115D01*
X149106025Y-99319876D01*
X149104635Y-99318671D01*
X149096952Y-99317000D01*
X147862116Y-99317000D01*
X147846877Y-99321475D01*
X147845672Y-99322865D01*
X147844709Y-99327294D01*
X144646610Y-99327294D01*
X145746499Y-98227405D01*
X145808811Y-98193379D01*
X145835594Y-98190500D01*
X145891487Y-98190500D01*
X145897939Y-98189128D01*
X145897944Y-98189128D01*
X145984887Y-98170647D01*
X146078288Y-98150794D01*
X146087367Y-98146752D01*
X146246722Y-98075803D01*
X146246724Y-98075802D01*
X146252752Y-98073118D01*
X146266409Y-98063196D01*
X146366626Y-97990383D01*
X146407253Y-97960866D01*
X146501122Y-97856614D01*
X146527522Y-97827294D01*
X147844709Y-97827294D01*
X147850132Y-97886315D01*
X147852743Y-97899351D01*
X147899715Y-98049243D01*
X147905921Y-98062988D01*
X147986824Y-98196574D01*
X147996131Y-98208443D01*
X148011593Y-98223905D01*
X148045619Y-98286217D01*
X148040554Y-98357032D01*
X148011593Y-98402095D01*
X147996131Y-98417557D01*
X147986824Y-98429426D01*
X147905921Y-98563012D01*
X147899715Y-98576757D01*
X147852744Y-98726644D01*
X147850131Y-98739694D01*
X147845087Y-98794586D01*
X147848475Y-98806124D01*
X147849865Y-98807329D01*
X147857548Y-98809000D01*
X149092385Y-98809000D01*
X149107624Y-98804525D01*
X149108829Y-98803135D01*
X149110500Y-98795452D01*
X149110500Y-98790885D01*
X149618500Y-98790885D01*
X149622975Y-98806124D01*
X149624365Y-98807329D01*
X149632048Y-98809000D01*
X150866884Y-98809000D01*
X150882123Y-98804525D01*
X150883328Y-98803135D01*
X150884291Y-98798706D01*
X150878868Y-98739685D01*
X150876257Y-98726649D01*
X150829285Y-98576757D01*
X150823079Y-98563012D01*
X150742176Y-98429426D01*
X150732869Y-98417557D01*
X150717407Y-98402095D01*
X150683381Y-98339783D01*
X150688446Y-98268968D01*
X150717407Y-98223905D01*
X150732869Y-98208443D01*
X150742176Y-98196574D01*
X150823079Y-98062988D01*
X150829285Y-98049243D01*
X150876256Y-97899356D01*
X150878869Y-97886306D01*
X150883913Y-97831414D01*
X150880525Y-97819876D01*
X150879135Y-97818671D01*
X150871452Y-97817000D01*
X149636615Y-97817000D01*
X149621376Y-97821475D01*
X149620171Y-97822865D01*
X149618500Y-97830548D01*
X149618500Y-98790885D01*
X149110500Y-98790885D01*
X149110500Y-97835115D01*
X149106025Y-97819876D01*
X149104635Y-97818671D01*
X149096952Y-97817000D01*
X147862116Y-97817000D01*
X147846877Y-97821475D01*
X147845672Y-97822865D01*
X147844709Y-97827294D01*
X146527522Y-97827294D01*
X146530621Y-97823852D01*
X146530622Y-97823851D01*
X146535040Y-97818944D01*
X146624095Y-97664697D01*
X146627223Y-97659279D01*
X146627224Y-97659278D01*
X146630527Y-97653556D01*
X146689542Y-97471928D01*
X146690910Y-97458917D01*
X146708814Y-97288565D01*
X146709504Y-97282000D01*
X146704280Y-97232296D01*
X146690232Y-97098635D01*
X146690232Y-97098633D01*
X146689542Y-97092072D01*
X146630527Y-96910444D01*
X146601302Y-96859824D01*
X146589731Y-96839783D01*
X146535040Y-96745056D01*
X146509506Y-96716697D01*
X146411675Y-96608045D01*
X146411674Y-96608044D01*
X146407253Y-96603134D01*
X146263880Y-96498967D01*
X146258094Y-96494763D01*
X146258093Y-96494762D01*
X146252752Y-96490882D01*
X146246724Y-96488198D01*
X146246722Y-96488197D01*
X146084319Y-96415891D01*
X146084318Y-96415891D01*
X146078288Y-96413206D01*
X145976405Y-96391550D01*
X145897944Y-96374872D01*
X145897939Y-96374872D01*
X145891487Y-96373500D01*
X145700513Y-96373500D01*
X145694061Y-96374872D01*
X145694056Y-96374872D01*
X145615595Y-96391550D01*
X145513712Y-96413206D01*
X145507682Y-96415891D01*
X145507681Y-96415891D01*
X145345278Y-96488197D01*
X145345276Y-96488198D01*
X145339248Y-96490882D01*
X145333907Y-96494762D01*
X145333906Y-96494763D01*
X145328120Y-96498967D01*
X145184747Y-96603134D01*
X145180326Y-96608044D01*
X145180325Y-96608045D01*
X145082495Y-96716697D01*
X145056960Y-96745056D01*
X145002269Y-96839783D01*
X144990699Y-96859824D01*
X144961473Y-96910444D01*
X144902458Y-97092072D01*
X144901768Y-97098633D01*
X144901768Y-97098635D01*
X144895741Y-97155982D01*
X144886943Y-97239694D01*
X144885093Y-97257292D01*
X144858080Y-97322949D01*
X144848878Y-97333217D01*
X143117747Y-99064348D01*
X143109461Y-99071888D01*
X143102982Y-99076000D01*
X143097557Y-99081777D01*
X143056357Y-99125651D01*
X143053602Y-99128493D01*
X143033865Y-99148230D01*
X143031385Y-99151427D01*
X143023682Y-99160447D01*
X142993414Y-99192679D01*
X142989595Y-99199625D01*
X142989593Y-99199628D01*
X142983652Y-99210434D01*
X142972801Y-99226953D01*
X142960386Y-99242959D01*
X142957241Y-99250228D01*
X142957238Y-99250232D01*
X142942826Y-99283537D01*
X142937609Y-99294187D01*
X142916305Y-99332940D01*
X142914334Y-99340615D01*
X142914334Y-99340616D01*
X142911267Y-99352562D01*
X142904863Y-99371266D01*
X142896819Y-99389855D01*
X142895580Y-99397678D01*
X142895577Y-99397688D01*
X142889901Y-99433524D01*
X142887495Y-99445144D01*
X142876500Y-99487970D01*
X142876500Y-99508224D01*
X142874949Y-99527934D01*
X142871780Y-99547943D01*
X142872526Y-99555835D01*
X142875941Y-99591961D01*
X142876500Y-99603819D01*
X142876500Y-102675476D01*
X142856498Y-102743597D01*
X142844142Y-102759779D01*
X142770960Y-102841056D01*
X142723171Y-102923829D01*
X142681863Y-102995377D01*
X142675473Y-103006444D01*
X142616458Y-103188072D01*
X142596496Y-103378000D01*
X141553100Y-103378000D01*
X141553100Y-102910666D01*
X141546345Y-102848484D01*
X141495215Y-102712095D01*
X141407861Y-102595539D01*
X141291305Y-102508185D01*
X141154916Y-102457055D01*
X141092734Y-102450300D01*
X141042100Y-102450300D01*
X140973979Y-102430298D01*
X140927486Y-102376642D01*
X140916100Y-102324300D01*
X140916100Y-97943367D01*
X140916627Y-97932184D01*
X140918302Y-97924691D01*
X140917506Y-97899351D01*
X140916162Y-97856614D01*
X140916100Y-97852655D01*
X140916100Y-97824744D01*
X140915595Y-97820744D01*
X140914662Y-97808901D01*
X140913522Y-97772629D01*
X140913273Y-97764710D01*
X140907622Y-97745258D01*
X140903614Y-97725906D01*
X140902067Y-97713663D01*
X140901074Y-97705803D01*
X140895255Y-97691105D01*
X140884800Y-97664697D01*
X140880955Y-97653470D01*
X140879154Y-97647271D01*
X140868618Y-97611007D01*
X140858307Y-97593572D01*
X140849612Y-97575824D01*
X140842152Y-97556983D01*
X140816164Y-97521213D01*
X140809648Y-97511293D01*
X140791180Y-97480065D01*
X140791178Y-97480062D01*
X140787142Y-97473238D01*
X140772821Y-97458917D01*
X140759980Y-97443883D01*
X140752731Y-97433906D01*
X140748072Y-97427493D01*
X140713995Y-97399302D01*
X140705216Y-97391312D01*
X139641199Y-96327294D01*
X147844709Y-96327294D01*
X147850132Y-96386315D01*
X147852743Y-96399351D01*
X147899715Y-96549243D01*
X147905921Y-96562988D01*
X147986824Y-96696574D01*
X147996131Y-96708443D01*
X148011593Y-96723905D01*
X148045619Y-96786217D01*
X148040554Y-96857032D01*
X148011593Y-96902095D01*
X147996131Y-96917557D01*
X147986824Y-96929426D01*
X147905921Y-97063012D01*
X147899715Y-97076757D01*
X147852744Y-97226644D01*
X147850131Y-97239694D01*
X147845087Y-97294586D01*
X147848475Y-97306124D01*
X147849865Y-97307329D01*
X147857548Y-97309000D01*
X149092385Y-97309000D01*
X149107624Y-97304525D01*
X149108829Y-97303135D01*
X149110500Y-97295452D01*
X149110500Y-97290885D01*
X149618500Y-97290885D01*
X149622975Y-97306124D01*
X149624365Y-97307329D01*
X149632048Y-97309000D01*
X150866884Y-97309000D01*
X150882123Y-97304525D01*
X150883328Y-97303135D01*
X150884291Y-97298706D01*
X150878868Y-97239685D01*
X150876257Y-97226649D01*
X150829285Y-97076757D01*
X150823079Y-97063012D01*
X150742176Y-96929426D01*
X150732869Y-96917557D01*
X150717407Y-96902095D01*
X150683381Y-96839783D01*
X150688446Y-96768968D01*
X150717407Y-96723905D01*
X150732869Y-96708443D01*
X150742176Y-96696574D01*
X150823079Y-96562988D01*
X150829285Y-96549243D01*
X150876256Y-96399356D01*
X150878869Y-96386306D01*
X150883913Y-96331414D01*
X150880525Y-96319876D01*
X150879135Y-96318671D01*
X150871452Y-96317000D01*
X149636615Y-96317000D01*
X149621376Y-96321475D01*
X149620171Y-96322865D01*
X149618500Y-96330548D01*
X149618500Y-97290885D01*
X149110500Y-97290885D01*
X149110500Y-96335115D01*
X149106025Y-96319876D01*
X149104635Y-96318671D01*
X149096952Y-96317000D01*
X147862116Y-96317000D01*
X147846877Y-96321475D01*
X147845672Y-96322865D01*
X147844709Y-96327294D01*
X139641199Y-96327294D01*
X138984652Y-95670747D01*
X138977112Y-95662461D01*
X138973000Y-95655982D01*
X138923348Y-95609356D01*
X138920507Y-95606602D01*
X138900770Y-95586865D01*
X138897573Y-95584385D01*
X138888551Y-95576680D01*
X138862100Y-95551841D01*
X138856321Y-95546414D01*
X138849375Y-95542595D01*
X138849372Y-95542593D01*
X138838566Y-95536652D01*
X138822047Y-95525801D01*
X138821583Y-95525441D01*
X138806041Y-95513386D01*
X138798772Y-95510241D01*
X138798768Y-95510238D01*
X138765463Y-95495826D01*
X138754813Y-95490609D01*
X138716060Y-95469305D01*
X138696437Y-95464267D01*
X138677734Y-95457863D01*
X138666420Y-95452967D01*
X138666419Y-95452967D01*
X138659145Y-95449819D01*
X138651322Y-95448580D01*
X138651312Y-95448577D01*
X138615476Y-95442901D01*
X138603856Y-95440495D01*
X138568711Y-95431472D01*
X138568710Y-95431472D01*
X138561030Y-95429500D01*
X138540776Y-95429500D01*
X138521065Y-95427949D01*
X138508886Y-95426020D01*
X138501057Y-95424780D01*
X138493165Y-95425526D01*
X138457039Y-95428941D01*
X138445181Y-95429500D01*
X138091710Y-95429500D01*
X138023589Y-95409498D01*
X137977096Y-95355842D01*
X137966992Y-95285568D01*
X137996486Y-95220988D01*
X138002615Y-95214405D01*
X138013639Y-95203381D01*
X138102472Y-95056699D01*
X138121110Y-94997227D01*
X138151752Y-94899446D01*
X138153753Y-94893062D01*
X138159796Y-94827294D01*
X147844709Y-94827294D01*
X147850132Y-94886315D01*
X147852743Y-94899351D01*
X147899715Y-95049243D01*
X147905921Y-95062988D01*
X147986824Y-95196574D01*
X147996131Y-95208443D01*
X148011593Y-95223905D01*
X148045619Y-95286217D01*
X148040554Y-95357032D01*
X148011593Y-95402095D01*
X147996131Y-95417557D01*
X147986824Y-95429426D01*
X147905921Y-95563012D01*
X147899715Y-95576757D01*
X147852744Y-95726644D01*
X147850131Y-95739694D01*
X147845087Y-95794586D01*
X147848475Y-95806124D01*
X147849865Y-95807329D01*
X147857548Y-95809000D01*
X149092385Y-95809000D01*
X149107624Y-95804525D01*
X149108829Y-95803135D01*
X149110500Y-95795452D01*
X149110500Y-95790885D01*
X149618500Y-95790885D01*
X149622975Y-95806124D01*
X149624365Y-95807329D01*
X149632048Y-95809000D01*
X150866884Y-95809000D01*
X150882123Y-95804525D01*
X150883328Y-95803135D01*
X150884291Y-95798706D01*
X150878868Y-95739685D01*
X150876257Y-95726649D01*
X150829285Y-95576757D01*
X150823079Y-95563012D01*
X150742176Y-95429426D01*
X150732869Y-95417557D01*
X150717407Y-95402095D01*
X150683381Y-95339783D01*
X150688446Y-95268968D01*
X150716206Y-95225774D01*
X152437102Y-95225774D01*
X152437302Y-95231103D01*
X152437302Y-95231105D01*
X152439347Y-95285568D01*
X152445751Y-95456158D01*
X152493093Y-95681791D01*
X152495051Y-95686750D01*
X152495052Y-95686752D01*
X152543331Y-95809000D01*
X152577776Y-95896221D01*
X152580543Y-95900780D01*
X152580544Y-95900783D01*
X152642998Y-96003703D01*
X152697377Y-96093317D01*
X152700874Y-96097347D01*
X152821760Y-96236656D01*
X152848477Y-96267445D01*
X152884120Y-96296670D01*
X152924114Y-96355329D01*
X152926046Y-96426299D01*
X152889302Y-96487048D01*
X152870532Y-96501248D01*
X152852734Y-96512262D01*
X152724652Y-96591522D01*
X152599695Y-96716697D01*
X152595855Y-96722927D01*
X152595854Y-96722928D01*
X152567475Y-96768968D01*
X152506885Y-96867262D01*
X152492562Y-96910444D01*
X152455652Y-97021727D01*
X152451203Y-97035139D01*
X152440500Y-97139600D01*
X152440500Y-98440400D01*
X152440837Y-98443646D01*
X152440837Y-98443650D01*
X152443856Y-98472740D01*
X152451474Y-98546166D01*
X152507450Y-98713946D01*
X152600522Y-98864348D01*
X152725697Y-98989305D01*
X152731927Y-98993145D01*
X152731928Y-98993146D01*
X152869090Y-99077694D01*
X152876262Y-99082115D01*
X152913213Y-99094371D01*
X153037611Y-99135632D01*
X153037613Y-99135632D01*
X153044139Y-99137797D01*
X153050975Y-99138497D01*
X153050978Y-99138498D01*
X153094031Y-99142909D01*
X153148600Y-99148500D01*
X154699400Y-99148500D01*
X154702646Y-99148163D01*
X154702650Y-99148163D01*
X154798308Y-99138238D01*
X154798312Y-99138237D01*
X154805166Y-99137526D01*
X154811702Y-99135345D01*
X154811704Y-99135345D01*
X154943806Y-99091272D01*
X154972946Y-99081550D01*
X155123348Y-98988478D01*
X155248305Y-98863303D01*
X155268173Y-98831071D01*
X155337275Y-98718968D01*
X155337276Y-98718966D01*
X155341115Y-98712738D01*
X155392656Y-98557347D01*
X155394632Y-98551389D01*
X155394632Y-98551387D01*
X155396797Y-98544861D01*
X155407500Y-98440400D01*
X155407500Y-97139600D01*
X155402569Y-97092072D01*
X155397238Y-97040692D01*
X155397237Y-97040688D01*
X155396526Y-97033834D01*
X155383059Y-96993467D01*
X155342868Y-96873002D01*
X155340550Y-96866054D01*
X155247478Y-96715652D01*
X155122303Y-96590695D01*
X154976660Y-96500919D01*
X154929168Y-96448148D01*
X154917744Y-96378076D01*
X154946018Y-96312952D01*
X154955805Y-96302490D01*
X155034495Y-96227423D01*
X155070135Y-96193424D01*
X155207754Y-96008458D01*
X155227202Y-95970208D01*
X155287679Y-95851256D01*
X155312240Y-95802949D01*
X155318985Y-95781229D01*
X155379024Y-95587871D01*
X155380607Y-95582773D01*
X155389160Y-95518242D01*
X155410198Y-95359511D01*
X155410198Y-95359506D01*
X155410898Y-95354226D01*
X155408321Y-95285568D01*
X155402449Y-95129173D01*
X155402249Y-95123842D01*
X155354907Y-94898209D01*
X155352948Y-94893248D01*
X155272185Y-94688744D01*
X155272184Y-94688742D01*
X155270224Y-94683779D01*
X155217261Y-94596498D01*
X155153390Y-94491243D01*
X155150623Y-94486683D01*
X155061425Y-94383891D01*
X155003023Y-94316588D01*
X155003021Y-94316586D01*
X154999523Y-94312555D01*
X154915863Y-94243958D01*
X154825373Y-94169760D01*
X154825367Y-94169756D01*
X154821245Y-94166376D01*
X154801670Y-94155233D01*
X154789265Y-94148171D01*
X154739959Y-94097088D01*
X154726098Y-94027458D01*
X154752082Y-93961387D01*
X154781232Y-93934149D01*
X154898578Y-93855148D01*
X154906870Y-93848481D01*
X155065900Y-93696772D01*
X155072941Y-93688814D01*
X155204141Y-93512475D01*
X155209745Y-93503438D01*
X155309357Y-93307516D01*
X155313357Y-93297665D01*
X155378534Y-93087760D01*
X155380817Y-93077376D01*
X155382861Y-93061957D01*
X155380665Y-93047793D01*
X155367478Y-93044000D01*
X152482808Y-93044000D01*
X152469277Y-93047973D01*
X152467752Y-93058580D01*
X152492477Y-93176421D01*
X152495537Y-93186617D01*
X152576263Y-93391029D01*
X152580994Y-93400561D01*
X152695016Y-93588462D01*
X152701280Y-93597052D01*
X152845327Y-93763052D01*
X152852958Y-93770472D01*
X153022911Y-93909826D01*
X153031674Y-93915848D01*
X153058711Y-93931238D01*
X153108018Y-93982320D01*
X153121880Y-94051951D01*
X153095897Y-94118022D01*
X153066747Y-94145261D01*
X153042529Y-94161566D01*
X152944681Y-94227441D01*
X152940824Y-94231120D01*
X152940822Y-94231122D01*
X152928377Y-94242994D01*
X152777865Y-94386576D01*
X152640246Y-94571542D01*
X152637830Y-94576293D01*
X152637828Y-94576297D01*
X152619650Y-94612051D01*
X152535760Y-94777051D01*
X152534178Y-94782145D01*
X152534177Y-94782148D01*
X152481396Y-94952129D01*
X152467393Y-94997227D01*
X152466692Y-95002516D01*
X152438609Y-95214405D01*
X152437102Y-95225774D01*
X150716206Y-95225774D01*
X150717407Y-95223905D01*
X150732869Y-95208443D01*
X150742176Y-95196574D01*
X150823079Y-95062988D01*
X150829285Y-95049243D01*
X150876256Y-94899356D01*
X150878869Y-94886306D01*
X150883913Y-94831414D01*
X150880525Y-94819876D01*
X150879135Y-94818671D01*
X150871452Y-94817000D01*
X149636615Y-94817000D01*
X149621376Y-94821475D01*
X149620171Y-94822865D01*
X149618500Y-94830548D01*
X149618500Y-95790885D01*
X149110500Y-95790885D01*
X149110500Y-94835115D01*
X149106025Y-94819876D01*
X149104635Y-94818671D01*
X149096952Y-94817000D01*
X147862116Y-94817000D01*
X147846877Y-94821475D01*
X147845672Y-94822865D01*
X147844709Y-94827294D01*
X138159796Y-94827294D01*
X138160500Y-94819635D01*
X138160499Y-94306366D01*
X138160203Y-94303135D01*
X138154575Y-94241888D01*
X138153753Y-94232938D01*
X138151754Y-94226559D01*
X138104744Y-94076550D01*
X138104743Y-94076548D01*
X138102472Y-94069301D01*
X138013639Y-93922619D01*
X137993115Y-93902095D01*
X137959089Y-93839783D01*
X137964154Y-93768968D01*
X137993115Y-93723905D01*
X138013639Y-93703381D01*
X138102472Y-93556699D01*
X138116703Y-93511290D01*
X138151752Y-93399446D01*
X138153753Y-93393062D01*
X138159796Y-93327294D01*
X147844709Y-93327294D01*
X147850132Y-93386315D01*
X147852743Y-93399351D01*
X147899715Y-93549243D01*
X147905921Y-93562988D01*
X147986824Y-93696574D01*
X147996131Y-93708443D01*
X148011593Y-93723905D01*
X148045619Y-93786217D01*
X148040554Y-93857032D01*
X148011593Y-93902095D01*
X147996131Y-93917557D01*
X147986824Y-93929426D01*
X147905921Y-94063012D01*
X147899715Y-94076757D01*
X147852744Y-94226644D01*
X147850131Y-94239694D01*
X147845087Y-94294586D01*
X147848475Y-94306124D01*
X147849865Y-94307329D01*
X147857548Y-94309000D01*
X149092385Y-94309000D01*
X149107624Y-94304525D01*
X149108829Y-94303135D01*
X149110500Y-94295452D01*
X149110500Y-94290885D01*
X149618500Y-94290885D01*
X149622975Y-94306124D01*
X149624365Y-94307329D01*
X149632048Y-94309000D01*
X150866884Y-94309000D01*
X150882123Y-94304525D01*
X150883328Y-94303135D01*
X150884291Y-94298706D01*
X150878868Y-94239685D01*
X150876257Y-94226649D01*
X150829285Y-94076757D01*
X150823079Y-94063012D01*
X150742176Y-93929426D01*
X150732869Y-93917557D01*
X150717407Y-93902095D01*
X150683381Y-93839783D01*
X150688446Y-93768968D01*
X150717407Y-93723905D01*
X150732869Y-93708443D01*
X150742176Y-93696574D01*
X150823079Y-93562988D01*
X150829285Y-93549243D01*
X150876256Y-93399356D01*
X150878869Y-93386306D01*
X150883913Y-93331414D01*
X150880525Y-93319876D01*
X150879135Y-93318671D01*
X150871452Y-93317000D01*
X149636615Y-93317000D01*
X149621376Y-93321475D01*
X149620171Y-93322865D01*
X149618500Y-93330548D01*
X149618500Y-94290885D01*
X149110500Y-94290885D01*
X149110500Y-93335115D01*
X149106025Y-93319876D01*
X149104635Y-93318671D01*
X149096952Y-93317000D01*
X147862116Y-93317000D01*
X147846877Y-93321475D01*
X147845672Y-93322865D01*
X147844709Y-93327294D01*
X138159796Y-93327294D01*
X138160500Y-93319635D01*
X138160499Y-92806366D01*
X138160203Y-92803135D01*
X138156974Y-92767996D01*
X138153753Y-92732938D01*
X138151754Y-92726559D01*
X138104744Y-92576550D01*
X138104743Y-92576548D01*
X138102472Y-92569301D01*
X138013639Y-92422619D01*
X137993115Y-92402095D01*
X137959089Y-92339783D01*
X137964154Y-92268968D01*
X137993115Y-92223905D01*
X138013639Y-92203381D01*
X138102472Y-92056699D01*
X138153753Y-91893062D01*
X138159796Y-91827294D01*
X147844709Y-91827294D01*
X147850132Y-91886315D01*
X147852743Y-91899351D01*
X147899715Y-92049243D01*
X147905921Y-92062988D01*
X147986824Y-92196574D01*
X147996131Y-92208443D01*
X148011593Y-92223905D01*
X148045619Y-92286217D01*
X148040554Y-92357032D01*
X148011593Y-92402095D01*
X147996131Y-92417557D01*
X147986824Y-92429426D01*
X147905921Y-92563012D01*
X147899715Y-92576757D01*
X147852744Y-92726644D01*
X147850131Y-92739694D01*
X147845087Y-92794586D01*
X147848475Y-92806124D01*
X147849865Y-92807329D01*
X147857548Y-92809000D01*
X149092385Y-92809000D01*
X149107624Y-92804525D01*
X149108829Y-92803135D01*
X149110500Y-92795452D01*
X149110500Y-92529115D01*
X149103104Y-92503927D01*
X149098000Y-92468429D01*
X149098000Y-92096885D01*
X149606000Y-92096885D01*
X149613396Y-92122073D01*
X149618500Y-92157571D01*
X149618500Y-92790885D01*
X149622975Y-92806124D01*
X149624365Y-92807329D01*
X149632048Y-92809000D01*
X150866884Y-92809000D01*
X150882123Y-92804525D01*
X150883328Y-92803135D01*
X150884291Y-92798706D01*
X150878868Y-92739685D01*
X150876257Y-92726649D01*
X150829285Y-92576757D01*
X150823079Y-92563012D01*
X150795845Y-92518043D01*
X152465139Y-92518043D01*
X152467335Y-92532207D01*
X152480522Y-92536000D01*
X153651885Y-92536000D01*
X153667124Y-92531525D01*
X153668329Y-92530135D01*
X153670000Y-92522452D01*
X153670000Y-92517885D01*
X154178000Y-92517885D01*
X154182475Y-92533124D01*
X154183865Y-92534329D01*
X154191548Y-92536000D01*
X155365192Y-92536000D01*
X155378723Y-92532027D01*
X155380248Y-92521420D01*
X155355523Y-92403579D01*
X155352463Y-92393383D01*
X155271737Y-92188971D01*
X155267006Y-92179439D01*
X155152984Y-91991538D01*
X155146720Y-91982948D01*
X155002673Y-91816948D01*
X154995042Y-91809528D01*
X154825089Y-91670174D01*
X154816322Y-91664150D01*
X154625318Y-91555424D01*
X154615654Y-91550959D01*
X154409059Y-91475969D01*
X154398792Y-91473198D01*
X154195826Y-91436496D01*
X154182586Y-91437915D01*
X154178000Y-91452550D01*
X154178000Y-92517885D01*
X153670000Y-92517885D01*
X153670000Y-91456151D01*
X153665690Y-91441473D01*
X153653807Y-91439410D01*
X153574675Y-91446124D01*
X153564203Y-91447914D01*
X153351465Y-91503130D01*
X153341425Y-91506665D01*
X153141030Y-91596937D01*
X153131744Y-91602106D01*
X152949425Y-91724850D01*
X152941130Y-91731519D01*
X152782100Y-91883228D01*
X152775059Y-91891186D01*
X152643859Y-92067525D01*
X152638255Y-92076562D01*
X152538643Y-92272484D01*
X152534643Y-92282335D01*
X152469466Y-92492240D01*
X152467183Y-92502624D01*
X152465139Y-92518043D01*
X150795845Y-92518043D01*
X150742176Y-92429426D01*
X150732869Y-92417557D01*
X150704907Y-92389595D01*
X150670881Y-92327283D01*
X150675946Y-92256468D01*
X150704907Y-92211405D01*
X150707869Y-92208443D01*
X150717176Y-92196574D01*
X150798079Y-92062988D01*
X150804285Y-92049243D01*
X150851256Y-91899356D01*
X150853869Y-91886306D01*
X150858913Y-91831414D01*
X150855525Y-91819876D01*
X150854135Y-91818671D01*
X150846452Y-91817000D01*
X149624115Y-91817000D01*
X149608876Y-91821475D01*
X149607671Y-91822865D01*
X149606000Y-91830548D01*
X149606000Y-92096885D01*
X149098000Y-92096885D01*
X149098000Y-91835115D01*
X149093525Y-91819876D01*
X149092135Y-91818671D01*
X149084452Y-91817000D01*
X147862116Y-91817000D01*
X147846877Y-91821475D01*
X147845672Y-91822865D01*
X147844709Y-91827294D01*
X138159796Y-91827294D01*
X138160500Y-91819635D01*
X138160499Y-91306366D01*
X138160203Y-91303135D01*
X138159417Y-91294586D01*
X147845087Y-91294586D01*
X147848475Y-91306124D01*
X147849865Y-91307329D01*
X147857548Y-91309000D01*
X149079885Y-91309000D01*
X149095124Y-91304525D01*
X149096329Y-91303135D01*
X149098000Y-91295452D01*
X149098000Y-91290885D01*
X149606000Y-91290885D01*
X149610475Y-91306124D01*
X149611865Y-91307329D01*
X149619548Y-91309000D01*
X150841884Y-91309000D01*
X150857123Y-91304525D01*
X150858328Y-91303135D01*
X150859291Y-91298706D01*
X150853868Y-91239685D01*
X150851257Y-91226649D01*
X150804285Y-91076757D01*
X150798079Y-91063012D01*
X150717176Y-90929426D01*
X150707869Y-90917557D01*
X150597443Y-90807131D01*
X150585574Y-90797824D01*
X150451988Y-90716921D01*
X150438243Y-90710715D01*
X150288356Y-90663744D01*
X150275306Y-90661131D01*
X150211479Y-90655266D01*
X150205691Y-90655000D01*
X149624115Y-90655000D01*
X149608876Y-90659475D01*
X149607671Y-90660865D01*
X149606000Y-90668548D01*
X149606000Y-91290885D01*
X149098000Y-91290885D01*
X149098000Y-90673116D01*
X149093525Y-90657877D01*
X149092135Y-90656672D01*
X149084452Y-90655001D01*
X148498295Y-90655001D01*
X148492546Y-90655264D01*
X148428685Y-90661132D01*
X148415649Y-90663743D01*
X148265757Y-90710715D01*
X148252012Y-90716921D01*
X148118426Y-90797824D01*
X148106557Y-90807131D01*
X147996131Y-90917557D01*
X147986824Y-90929426D01*
X147905921Y-91063012D01*
X147899715Y-91076757D01*
X147852744Y-91226644D01*
X147850131Y-91239694D01*
X147845087Y-91294586D01*
X138159417Y-91294586D01*
X138156974Y-91267996D01*
X138153753Y-91232938D01*
X138110767Y-91095770D01*
X138109482Y-91024788D01*
X138141906Y-90968998D01*
X138822247Y-90288657D01*
X138830537Y-90281113D01*
X138837018Y-90277000D01*
X138883659Y-90227332D01*
X138886413Y-90224491D01*
X138906135Y-90204769D01*
X138908619Y-90201567D01*
X138916317Y-90192555D01*
X138941161Y-90166098D01*
X138946586Y-90160321D01*
X138956347Y-90142566D01*
X138967198Y-90126047D01*
X138979614Y-90110041D01*
X138997174Y-90069463D01*
X139002391Y-90058813D01*
X139023695Y-90020060D01*
X139028733Y-90000437D01*
X139035137Y-89981734D01*
X139040033Y-89970420D01*
X139040033Y-89970419D01*
X139043181Y-89963145D01*
X139044420Y-89955322D01*
X139044423Y-89955312D01*
X139050099Y-89919476D01*
X139052505Y-89907856D01*
X139061528Y-89872711D01*
X139061528Y-89872710D01*
X139063500Y-89865030D01*
X139063500Y-89844776D01*
X139065051Y-89825065D01*
X139066980Y-89812886D01*
X139068220Y-89805057D01*
X139064059Y-89761038D01*
X139063500Y-89749181D01*
X139063500Y-86946768D01*
X139064027Y-86935585D01*
X139065702Y-86928092D01*
X139063562Y-86860001D01*
X139063500Y-86856044D01*
X139063500Y-86828144D01*
X139062996Y-86824153D01*
X139062063Y-86812311D01*
X139061988Y-86809905D01*
X139060674Y-86768111D01*
X139055021Y-86748652D01*
X139051012Y-86729293D01*
X139050504Y-86725271D01*
X139048474Y-86709203D01*
X139045558Y-86701837D01*
X139045556Y-86701831D01*
X139032200Y-86668098D01*
X139028355Y-86656868D01*
X139018230Y-86622017D01*
X139018230Y-86622016D01*
X139016019Y-86614407D01*
X139005705Y-86596966D01*
X138997008Y-86579213D01*
X138992472Y-86567758D01*
X138989552Y-86560383D01*
X138963563Y-86524612D01*
X138957047Y-86514692D01*
X138938578Y-86483463D01*
X138934542Y-86476638D01*
X138920221Y-86462317D01*
X138907380Y-86447283D01*
X138900132Y-86437307D01*
X138895472Y-86430893D01*
X138861407Y-86402712D01*
X138852626Y-86394722D01*
X138298647Y-85840742D01*
X138291113Y-85832463D01*
X138287000Y-85825982D01*
X138237348Y-85779356D01*
X138234507Y-85776602D01*
X138214770Y-85756865D01*
X138211573Y-85754385D01*
X138202551Y-85746680D01*
X138176100Y-85721841D01*
X138170321Y-85716414D01*
X138163375Y-85712595D01*
X138163372Y-85712593D01*
X138152566Y-85706652D01*
X138136047Y-85695801D01*
X138135583Y-85695441D01*
X138120041Y-85683386D01*
X138112772Y-85680241D01*
X138112768Y-85680238D01*
X138079463Y-85665826D01*
X138068813Y-85660609D01*
X138030060Y-85639305D01*
X138010437Y-85634267D01*
X137991734Y-85627863D01*
X137980420Y-85622967D01*
X137980419Y-85622967D01*
X137973145Y-85619819D01*
X137965322Y-85618580D01*
X137965312Y-85618577D01*
X137929476Y-85612901D01*
X137917856Y-85610495D01*
X137882711Y-85601472D01*
X137882710Y-85601472D01*
X137875030Y-85599500D01*
X137854776Y-85599500D01*
X137835059Y-85597948D01*
X137825522Y-85596437D01*
X137761371Y-85566021D01*
X137723847Y-85505751D01*
X137724864Y-85434762D01*
X137727257Y-85427761D01*
X137733570Y-85410921D01*
X137733572Y-85410914D01*
X137736345Y-85403516D01*
X137743100Y-85341334D01*
X137743100Y-84584666D01*
X137736345Y-84522484D01*
X137685215Y-84386095D01*
X137684287Y-84384857D01*
X137669917Y-84319152D01*
X137683838Y-84271743D01*
X137685215Y-84269905D01*
X137696125Y-84240804D01*
X137733571Y-84140915D01*
X137736345Y-84133516D01*
X137743100Y-84071334D01*
X137743100Y-83314666D01*
X137736345Y-83252484D01*
X137685215Y-83116095D01*
X137597861Y-82999539D01*
X137559285Y-82970628D01*
X137516770Y-82913769D01*
X137511744Y-82842951D01*
X137545804Y-82780657D01*
X137586632Y-82753393D01*
X137813838Y-82659281D01*
X137819996Y-82656917D01*
X138342683Y-82471824D01*
X138492857Y-82418645D01*
X138499127Y-82416608D01*
X138585845Y-82390921D01*
X139183515Y-82213883D01*
X139189853Y-82212184D01*
X139883963Y-82045543D01*
X139890396Y-82044176D01*
X140592241Y-81914097D01*
X140598739Y-81913067D01*
X141306415Y-81819900D01*
X141312977Y-81819210D01*
X141388964Y-81813230D01*
X142024597Y-81763204D01*
X142031146Y-81762861D01*
X142744716Y-81744176D01*
X142751284Y-81744176D01*
X143464854Y-81762861D01*
G37*
%TD.AperFunction*%
%TD*%
M02*
