%TF.GenerationSoftware,KiCad,Pcbnew,(6.0.11-0)*%
%TF.CreationDate,2024-03-07T11:04:15-05:00*%
%TF.ProjectId,CamperLightsSMD,43616d70-6572-44c6-9967-687473534d44,rev?*%
%TF.SameCoordinates,Original*%
%TF.FileFunction,Copper,L2,Bot*%
%TF.FilePolarity,Positive*%
%FSLAX46Y46*%
G04 Gerber Fmt 4.6, Leading zero omitted, Abs format (unit mm)*
G04 Created by KiCad (PCBNEW (6.0.11-0)) date 2024-03-07 11:04:15*
%MOMM*%
%LPD*%
G01*
G04 APERTURE LIST*
G04 Aperture macros list*
%AMRoundRect*
0 Rectangle with rounded corners*
0 $1 Rounding radius*
0 $2 $3 $4 $5 $6 $7 $8 $9 X,Y pos of 4 corners*
0 Add a 4 corners polygon primitive as box body*
4,1,4,$2,$3,$4,$5,$6,$7,$8,$9,$2,$3,0*
0 Add four circle primitives for the rounded corners*
1,1,$1+$1,$2,$3*
1,1,$1+$1,$4,$5*
1,1,$1+$1,$6,$7*
1,1,$1+$1,$8,$9*
0 Add four rect primitives between the rounded corners*
20,1,$1+$1,$2,$3,$4,$5,0*
20,1,$1+$1,$4,$5,$6,$7,0*
20,1,$1+$1,$6,$7,$8,$9,0*
20,1,$1+$1,$8,$9,$2,$3,0*%
G04 Aperture macros list end*
%TA.AperFunction,ComponentPad*%
%ADD10RoundRect,0.250000X0.725000X-0.600000X0.725000X0.600000X-0.725000X0.600000X-0.725000X-0.600000X0*%
%TD*%
%TA.AperFunction,ComponentPad*%
%ADD11O,1.950000X1.700000*%
%TD*%
%TA.AperFunction,ComponentPad*%
%ADD12RoundRect,0.250000X-0.725000X0.600000X-0.725000X-0.600000X0.725000X-0.600000X0.725000X0.600000X0*%
%TD*%
%TA.AperFunction,ViaPad*%
%ADD13C,0.800000*%
%TD*%
%TA.AperFunction,Conductor*%
%ADD14C,0.250000*%
%TD*%
G04 APERTURE END LIST*
D10*
%TO.P,J2,1,Pin_1*%
%TO.N,GND*%
X153924000Y-97790000D03*
D11*
%TO.P,J2,2,Pin_2*%
%TO.N,DO*%
X153924000Y-95290000D03*
%TO.P,J2,3,Pin_3*%
%TO.N,5vIN*%
X153924000Y-92790000D03*
%TD*%
D12*
%TO.P,J1,1,Pin_1*%
%TO.N,5vIN*%
X131872000Y-92750000D03*
D11*
%TO.P,J1,2,Pin_2*%
%TO.N,DIN*%
X131872000Y-95250000D03*
%TO.P,J1,3,Pin_3*%
%TO.N,GND*%
X131872000Y-97750000D03*
%TD*%
D13*
%TO.N,DO*%
X145796000Y-97282000D03*
X143510000Y-103378000D03*
X146304000Y-107188000D03*
%TO.N,DIN*%
X146304000Y-86360000D03*
X134112000Y-95250000D03*
%TO.N,DOI*%
X149860000Y-106426000D03*
X142494000Y-87630000D03*
%TO.N,GND*%
X140208000Y-107188000D03*
X149860000Y-104902000D03*
X136398000Y-87376000D03*
X146050000Y-84836000D03*
%TD*%
D14*
%TO.N,DIN*%
X134112000Y-95250000D02*
X140462000Y-88900000D01*
X140462000Y-88900000D02*
X140462000Y-87376000D01*
X140462000Y-87376000D02*
X141478000Y-86360000D01*
X141478000Y-86360000D02*
X146304000Y-86360000D01*
%TO.N,DO*%
X146304000Y-107188000D02*
X144272000Y-107188000D01*
X143510000Y-106426000D02*
X143510000Y-103378000D01*
X144272000Y-107188000D02*
X143510000Y-106426000D01*
X153924000Y-95290000D02*
X147788000Y-95290000D01*
X147788000Y-95290000D02*
X145796000Y-97282000D01*
%TO.N,DOI*%
X149860000Y-106426000D02*
X150368000Y-106426000D01*
X150368000Y-106426000D02*
X151638000Y-105156000D01*
X142494000Y-100076000D02*
X142494000Y-87630000D01*
X151638000Y-105156000D02*
X151638000Y-102362000D01*
X143510000Y-101092000D02*
X142494000Y-100076000D01*
X151638000Y-102362000D02*
X150368000Y-101092000D01*
X150368000Y-101092000D02*
X143510000Y-101092000D01*
%TD*%
%TA.AperFunction,Conductor*%
%TO.N,GND*%
G36*
X143487621Y-81328396D02*
G01*
X143494174Y-81328739D01*
X144139046Y-81379492D01*
X144228500Y-81386532D01*
X144235062Y-81387222D01*
X144965320Y-81483362D01*
X144971818Y-81484392D01*
X145696059Y-81618621D01*
X145702492Y-81619988D01*
X146418749Y-81791946D01*
X146425087Y-81793645D01*
X147131315Y-82002839D01*
X147137589Y-82004877D01*
X147831916Y-82250752D01*
X147838074Y-82253116D01*
X148518568Y-82534986D01*
X148524594Y-82537669D01*
X149189404Y-82854767D01*
X149195282Y-82857762D01*
X149437820Y-82989449D01*
X149842602Y-83209228D01*
X149848273Y-83212502D01*
X150382362Y-83539792D01*
X150476329Y-83597375D01*
X150481861Y-83600968D01*
X151088881Y-84018161D01*
X151094218Y-84022039D01*
X151678568Y-84470427D01*
X151683694Y-84474578D01*
X152243774Y-84952931D01*
X152248677Y-84957345D01*
X152782968Y-85464368D01*
X152787629Y-85469029D01*
X153286500Y-85994729D01*
X153294655Y-86003323D01*
X153299069Y-86008226D01*
X153777422Y-86568306D01*
X153781573Y-86573432D01*
X154229961Y-87157782D01*
X154233839Y-87163119D01*
X154651032Y-87770139D01*
X154654625Y-87775671D01*
X155039498Y-88403727D01*
X155042772Y-88409398D01*
X155262551Y-88814180D01*
X155394238Y-89056718D01*
X155397233Y-89062596D01*
X155714331Y-89727406D01*
X155717014Y-89733432D01*
X155998884Y-90413926D01*
X156001248Y-90420084D01*
X156247123Y-91114411D01*
X156249160Y-91120681D01*
X156455297Y-91816588D01*
X156458350Y-91826896D01*
X156460054Y-91833251D01*
X156620730Y-92502516D01*
X156632010Y-92549499D01*
X156633379Y-92555941D01*
X156767607Y-93280173D01*
X156768638Y-93286680D01*
X156832377Y-93770832D01*
X156864778Y-94016940D01*
X156865468Y-94023500D01*
X156921474Y-94735110D01*
X156923260Y-94757809D01*
X156923604Y-94764379D01*
X156941459Y-95446206D01*
X156942886Y-95500702D01*
X156942886Y-95507284D01*
X156924134Y-96223412D01*
X156923605Y-96243603D01*
X156923261Y-96250174D01*
X156886928Y-96711829D01*
X156865468Y-96984500D01*
X156864778Y-96991060D01*
X156776806Y-97659279D01*
X156768639Y-97721311D01*
X156767608Y-97727818D01*
X156636153Y-98437095D01*
X156633381Y-98452049D01*
X156632012Y-98458492D01*
X156466476Y-99148000D01*
X156460058Y-99174732D01*
X156458350Y-99181104D01*
X156249161Y-99887315D01*
X156247123Y-99893589D01*
X156001248Y-100587916D01*
X155998884Y-100594074D01*
X155717014Y-101274568D01*
X155714331Y-101280594D01*
X155397233Y-101945404D01*
X155394238Y-101951282D01*
X155363059Y-102008707D01*
X155042772Y-102598602D01*
X155039498Y-102604273D01*
X154796555Y-103000721D01*
X154654625Y-103232329D01*
X154651032Y-103237861D01*
X154233839Y-103844881D01*
X154229961Y-103850218D01*
X153781573Y-104434568D01*
X153777422Y-104439694D01*
X153358235Y-104930500D01*
X153299069Y-104999774D01*
X153294658Y-105004673D01*
X153067820Y-105243711D01*
X152787632Y-105538968D01*
X152782971Y-105543629D01*
X152752393Y-105572647D01*
X152248677Y-106050655D01*
X152243774Y-106055069D01*
X151683694Y-106533422D01*
X151678568Y-106537573D01*
X151094218Y-106985961D01*
X151088892Y-106989831D01*
X150986079Y-107060493D01*
X150918612Y-107082592D01*
X150849905Y-107064707D01*
X150801775Y-107012515D01*
X150789501Y-106942587D01*
X150817628Y-106876338D01*
X150833297Y-106857397D01*
X150841288Y-106848616D01*
X152030247Y-105659657D01*
X152038537Y-105652113D01*
X152045018Y-105648000D01*
X152091659Y-105598332D01*
X152094413Y-105595491D01*
X152114134Y-105575770D01*
X152116612Y-105572575D01*
X152124318Y-105563553D01*
X152149158Y-105537101D01*
X152154586Y-105531321D01*
X152164346Y-105513568D01*
X152175199Y-105497045D01*
X152182753Y-105487306D01*
X152187613Y-105481041D01*
X152205176Y-105440457D01*
X152210383Y-105429827D01*
X152231695Y-105391060D01*
X152233666Y-105383383D01*
X152233668Y-105383378D01*
X152236732Y-105371442D01*
X152243138Y-105352730D01*
X152248033Y-105341419D01*
X152251181Y-105334145D01*
X152252421Y-105326317D01*
X152252423Y-105326310D01*
X152258099Y-105290476D01*
X152260505Y-105278856D01*
X152269528Y-105243711D01*
X152269528Y-105243710D01*
X152271500Y-105236030D01*
X152271500Y-105215776D01*
X152273051Y-105196065D01*
X152274980Y-105183886D01*
X152276220Y-105176057D01*
X152272059Y-105132038D01*
X152271500Y-105120181D01*
X152271500Y-102440767D01*
X152272027Y-102429584D01*
X152273702Y-102422091D01*
X152271562Y-102354014D01*
X152271500Y-102350055D01*
X152271500Y-102322144D01*
X152270995Y-102318144D01*
X152270062Y-102306301D01*
X152268922Y-102270029D01*
X152268673Y-102262110D01*
X152263022Y-102242658D01*
X152259014Y-102223306D01*
X152257467Y-102211063D01*
X152256474Y-102203203D01*
X152253556Y-102195832D01*
X152240200Y-102162097D01*
X152236355Y-102150870D01*
X152235721Y-102148687D01*
X152224018Y-102108407D01*
X152219984Y-102101585D01*
X152219981Y-102101579D01*
X152213706Y-102090968D01*
X152205010Y-102073218D01*
X152200472Y-102061756D01*
X152200469Y-102061751D01*
X152197552Y-102054383D01*
X152171573Y-102018625D01*
X152165057Y-102008707D01*
X152146575Y-101977457D01*
X152142542Y-101970637D01*
X152128218Y-101956313D01*
X152115376Y-101941278D01*
X152103472Y-101924893D01*
X152069406Y-101896711D01*
X152060627Y-101888722D01*
X150871652Y-100699747D01*
X150864112Y-100691461D01*
X150860000Y-100684982D01*
X150810348Y-100638356D01*
X150807507Y-100635602D01*
X150787770Y-100615865D01*
X150784573Y-100613385D01*
X150775551Y-100605680D01*
X150749100Y-100580841D01*
X150743321Y-100575414D01*
X150736375Y-100571595D01*
X150736372Y-100571593D01*
X150725566Y-100565652D01*
X150709047Y-100554801D01*
X150701933Y-100549283D01*
X150693041Y-100542386D01*
X150685772Y-100539241D01*
X150685768Y-100539238D01*
X150652463Y-100524826D01*
X150641813Y-100519609D01*
X150603060Y-100498305D01*
X150583437Y-100493267D01*
X150564734Y-100486863D01*
X150553420Y-100481967D01*
X150553419Y-100481967D01*
X150546145Y-100478819D01*
X150538322Y-100477580D01*
X150538312Y-100477577D01*
X150502476Y-100471901D01*
X150490856Y-100469495D01*
X150455711Y-100460472D01*
X150455710Y-100460472D01*
X150448030Y-100458500D01*
X150427776Y-100458500D01*
X150408065Y-100456949D01*
X150395886Y-100455020D01*
X150388057Y-100453780D01*
X150380165Y-100454526D01*
X150344039Y-100457941D01*
X150332181Y-100458500D01*
X143824595Y-100458500D01*
X143756474Y-100438498D01*
X143735499Y-100421595D01*
X143164404Y-99850499D01*
X143130379Y-99788187D01*
X143127500Y-99761404D01*
X143127500Y-98437095D01*
X152441001Y-98437095D01*
X152441338Y-98443614D01*
X152451257Y-98539206D01*
X152454149Y-98552600D01*
X152505588Y-98706784D01*
X152511761Y-98719962D01*
X152597063Y-98857807D01*
X152606099Y-98869208D01*
X152720829Y-98983739D01*
X152732240Y-98992751D01*
X152870243Y-99077816D01*
X152883424Y-99083963D01*
X153037710Y-99135138D01*
X153051086Y-99138005D01*
X153145438Y-99147672D01*
X153151854Y-99148000D01*
X153651885Y-99148000D01*
X153667124Y-99143525D01*
X153668329Y-99142135D01*
X153670000Y-99134452D01*
X153670000Y-99129884D01*
X154178000Y-99129884D01*
X154182475Y-99145123D01*
X154183865Y-99146328D01*
X154191548Y-99147999D01*
X154696095Y-99147999D01*
X154702614Y-99147662D01*
X154798206Y-99137743D01*
X154811600Y-99134851D01*
X154965784Y-99083412D01*
X154978962Y-99077239D01*
X155116807Y-98991937D01*
X155128208Y-98982901D01*
X155242739Y-98868171D01*
X155251751Y-98856760D01*
X155336816Y-98718757D01*
X155342963Y-98705576D01*
X155394138Y-98551290D01*
X155397005Y-98537914D01*
X155406672Y-98443562D01*
X155407000Y-98437146D01*
X155407000Y-98062115D01*
X155402525Y-98046876D01*
X155401135Y-98045671D01*
X155393452Y-98044000D01*
X154196115Y-98044000D01*
X154180876Y-98048475D01*
X154179671Y-98049865D01*
X154178000Y-98057548D01*
X154178000Y-99129884D01*
X153670000Y-99129884D01*
X153670000Y-98062115D01*
X153665525Y-98046876D01*
X153664135Y-98045671D01*
X153656452Y-98044000D01*
X152459116Y-98044000D01*
X152443877Y-98048475D01*
X152442672Y-98049865D01*
X152441001Y-98057548D01*
X152441001Y-98437095D01*
X143127500Y-98437095D01*
X143127500Y-97282000D01*
X144882496Y-97282000D01*
X144883186Y-97288565D01*
X144889999Y-97353383D01*
X144902458Y-97471928D01*
X144961473Y-97653556D01*
X145056960Y-97818944D01*
X145184747Y-97960866D01*
X145244116Y-98004000D01*
X145301471Y-98045671D01*
X145339248Y-98073118D01*
X145345276Y-98075802D01*
X145345278Y-98075803D01*
X145504330Y-98146617D01*
X145513712Y-98150794D01*
X145607113Y-98170647D01*
X145694056Y-98189128D01*
X145694061Y-98189128D01*
X145700513Y-98190500D01*
X145891487Y-98190500D01*
X145897939Y-98189128D01*
X145897944Y-98189128D01*
X145984887Y-98170647D01*
X146078288Y-98150794D01*
X146087670Y-98146617D01*
X146246722Y-98075803D01*
X146246724Y-98075802D01*
X146252752Y-98073118D01*
X146290530Y-98045671D01*
X146347884Y-98004000D01*
X146407253Y-97960866D01*
X146535040Y-97818944D01*
X146630527Y-97653556D01*
X146689542Y-97471928D01*
X146706907Y-97306706D01*
X146733920Y-97241050D01*
X146743122Y-97230782D01*
X148013499Y-95960405D01*
X148075811Y-95926379D01*
X148102594Y-95923500D01*
X152523404Y-95923500D01*
X152591525Y-95943502D01*
X152631122Y-95984133D01*
X152697377Y-96093317D01*
X152700874Y-96097347D01*
X152821760Y-96236656D01*
X152848477Y-96267445D01*
X152852608Y-96270832D01*
X152884529Y-96297006D01*
X152924524Y-96355666D01*
X152926455Y-96426636D01*
X152889710Y-96487384D01*
X152870941Y-96501584D01*
X152731193Y-96588063D01*
X152719792Y-96597099D01*
X152605261Y-96711829D01*
X152596249Y-96723240D01*
X152511184Y-96861243D01*
X152505037Y-96874424D01*
X152453862Y-97028710D01*
X152450995Y-97042086D01*
X152441328Y-97136438D01*
X152441000Y-97142855D01*
X152441000Y-97517885D01*
X152445475Y-97533124D01*
X152446865Y-97534329D01*
X152454548Y-97536000D01*
X155388884Y-97536000D01*
X155404123Y-97531525D01*
X155405328Y-97530135D01*
X155406999Y-97522452D01*
X155406999Y-97142905D01*
X155406662Y-97136386D01*
X155396743Y-97040794D01*
X155393851Y-97027400D01*
X155342412Y-96873216D01*
X155336239Y-96860038D01*
X155250937Y-96722193D01*
X155241901Y-96710792D01*
X155127171Y-96596261D01*
X155115757Y-96587247D01*
X154976287Y-96501277D01*
X154928793Y-96448505D01*
X154917369Y-96378434D01*
X154945643Y-96313310D01*
X154955430Y-96302847D01*
X154988991Y-96270832D01*
X155070135Y-96193424D01*
X155207754Y-96008458D01*
X155232186Y-95960405D01*
X155296125Y-95834644D01*
X155312240Y-95802949D01*
X155318986Y-95781226D01*
X155379024Y-95587871D01*
X155380607Y-95582773D01*
X155390612Y-95507284D01*
X155410198Y-95359511D01*
X155410198Y-95359506D01*
X155410898Y-95354226D01*
X155402249Y-95123842D01*
X155354907Y-94898209D01*
X155333525Y-94844066D01*
X155272185Y-94688744D01*
X155272184Y-94688742D01*
X155270224Y-94683779D01*
X155264560Y-94674444D01*
X155153390Y-94491243D01*
X155150623Y-94486683D01*
X155061425Y-94383891D01*
X155003023Y-94316588D01*
X155003021Y-94316586D01*
X154999523Y-94312555D01*
X154946611Y-94269170D01*
X154825373Y-94169760D01*
X154825367Y-94169756D01*
X154821245Y-94166376D01*
X154789750Y-94148448D01*
X154740445Y-94097368D01*
X154726583Y-94027738D01*
X154752566Y-93961667D01*
X154781716Y-93934427D01*
X154865163Y-93878247D01*
X154903319Y-93852559D01*
X155070135Y-93693424D01*
X155207754Y-93508458D01*
X155212407Y-93499308D01*
X155309822Y-93307704D01*
X155312240Y-93302949D01*
X155348321Y-93186752D01*
X155379024Y-93087871D01*
X155380607Y-93082773D01*
X155381308Y-93077484D01*
X155410198Y-92859511D01*
X155410198Y-92859506D01*
X155410898Y-92854226D01*
X155402249Y-92623842D01*
X155354907Y-92398209D01*
X155352948Y-92393248D01*
X155272185Y-92188744D01*
X155272184Y-92188742D01*
X155270224Y-92183779D01*
X155150623Y-91986683D01*
X155063755Y-91886576D01*
X155003023Y-91816588D01*
X155003021Y-91816586D01*
X154999523Y-91812555D01*
X154957970Y-91778484D01*
X154825373Y-91669760D01*
X154825367Y-91669756D01*
X154821245Y-91666376D01*
X154816609Y-91663737D01*
X154816606Y-91663735D01*
X154625529Y-91554968D01*
X154620886Y-91552325D01*
X154404175Y-91473663D01*
X154398926Y-91472714D01*
X154398923Y-91472713D01*
X154181392Y-91433377D01*
X154181385Y-91433376D01*
X154177308Y-91432639D01*
X154159586Y-91431803D01*
X154154644Y-91431570D01*
X154154637Y-91431570D01*
X154153156Y-91431500D01*
X153741110Y-91431500D01*
X153674191Y-91437178D01*
X153574591Y-91445629D01*
X153574587Y-91445630D01*
X153569280Y-91446080D01*
X153564125Y-91447418D01*
X153564119Y-91447419D01*
X153351297Y-91502657D01*
X153351293Y-91502658D01*
X153346128Y-91503999D01*
X153341262Y-91506191D01*
X153341259Y-91506192D01*
X153227914Y-91557250D01*
X153135925Y-91598688D01*
X152944681Y-91727441D01*
X152777865Y-91886576D01*
X152640246Y-92071542D01*
X152637830Y-92076293D01*
X152637828Y-92076297D01*
X152624345Y-92102817D01*
X152535760Y-92277051D01*
X152534178Y-92282145D01*
X152534177Y-92282148D01*
X152472115Y-92482020D01*
X152467393Y-92497227D01*
X152466692Y-92502516D01*
X152451304Y-92618623D01*
X152437102Y-92725774D01*
X152445751Y-92956158D01*
X152493093Y-93181791D01*
X152577776Y-93396221D01*
X152697377Y-93593317D01*
X152700874Y-93597347D01*
X152787438Y-93697103D01*
X152848477Y-93767445D01*
X152852608Y-93770832D01*
X153022627Y-93910240D01*
X153022633Y-93910244D01*
X153026755Y-93913624D01*
X153058250Y-93931552D01*
X153107555Y-93982632D01*
X153121417Y-94052262D01*
X153095434Y-94118333D01*
X153066284Y-94145573D01*
X152944681Y-94227441D01*
X152777865Y-94386576D01*
X152640246Y-94571542D01*
X152637830Y-94576294D01*
X152637825Y-94576302D01*
X152632078Y-94587606D01*
X152583375Y-94639263D01*
X152519762Y-94656500D01*
X147866763Y-94656500D01*
X147855579Y-94655973D01*
X147848091Y-94654299D01*
X147840168Y-94654548D01*
X147780033Y-94656438D01*
X147776075Y-94656500D01*
X147748144Y-94656500D01*
X147744229Y-94656995D01*
X147744225Y-94656995D01*
X147744167Y-94657003D01*
X147744138Y-94657006D01*
X147732296Y-94657939D01*
X147688110Y-94659327D01*
X147675808Y-94662901D01*
X147668658Y-94664978D01*
X147649306Y-94668986D01*
X147637068Y-94670532D01*
X147637066Y-94670533D01*
X147629203Y-94671526D01*
X147588086Y-94687806D01*
X147576885Y-94691641D01*
X147534406Y-94703982D01*
X147527587Y-94708015D01*
X147527582Y-94708017D01*
X147516971Y-94714293D01*
X147499221Y-94722990D01*
X147480383Y-94730448D01*
X147473967Y-94735109D01*
X147473966Y-94735110D01*
X147444625Y-94756428D01*
X147434701Y-94762947D01*
X147403460Y-94781422D01*
X147403455Y-94781426D01*
X147396637Y-94785458D01*
X147382313Y-94799782D01*
X147367281Y-94812621D01*
X147350893Y-94824528D01*
X147334730Y-94844066D01*
X147322712Y-94858593D01*
X147314722Y-94867373D01*
X145845500Y-96336595D01*
X145783188Y-96370621D01*
X145756405Y-96373500D01*
X145700513Y-96373500D01*
X145694061Y-96374872D01*
X145694056Y-96374872D01*
X145614282Y-96391829D01*
X145513712Y-96413206D01*
X145507682Y-96415891D01*
X145507681Y-96415891D01*
X145345278Y-96488197D01*
X145345276Y-96488198D01*
X145339248Y-96490882D01*
X145333907Y-96494762D01*
X145333906Y-96494763D01*
X145324518Y-96501584D01*
X145184747Y-96603134D01*
X145180326Y-96608044D01*
X145180325Y-96608045D01*
X145179680Y-96608762D01*
X145056960Y-96745056D01*
X144961473Y-96910444D01*
X144902458Y-97092072D01*
X144901768Y-97098633D01*
X144901768Y-97098635D01*
X144897115Y-97142905D01*
X144882496Y-97282000D01*
X143127500Y-97282000D01*
X143127500Y-88332524D01*
X143147502Y-88264403D01*
X143159858Y-88248221D01*
X143233040Y-88166944D01*
X143328527Y-88001556D01*
X143387542Y-87819928D01*
X143407504Y-87630000D01*
X143387542Y-87440072D01*
X143328527Y-87258444D01*
X143325223Y-87252721D01*
X143284681Y-87182500D01*
X143267943Y-87113504D01*
X143291164Y-87046413D01*
X143346971Y-87002526D01*
X143393800Y-86993500D01*
X145595800Y-86993500D01*
X145663921Y-87013502D01*
X145683147Y-87029843D01*
X145683420Y-87029540D01*
X145688332Y-87033963D01*
X145692747Y-87038866D01*
X145700775Y-87044699D01*
X145800515Y-87117164D01*
X145847248Y-87151118D01*
X145853276Y-87153802D01*
X145853278Y-87153803D01*
X146015681Y-87226109D01*
X146021712Y-87228794D01*
X146081602Y-87241524D01*
X146202056Y-87267128D01*
X146202061Y-87267128D01*
X146208513Y-87268500D01*
X146399487Y-87268500D01*
X146405939Y-87267128D01*
X146405944Y-87267128D01*
X146526398Y-87241524D01*
X146586288Y-87228794D01*
X146592319Y-87226109D01*
X146754722Y-87153803D01*
X146754724Y-87153802D01*
X146760752Y-87151118D01*
X146807486Y-87117164D01*
X146904865Y-87046413D01*
X146915253Y-87038866D01*
X146989659Y-86956230D01*
X147038621Y-86901852D01*
X147038622Y-86901851D01*
X147043040Y-86896944D01*
X147138527Y-86731556D01*
X147176724Y-86614000D01*
X149008526Y-86614000D01*
X149028391Y-86866403D01*
X149029545Y-86871210D01*
X149029546Y-86871216D01*
X149061071Y-87002526D01*
X149087495Y-87112591D01*
X149089388Y-87117162D01*
X149089389Y-87117164D01*
X149175951Y-87326142D01*
X149184384Y-87346502D01*
X149316672Y-87562376D01*
X149481102Y-87754898D01*
X149673624Y-87919328D01*
X149889498Y-88051616D01*
X149894068Y-88053509D01*
X149894072Y-88053511D01*
X150118836Y-88146611D01*
X150123409Y-88148505D01*
X150200214Y-88166944D01*
X150364784Y-88206454D01*
X150364790Y-88206455D01*
X150369597Y-88207609D01*
X150469416Y-88215465D01*
X150556345Y-88222307D01*
X150556352Y-88222307D01*
X150558801Y-88222500D01*
X150685199Y-88222500D01*
X150687648Y-88222307D01*
X150687655Y-88222307D01*
X150774584Y-88215465D01*
X150874403Y-88207609D01*
X150879210Y-88206455D01*
X150879216Y-88206454D01*
X151043786Y-88166944D01*
X151120591Y-88148505D01*
X151125164Y-88146611D01*
X151349928Y-88053511D01*
X151349932Y-88053509D01*
X151354502Y-88051616D01*
X151570376Y-87919328D01*
X151762898Y-87754898D01*
X151927328Y-87562376D01*
X152059616Y-87346502D01*
X152068050Y-87326142D01*
X152154611Y-87117164D01*
X152154612Y-87117162D01*
X152156505Y-87112591D01*
X152182929Y-87002526D01*
X152214454Y-86871216D01*
X152214455Y-86871210D01*
X152215609Y-86866403D01*
X152235474Y-86614000D01*
X152215609Y-86361597D01*
X152213650Y-86353435D01*
X152157660Y-86120221D01*
X152156505Y-86115409D01*
X152154611Y-86110836D01*
X152061511Y-85886072D01*
X152061509Y-85886068D01*
X152059616Y-85881498D01*
X151927328Y-85665624D01*
X151762898Y-85473102D01*
X151570376Y-85308672D01*
X151354502Y-85176384D01*
X151349932Y-85174491D01*
X151349928Y-85174489D01*
X151125164Y-85081389D01*
X151125162Y-85081388D01*
X151120591Y-85079495D01*
X151035968Y-85059179D01*
X150879216Y-85021546D01*
X150879210Y-85021545D01*
X150874403Y-85020391D01*
X150774584Y-85012535D01*
X150687655Y-85005693D01*
X150687648Y-85005693D01*
X150685199Y-85005500D01*
X150558801Y-85005500D01*
X150556352Y-85005693D01*
X150556345Y-85005693D01*
X150469416Y-85012535D01*
X150369597Y-85020391D01*
X150364790Y-85021545D01*
X150364784Y-85021546D01*
X150208032Y-85059179D01*
X150123409Y-85079495D01*
X150118838Y-85081388D01*
X150118836Y-85081389D01*
X149894072Y-85174489D01*
X149894068Y-85174491D01*
X149889498Y-85176384D01*
X149673624Y-85308672D01*
X149481102Y-85473102D01*
X149316672Y-85665624D01*
X149184384Y-85881498D01*
X149182491Y-85886068D01*
X149182489Y-85886072D01*
X149089389Y-86110836D01*
X149087495Y-86115409D01*
X149086340Y-86120221D01*
X149030351Y-86353435D01*
X149028391Y-86361597D01*
X149008526Y-86614000D01*
X147176724Y-86614000D01*
X147197542Y-86549928D01*
X147217504Y-86360000D01*
X147197542Y-86170072D01*
X147138527Y-85988444D01*
X147043040Y-85823056D01*
X147026882Y-85805110D01*
X146919675Y-85686045D01*
X146919674Y-85686044D01*
X146915253Y-85681134D01*
X146760752Y-85568882D01*
X146754724Y-85566198D01*
X146754722Y-85566197D01*
X146592319Y-85493891D01*
X146592318Y-85493891D01*
X146586288Y-85491206D01*
X146492887Y-85471353D01*
X146405944Y-85452872D01*
X146405939Y-85452872D01*
X146399487Y-85451500D01*
X146208513Y-85451500D01*
X146202061Y-85452872D01*
X146202056Y-85452872D01*
X146115112Y-85471353D01*
X146021712Y-85491206D01*
X146015682Y-85493891D01*
X146015681Y-85493891D01*
X145853278Y-85566197D01*
X145853276Y-85566198D01*
X145847248Y-85568882D01*
X145692747Y-85681134D01*
X145688332Y-85686037D01*
X145683420Y-85690460D01*
X145682295Y-85689211D01*
X145628986Y-85722051D01*
X145595800Y-85726500D01*
X141556767Y-85726500D01*
X141545584Y-85725973D01*
X141538091Y-85724298D01*
X141530165Y-85724547D01*
X141530164Y-85724547D01*
X141470001Y-85726438D01*
X141466043Y-85726500D01*
X141438144Y-85726500D01*
X141434154Y-85727004D01*
X141422320Y-85727936D01*
X141378111Y-85729326D01*
X141370497Y-85731538D01*
X141370492Y-85731539D01*
X141358659Y-85734977D01*
X141339296Y-85738988D01*
X141319203Y-85741526D01*
X141311836Y-85744443D01*
X141311831Y-85744444D01*
X141278092Y-85757802D01*
X141266865Y-85761646D01*
X141224407Y-85773982D01*
X141217581Y-85778019D01*
X141206972Y-85784293D01*
X141189224Y-85792988D01*
X141170383Y-85800448D01*
X141163967Y-85805110D01*
X141163966Y-85805110D01*
X141134613Y-85826436D01*
X141124693Y-85832952D01*
X141093465Y-85851420D01*
X141093462Y-85851422D01*
X141086638Y-85855458D01*
X141072317Y-85869779D01*
X141057284Y-85882619D01*
X141040893Y-85894528D01*
X141035843Y-85900632D01*
X141035838Y-85900637D01*
X141012707Y-85928598D01*
X141004717Y-85937379D01*
X140069742Y-86872353D01*
X140061463Y-86879887D01*
X140054982Y-86884000D01*
X140042827Y-86896944D01*
X140008357Y-86933651D01*
X140005602Y-86936493D01*
X139985865Y-86956230D01*
X139983385Y-86959427D01*
X139975682Y-86968447D01*
X139945414Y-87000679D01*
X139941595Y-87007625D01*
X139941593Y-87007628D01*
X139935652Y-87018434D01*
X139924801Y-87034953D01*
X139912386Y-87050959D01*
X139909241Y-87058228D01*
X139909238Y-87058232D01*
X139894826Y-87091537D01*
X139889609Y-87102187D01*
X139868305Y-87140940D01*
X139866334Y-87148615D01*
X139866334Y-87148616D01*
X139863267Y-87160562D01*
X139856863Y-87179266D01*
X139848819Y-87197855D01*
X139847580Y-87205678D01*
X139847577Y-87205688D01*
X139841901Y-87241524D01*
X139839495Y-87253144D01*
X139836521Y-87264729D01*
X139828500Y-87295970D01*
X139828500Y-87316224D01*
X139826949Y-87335934D01*
X139823780Y-87355943D01*
X139824526Y-87363835D01*
X139827941Y-87399961D01*
X139828500Y-87411819D01*
X139828500Y-88585406D01*
X139808498Y-88653527D01*
X139791595Y-88674501D01*
X134161500Y-94304595D01*
X134099188Y-94338621D01*
X134072405Y-94341500D01*
X134016513Y-94341500D01*
X134010061Y-94342872D01*
X134010056Y-94342872D01*
X133923112Y-94361353D01*
X133829712Y-94381206D01*
X133823682Y-94383891D01*
X133823681Y-94383891D01*
X133661278Y-94456197D01*
X133661276Y-94456198D01*
X133655248Y-94458882D01*
X133500747Y-94571134D01*
X133496326Y-94576044D01*
X133496325Y-94576045D01*
X133419056Y-94661861D01*
X133358610Y-94699101D01*
X133287626Y-94697749D01*
X133228642Y-94658236D01*
X133217701Y-94642917D01*
X133108381Y-94462763D01*
X133098623Y-94446683D01*
X133011755Y-94346576D01*
X132951023Y-94276588D01*
X132951021Y-94276586D01*
X132947523Y-94272555D01*
X132911880Y-94243330D01*
X132871886Y-94184671D01*
X132869954Y-94113701D01*
X132906698Y-94052952D01*
X132925468Y-94038752D01*
X133065120Y-93952332D01*
X133071348Y-93948478D01*
X133196305Y-93823303D01*
X133289115Y-93672738D01*
X133344797Y-93504861D01*
X133355500Y-93400400D01*
X133355500Y-92099600D01*
X133352589Y-92071542D01*
X133345238Y-92000692D01*
X133345237Y-92000688D01*
X133344526Y-91993834D01*
X133288550Y-91826054D01*
X133195478Y-91675652D01*
X133070303Y-91550695D01*
X132998106Y-91506192D01*
X132925968Y-91461725D01*
X132925966Y-91461724D01*
X132919738Y-91457885D01*
X132759254Y-91404655D01*
X132758389Y-91404368D01*
X132758387Y-91404368D01*
X132751861Y-91402203D01*
X132745025Y-91401503D01*
X132745022Y-91401502D01*
X132701969Y-91397091D01*
X132647400Y-91391500D01*
X131096600Y-91391500D01*
X131093354Y-91391837D01*
X131093350Y-91391837D01*
X130997692Y-91401762D01*
X130997688Y-91401763D01*
X130990834Y-91402474D01*
X130984298Y-91404655D01*
X130984296Y-91404655D01*
X130861483Y-91445629D01*
X130823054Y-91458450D01*
X130672652Y-91551522D01*
X130547695Y-91676697D01*
X130543855Y-91682927D01*
X130543854Y-91682928D01*
X130461465Y-91816588D01*
X130454885Y-91827262D01*
X130452581Y-91834209D01*
X130402008Y-91986683D01*
X130399203Y-91995139D01*
X130388500Y-92099600D01*
X130388500Y-93400400D01*
X130399474Y-93506166D01*
X130455450Y-93673946D01*
X130548522Y-93824348D01*
X130673697Y-93949305D01*
X130819340Y-94039081D01*
X130866832Y-94091852D01*
X130878256Y-94161924D01*
X130849982Y-94227048D01*
X130840195Y-94237510D01*
X130725865Y-94346576D01*
X130588246Y-94531542D01*
X130585830Y-94536293D01*
X130585828Y-94536297D01*
X130536003Y-94634297D01*
X130483760Y-94737051D01*
X130482178Y-94742145D01*
X130482177Y-94742148D01*
X130450531Y-94844066D01*
X130415393Y-94957227D01*
X130414692Y-94962516D01*
X130392604Y-95129173D01*
X130385102Y-95185774D01*
X130393751Y-95416158D01*
X130441093Y-95641791D01*
X130443051Y-95646750D01*
X130443052Y-95646752D01*
X130506616Y-95807704D01*
X130525776Y-95856221D01*
X130528543Y-95860780D01*
X130528544Y-95860783D01*
X130590998Y-95963703D01*
X130645377Y-96053317D01*
X130648874Y-96057347D01*
X130770148Y-96197103D01*
X130796477Y-96227445D01*
X130800608Y-96230832D01*
X130970627Y-96370240D01*
X130970633Y-96370244D01*
X130974755Y-96373624D01*
X130979398Y-96376267D01*
X131006735Y-96391829D01*
X131056041Y-96442912D01*
X131069902Y-96512542D01*
X131043918Y-96578613D01*
X131014768Y-96605851D01*
X130897422Y-96684852D01*
X130889130Y-96691519D01*
X130730100Y-96843228D01*
X130723059Y-96851186D01*
X130591859Y-97027525D01*
X130586255Y-97036562D01*
X130486643Y-97232484D01*
X130482643Y-97242335D01*
X130417466Y-97452240D01*
X130415183Y-97462624D01*
X130413139Y-97478043D01*
X130415335Y-97492207D01*
X130428522Y-97496000D01*
X133313192Y-97496000D01*
X133326723Y-97492027D01*
X133328248Y-97481420D01*
X133303523Y-97363579D01*
X133300463Y-97353383D01*
X133219737Y-97148971D01*
X133215006Y-97139439D01*
X133100984Y-96951538D01*
X133094720Y-96942948D01*
X132950673Y-96776948D01*
X132943042Y-96769528D01*
X132773089Y-96630174D01*
X132764326Y-96624152D01*
X132737289Y-96608762D01*
X132687982Y-96557680D01*
X132674120Y-96488049D01*
X132700103Y-96421978D01*
X132729253Y-96394739D01*
X132815617Y-96336595D01*
X132851319Y-96312559D01*
X132901693Y-96264505D01*
X133014278Y-96157103D01*
X133018135Y-96153424D01*
X133155754Y-95968458D01*
X133159849Y-95960405D01*
X133209957Y-95861849D01*
X133258660Y-95810191D01*
X133327560Y-95793065D01*
X133394782Y-95815907D01*
X133415902Y-95834636D01*
X133500747Y-95928866D01*
X133561134Y-95972740D01*
X133610296Y-96008458D01*
X133655248Y-96041118D01*
X133661276Y-96043802D01*
X133661278Y-96043803D01*
X133691699Y-96057347D01*
X133829712Y-96118794D01*
X133923112Y-96138647D01*
X134010056Y-96157128D01*
X134010061Y-96157128D01*
X134016513Y-96158500D01*
X134207487Y-96158500D01*
X134213939Y-96157128D01*
X134213944Y-96157128D01*
X134300887Y-96138647D01*
X134394288Y-96118794D01*
X134532301Y-96057347D01*
X134562722Y-96043803D01*
X134562724Y-96043802D01*
X134568752Y-96041118D01*
X134613705Y-96008458D01*
X134662866Y-95972740D01*
X134723253Y-95928866D01*
X134824962Y-95815907D01*
X134846621Y-95791852D01*
X134846622Y-95791851D01*
X134851040Y-95786944D01*
X134934844Y-95641791D01*
X134943223Y-95627279D01*
X134943224Y-95627278D01*
X134946527Y-95621556D01*
X135005542Y-95439928D01*
X135022907Y-95274706D01*
X135049920Y-95209050D01*
X135059122Y-95198782D01*
X140854253Y-89403652D01*
X140862539Y-89396112D01*
X140869018Y-89392000D01*
X140915644Y-89342348D01*
X140918398Y-89339507D01*
X140938135Y-89319770D01*
X140940615Y-89316573D01*
X140948320Y-89307551D01*
X140973159Y-89281100D01*
X140978586Y-89275321D01*
X140982405Y-89268375D01*
X140982407Y-89268372D01*
X140988348Y-89257566D01*
X140999199Y-89241047D01*
X141006758Y-89231301D01*
X141011614Y-89225041D01*
X141014759Y-89217772D01*
X141014762Y-89217768D01*
X141029174Y-89184463D01*
X141034391Y-89173813D01*
X141055695Y-89135060D01*
X141060733Y-89115437D01*
X141067137Y-89096734D01*
X141072033Y-89085420D01*
X141072033Y-89085419D01*
X141075181Y-89078145D01*
X141076420Y-89070322D01*
X141076423Y-89070312D01*
X141082099Y-89034476D01*
X141084505Y-89022856D01*
X141093528Y-88987711D01*
X141093528Y-88987710D01*
X141095500Y-88980030D01*
X141095500Y-88959776D01*
X141097051Y-88940065D01*
X141098980Y-88927886D01*
X141100220Y-88920057D01*
X141096059Y-88876038D01*
X141095500Y-88864181D01*
X141095500Y-87690595D01*
X141115502Y-87622474D01*
X141132405Y-87601500D01*
X141384873Y-87349032D01*
X141447185Y-87315006D01*
X141518000Y-87320071D01*
X141574836Y-87362618D01*
X141599647Y-87429138D01*
X141599278Y-87451297D01*
X141580496Y-87630000D01*
X141600458Y-87819928D01*
X141659473Y-88001556D01*
X141754960Y-88166944D01*
X141828137Y-88248215D01*
X141858853Y-88312221D01*
X141860500Y-88332524D01*
X141860500Y-99997233D01*
X141859973Y-100008416D01*
X141858298Y-100015909D01*
X141858547Y-100023835D01*
X141858547Y-100023836D01*
X141860438Y-100083986D01*
X141860500Y-100087945D01*
X141860500Y-100115856D01*
X141860997Y-100119790D01*
X141860997Y-100119791D01*
X141861005Y-100119856D01*
X141861938Y-100131693D01*
X141863327Y-100175889D01*
X141868978Y-100195339D01*
X141872987Y-100214700D01*
X141875526Y-100234797D01*
X141878445Y-100242168D01*
X141878445Y-100242170D01*
X141891804Y-100275912D01*
X141895649Y-100287142D01*
X141907982Y-100329593D01*
X141912015Y-100336412D01*
X141912017Y-100336417D01*
X141918293Y-100347028D01*
X141926988Y-100364776D01*
X141934448Y-100383617D01*
X141939110Y-100390033D01*
X141939110Y-100390034D01*
X141960436Y-100419387D01*
X141966952Y-100429307D01*
X141983300Y-100456949D01*
X141989458Y-100467362D01*
X142003779Y-100481683D01*
X142016619Y-100496716D01*
X142028528Y-100513107D01*
X142034632Y-100518157D01*
X142034637Y-100518162D01*
X142062598Y-100541293D01*
X142071379Y-100549283D01*
X143006353Y-101484258D01*
X143013887Y-101492537D01*
X143018000Y-101499018D01*
X143067651Y-101545643D01*
X143070493Y-101548398D01*
X143090230Y-101568135D01*
X143093427Y-101570615D01*
X143102447Y-101578318D01*
X143134679Y-101608586D01*
X143141625Y-101612405D01*
X143141628Y-101612407D01*
X143152434Y-101618348D01*
X143168953Y-101629199D01*
X143184959Y-101641614D01*
X143192228Y-101644759D01*
X143192232Y-101644762D01*
X143225537Y-101659174D01*
X143236187Y-101664391D01*
X143274940Y-101685695D01*
X143282615Y-101687666D01*
X143282616Y-101687666D01*
X143294562Y-101690733D01*
X143313267Y-101697137D01*
X143331855Y-101705181D01*
X143339678Y-101706420D01*
X143339688Y-101706423D01*
X143375524Y-101712099D01*
X143387144Y-101714505D01*
X143422289Y-101723528D01*
X143429970Y-101725500D01*
X143450224Y-101725500D01*
X143469934Y-101727051D01*
X143489943Y-101730220D01*
X143497835Y-101729474D01*
X143533961Y-101726059D01*
X143545819Y-101725500D01*
X150053406Y-101725500D01*
X150121527Y-101745502D01*
X150142501Y-101762405D01*
X150967595Y-102587499D01*
X151001621Y-102649811D01*
X151004500Y-102676594D01*
X151004500Y-104841405D01*
X150984498Y-104909526D01*
X150967595Y-104930500D01*
X150340940Y-105557155D01*
X150278628Y-105591181D01*
X150207813Y-105586116D01*
X150200623Y-105583178D01*
X150142288Y-105557206D01*
X150078414Y-105543629D01*
X149961944Y-105518872D01*
X149961939Y-105518872D01*
X149955487Y-105517500D01*
X149764513Y-105517500D01*
X149758061Y-105518872D01*
X149758056Y-105518872D01*
X149672298Y-105537101D01*
X149577712Y-105557206D01*
X149571682Y-105559891D01*
X149571681Y-105559891D01*
X149409278Y-105632197D01*
X149409276Y-105632198D01*
X149403248Y-105634882D01*
X149397907Y-105638762D01*
X149397906Y-105638763D01*
X149380144Y-105651668D01*
X149248747Y-105747134D01*
X149244326Y-105752044D01*
X149244325Y-105752045D01*
X149211143Y-105788898D01*
X149120960Y-105889056D01*
X149025473Y-106054444D01*
X148966458Y-106236072D01*
X148965768Y-106242633D01*
X148965768Y-106242635D01*
X148957720Y-106319206D01*
X148946496Y-106426000D01*
X148947186Y-106432565D01*
X148956083Y-106517211D01*
X148966458Y-106615928D01*
X149025473Y-106797556D01*
X149028776Y-106803278D01*
X149028777Y-106803279D01*
X149045176Y-106831683D01*
X149120960Y-106962944D01*
X149125378Y-106967851D01*
X149125379Y-106967852D01*
X149151317Y-106996659D01*
X149248747Y-107104866D01*
X149337493Y-107169344D01*
X149372207Y-107194565D01*
X149403248Y-107217118D01*
X149409276Y-107219802D01*
X149409278Y-107219803D01*
X149571681Y-107292109D01*
X149577712Y-107294794D01*
X149671113Y-107314647D01*
X149758056Y-107333128D01*
X149758061Y-107333128D01*
X149764513Y-107334500D01*
X149955487Y-107334500D01*
X149961939Y-107333128D01*
X149961944Y-107333128D01*
X150048887Y-107314647D01*
X150142288Y-107294794D01*
X150298892Y-107225070D01*
X150342970Y-107219160D01*
X150352562Y-107196312D01*
X150376232Y-107173903D01*
X150465909Y-107108749D01*
X150465911Y-107108747D01*
X150471253Y-107104866D01*
X150475671Y-107099960D01*
X150475678Y-107099953D01*
X150505209Y-107067155D01*
X150552462Y-107034313D01*
X150567912Y-107028196D01*
X150579142Y-107024351D01*
X150613662Y-107014322D01*
X150621592Y-107012018D01*
X150622261Y-107014322D01*
X150680842Y-107007095D01*
X150744819Y-107037878D01*
X150781997Y-107098362D01*
X150780573Y-107169344D01*
X150740999Y-107228288D01*
X150731783Y-107235265D01*
X150589392Y-107333128D01*
X150521660Y-107379679D01*
X150454351Y-107401727D01*
X150431741Y-107436183D01*
X150415974Y-107447610D01*
X150199513Y-107580258D01*
X149848273Y-107795498D01*
X149842602Y-107798772D01*
X149517594Y-107975237D01*
X149195282Y-108150238D01*
X149189404Y-108153233D01*
X148524594Y-108470331D01*
X148518568Y-108473014D01*
X147838074Y-108754884D01*
X147831916Y-108757248D01*
X147137589Y-109003123D01*
X147131319Y-109005160D01*
X146425087Y-109214355D01*
X146418749Y-109216054D01*
X145702492Y-109388012D01*
X145696059Y-109389379D01*
X144971818Y-109523608D01*
X144965320Y-109524638D01*
X144360782Y-109604226D01*
X144235060Y-109620778D01*
X144228500Y-109621468D01*
X144139046Y-109628508D01*
X143494174Y-109679261D01*
X143487621Y-109679604D01*
X142751284Y-109698886D01*
X142744716Y-109698886D01*
X142008379Y-109679604D01*
X142001826Y-109679261D01*
X141356954Y-109628508D01*
X141267500Y-109621468D01*
X141260940Y-109620778D01*
X141135218Y-109604226D01*
X140530680Y-109524638D01*
X140524182Y-109523608D01*
X139799941Y-109389379D01*
X139793508Y-109388012D01*
X139077251Y-109216054D01*
X139070913Y-109214355D01*
X138364681Y-109005160D01*
X138358411Y-109003123D01*
X137664084Y-108757248D01*
X137657926Y-108754884D01*
X136977432Y-108473014D01*
X136971406Y-108470331D01*
X136306596Y-108153233D01*
X136300718Y-108150238D01*
X135978406Y-107975237D01*
X135653398Y-107798772D01*
X135647727Y-107795498D01*
X135019671Y-107410625D01*
X135014139Y-107407032D01*
X134407119Y-106989839D01*
X134401782Y-106985961D01*
X133817432Y-106537573D01*
X133812306Y-106533422D01*
X133252226Y-106055069D01*
X133247323Y-106050655D01*
X132743608Y-105572647D01*
X132713029Y-105543629D01*
X132708368Y-105538968D01*
X132428180Y-105243711D01*
X132201342Y-105004673D01*
X132196931Y-104999774D01*
X132137766Y-104930500D01*
X131896488Y-104648000D01*
X133514526Y-104648000D01*
X133534391Y-104900403D01*
X133535545Y-104905210D01*
X133535546Y-104905216D01*
X133559424Y-105004673D01*
X133593495Y-105146591D01*
X133595388Y-105151162D01*
X133595389Y-105151164D01*
X133650665Y-105284611D01*
X133690384Y-105380502D01*
X133822672Y-105596376D01*
X133987102Y-105788898D01*
X134179624Y-105953328D01*
X134395498Y-106085616D01*
X134400068Y-106087509D01*
X134400072Y-106087511D01*
X134624836Y-106180611D01*
X134629409Y-106182505D01*
X134704360Y-106200499D01*
X134870784Y-106240454D01*
X134870790Y-106240455D01*
X134875597Y-106241609D01*
X134975416Y-106249465D01*
X135062345Y-106256307D01*
X135062352Y-106256307D01*
X135064801Y-106256500D01*
X135191199Y-106256500D01*
X135193648Y-106256307D01*
X135193655Y-106256307D01*
X135280584Y-106249465D01*
X135380403Y-106241609D01*
X135385210Y-106240455D01*
X135385216Y-106240454D01*
X135551640Y-106200499D01*
X135626591Y-106182505D01*
X135631164Y-106180611D01*
X135855928Y-106087511D01*
X135855932Y-106087509D01*
X135860502Y-106085616D01*
X136076376Y-105953328D01*
X136268898Y-105788898D01*
X136433328Y-105596376D01*
X136565616Y-105380502D01*
X136605336Y-105284611D01*
X136660611Y-105151164D01*
X136660612Y-105151162D01*
X136662505Y-105146591D01*
X136696576Y-105004673D01*
X136720454Y-104905216D01*
X136720455Y-104905210D01*
X136721609Y-104900403D01*
X136741474Y-104648000D01*
X136721609Y-104395597D01*
X136707252Y-104335792D01*
X136663660Y-104154221D01*
X136662505Y-104149409D01*
X136613938Y-104032158D01*
X136567511Y-103920072D01*
X136567509Y-103920068D01*
X136565616Y-103915498D01*
X136433328Y-103699624D01*
X136268898Y-103507102D01*
X136117740Y-103378000D01*
X142596496Y-103378000D01*
X142616458Y-103567928D01*
X142675473Y-103749556D01*
X142770960Y-103914944D01*
X142844137Y-103996215D01*
X142874853Y-104060221D01*
X142876500Y-104080524D01*
X142876500Y-106347233D01*
X142875973Y-106358416D01*
X142874298Y-106365909D01*
X142874547Y-106373835D01*
X142874547Y-106373836D01*
X142876438Y-106433986D01*
X142876500Y-106437945D01*
X142876500Y-106465856D01*
X142876997Y-106469790D01*
X142876997Y-106469791D01*
X142877005Y-106469856D01*
X142877938Y-106481693D01*
X142879327Y-106525889D01*
X142884978Y-106545339D01*
X142888987Y-106564700D01*
X142891526Y-106584797D01*
X142894445Y-106592168D01*
X142894445Y-106592170D01*
X142907804Y-106625912D01*
X142911649Y-106637142D01*
X142921771Y-106671983D01*
X142923982Y-106679593D01*
X142928015Y-106686412D01*
X142928017Y-106686417D01*
X142934293Y-106697028D01*
X142942988Y-106714776D01*
X142950448Y-106733617D01*
X142955110Y-106740033D01*
X142955110Y-106740034D01*
X142976436Y-106769387D01*
X142982952Y-106779307D01*
X142993745Y-106797556D01*
X143005458Y-106817362D01*
X143019779Y-106831683D01*
X143032619Y-106846716D01*
X143044528Y-106863107D01*
X143060522Y-106876338D01*
X143078593Y-106891288D01*
X143087374Y-106899278D01*
X143768353Y-107580258D01*
X143775887Y-107588537D01*
X143780000Y-107595018D01*
X143829651Y-107641643D01*
X143832493Y-107644398D01*
X143852230Y-107664135D01*
X143855427Y-107666615D01*
X143864447Y-107674318D01*
X143896679Y-107704586D01*
X143903625Y-107708405D01*
X143903628Y-107708407D01*
X143914434Y-107714348D01*
X143930953Y-107725199D01*
X143946959Y-107737614D01*
X143954228Y-107740759D01*
X143954232Y-107740762D01*
X143987537Y-107755174D01*
X143998187Y-107760391D01*
X144036940Y-107781695D01*
X144044615Y-107783666D01*
X144044616Y-107783666D01*
X144056562Y-107786733D01*
X144075267Y-107793137D01*
X144093855Y-107801181D01*
X144101678Y-107802420D01*
X144101688Y-107802423D01*
X144137524Y-107808099D01*
X144149144Y-107810505D01*
X144184289Y-107819528D01*
X144191970Y-107821500D01*
X144212224Y-107821500D01*
X144231934Y-107823051D01*
X144251943Y-107826220D01*
X144259835Y-107825474D01*
X144295961Y-107822059D01*
X144307819Y-107821500D01*
X145595800Y-107821500D01*
X145663921Y-107841502D01*
X145683147Y-107857843D01*
X145683420Y-107857540D01*
X145688332Y-107861963D01*
X145692747Y-107866866D01*
X145847248Y-107979118D01*
X145853276Y-107981802D01*
X145853278Y-107981803D01*
X146015681Y-108054109D01*
X146021712Y-108056794D01*
X146115113Y-108076647D01*
X146202056Y-108095128D01*
X146202061Y-108095128D01*
X146208513Y-108096500D01*
X146399487Y-108096500D01*
X146405939Y-108095128D01*
X146405944Y-108095128D01*
X146492887Y-108076647D01*
X146586288Y-108056794D01*
X146592319Y-108054109D01*
X146754722Y-107981803D01*
X146754724Y-107981802D01*
X146760752Y-107979118D01*
X146915253Y-107866866D01*
X146951851Y-107826220D01*
X147038621Y-107729852D01*
X147038622Y-107729851D01*
X147043040Y-107724944D01*
X147138527Y-107559556D01*
X147197542Y-107377928D01*
X147202107Y-107334500D01*
X147216814Y-107194565D01*
X147217504Y-107188000D01*
X147215543Y-107169344D01*
X147198232Y-107004635D01*
X147198232Y-107004633D01*
X147197542Y-106998072D01*
X147138527Y-106816444D01*
X147135116Y-106810535D01*
X147046341Y-106656774D01*
X147043040Y-106651056D01*
X147017064Y-106622206D01*
X146919675Y-106514045D01*
X146919674Y-106514044D01*
X146915253Y-106509134D01*
X146800829Y-106426000D01*
X146766094Y-106400763D01*
X146766093Y-106400762D01*
X146760752Y-106396882D01*
X146754724Y-106394198D01*
X146754722Y-106394197D01*
X146592319Y-106321891D01*
X146592318Y-106321891D01*
X146586288Y-106319206D01*
X146492888Y-106299353D01*
X146405944Y-106280872D01*
X146405939Y-106280872D01*
X146399487Y-106279500D01*
X146208513Y-106279500D01*
X146202061Y-106280872D01*
X146202056Y-106280872D01*
X146115112Y-106299353D01*
X146021712Y-106319206D01*
X146015682Y-106321891D01*
X146015681Y-106321891D01*
X145853278Y-106394197D01*
X145853276Y-106394198D01*
X145847248Y-106396882D01*
X145841907Y-106400762D01*
X145841906Y-106400763D01*
X145798135Y-106432565D01*
X145692747Y-106509134D01*
X145688332Y-106514037D01*
X145683420Y-106518460D01*
X145682295Y-106517211D01*
X145628986Y-106550051D01*
X145595800Y-106554500D01*
X144586595Y-106554500D01*
X144518474Y-106534498D01*
X144497499Y-106517595D01*
X144180404Y-106200499D01*
X144146379Y-106138187D01*
X144143500Y-106111404D01*
X144143500Y-104080524D01*
X144163502Y-104012403D01*
X144175858Y-103996221D01*
X144249040Y-103914944D01*
X144344527Y-103749556D01*
X144403542Y-103567928D01*
X144423504Y-103378000D01*
X144403542Y-103188072D01*
X144344527Y-103006444D01*
X144249040Y-102841056D01*
X144121253Y-102699134D01*
X143966752Y-102586882D01*
X143960724Y-102584198D01*
X143960722Y-102584197D01*
X143798319Y-102511891D01*
X143798318Y-102511891D01*
X143792288Y-102509206D01*
X143698887Y-102489353D01*
X143611944Y-102470872D01*
X143611939Y-102470872D01*
X143605487Y-102469500D01*
X143414513Y-102469500D01*
X143408061Y-102470872D01*
X143408056Y-102470872D01*
X143321112Y-102489353D01*
X143227712Y-102509206D01*
X143221682Y-102511891D01*
X143221681Y-102511891D01*
X143059278Y-102584197D01*
X143059276Y-102584198D01*
X143053248Y-102586882D01*
X142898747Y-102699134D01*
X142770960Y-102841056D01*
X142675473Y-103006444D01*
X142616458Y-103188072D01*
X142596496Y-103378000D01*
X136117740Y-103378000D01*
X136076376Y-103342672D01*
X135860502Y-103210384D01*
X135855932Y-103208491D01*
X135855928Y-103208489D01*
X135631164Y-103115389D01*
X135631162Y-103115388D01*
X135626591Y-103113495D01*
X135541968Y-103093179D01*
X135385216Y-103055546D01*
X135385210Y-103055545D01*
X135380403Y-103054391D01*
X135280584Y-103046535D01*
X135193655Y-103039693D01*
X135193648Y-103039693D01*
X135191199Y-103039500D01*
X135064801Y-103039500D01*
X135062352Y-103039693D01*
X135062345Y-103039693D01*
X134975416Y-103046535D01*
X134875597Y-103054391D01*
X134870790Y-103055545D01*
X134870784Y-103055546D01*
X134714032Y-103093179D01*
X134629409Y-103113495D01*
X134624838Y-103115388D01*
X134624836Y-103115389D01*
X134400072Y-103208489D01*
X134400068Y-103208491D01*
X134395498Y-103210384D01*
X134179624Y-103342672D01*
X133987102Y-103507102D01*
X133822672Y-103699624D01*
X133690384Y-103915498D01*
X133688491Y-103920068D01*
X133688489Y-103920072D01*
X133642062Y-104032158D01*
X133593495Y-104149409D01*
X133592340Y-104154221D01*
X133548749Y-104335792D01*
X133534391Y-104395597D01*
X133514526Y-104648000D01*
X131896488Y-104648000D01*
X131718578Y-104439694D01*
X131714427Y-104434568D01*
X131266039Y-103850218D01*
X131262161Y-103844881D01*
X130844968Y-103237861D01*
X130841375Y-103232329D01*
X130699445Y-103000721D01*
X130456502Y-102604273D01*
X130453228Y-102598602D01*
X130132941Y-102008707D01*
X130101762Y-101951282D01*
X130098767Y-101945404D01*
X129781669Y-101280594D01*
X129778986Y-101274568D01*
X129497116Y-100594074D01*
X129494752Y-100587916D01*
X129248877Y-99893589D01*
X129246839Y-99887315D01*
X129037650Y-99181104D01*
X129035942Y-99174732D01*
X129029525Y-99148000D01*
X128863988Y-98458492D01*
X128862619Y-98452049D01*
X128859848Y-98437095D01*
X128782281Y-98018580D01*
X130415752Y-98018580D01*
X130440477Y-98136421D01*
X130443537Y-98146617D01*
X130524263Y-98351029D01*
X130528994Y-98360561D01*
X130643016Y-98548462D01*
X130649280Y-98557052D01*
X130793327Y-98723052D01*
X130800958Y-98730472D01*
X130970911Y-98869826D01*
X130979678Y-98875850D01*
X131170682Y-98984576D01*
X131180346Y-98989041D01*
X131386941Y-99064031D01*
X131397208Y-99066802D01*
X131600174Y-99103504D01*
X131613414Y-99102085D01*
X131618000Y-99087450D01*
X131618000Y-99083849D01*
X132126000Y-99083849D01*
X132130310Y-99098527D01*
X132142193Y-99100590D01*
X132221325Y-99093876D01*
X132231797Y-99092086D01*
X132444535Y-99036870D01*
X132454575Y-99033335D01*
X132654970Y-98943063D01*
X132664256Y-98937894D01*
X132846575Y-98815150D01*
X132854870Y-98808481D01*
X133013900Y-98656772D01*
X133020941Y-98648814D01*
X133152141Y-98472475D01*
X133157745Y-98463438D01*
X133257357Y-98267516D01*
X133261357Y-98257665D01*
X133326534Y-98047760D01*
X133328817Y-98037376D01*
X133330861Y-98021957D01*
X133328665Y-98007793D01*
X133315478Y-98004000D01*
X132144115Y-98004000D01*
X132128876Y-98008475D01*
X132127671Y-98009865D01*
X132126000Y-98017548D01*
X132126000Y-99083849D01*
X131618000Y-99083849D01*
X131618000Y-98022115D01*
X131613525Y-98006876D01*
X131612135Y-98005671D01*
X131604452Y-98004000D01*
X130430808Y-98004000D01*
X130417277Y-98007973D01*
X130415752Y-98018580D01*
X128782281Y-98018580D01*
X128728392Y-97727818D01*
X128727361Y-97721311D01*
X128719195Y-97659279D01*
X128631222Y-96991060D01*
X128630532Y-96984500D01*
X128609072Y-96711829D01*
X128572739Y-96250174D01*
X128572395Y-96243603D01*
X128571867Y-96223412D01*
X128553114Y-95507284D01*
X128553114Y-95500702D01*
X128554541Y-95446206D01*
X128572396Y-94764379D01*
X128572740Y-94757809D01*
X128574527Y-94735110D01*
X128630532Y-94023500D01*
X128631222Y-94016940D01*
X128663623Y-93770832D01*
X128727362Y-93286680D01*
X128728393Y-93280173D01*
X128862621Y-92555941D01*
X128863990Y-92549499D01*
X128875270Y-92502516D01*
X129035946Y-91833251D01*
X129037650Y-91826896D01*
X129040704Y-91816588D01*
X129246840Y-91120681D01*
X129248877Y-91114411D01*
X129494752Y-90420084D01*
X129497116Y-90413926D01*
X129778986Y-89733432D01*
X129781669Y-89727406D01*
X130098767Y-89062596D01*
X130101762Y-89056718D01*
X130233449Y-88814180D01*
X130453228Y-88409398D01*
X130456502Y-88403727D01*
X130841375Y-87775671D01*
X130844968Y-87770139D01*
X131262161Y-87163119D01*
X131266039Y-87157782D01*
X131714427Y-86573432D01*
X131718578Y-86568306D01*
X132196931Y-86008226D01*
X132201345Y-86003323D01*
X132209501Y-85994729D01*
X132708371Y-85469029D01*
X132713032Y-85464368D01*
X133247323Y-84957345D01*
X133252226Y-84952931D01*
X133812306Y-84474578D01*
X133817432Y-84470427D01*
X134401782Y-84022039D01*
X134407119Y-84018161D01*
X135014139Y-83600968D01*
X135019671Y-83597375D01*
X135113638Y-83539792D01*
X135647727Y-83212502D01*
X135653398Y-83209228D01*
X136058180Y-82989449D01*
X136300718Y-82857762D01*
X136306596Y-82854767D01*
X136971406Y-82537669D01*
X136977432Y-82534986D01*
X137657926Y-82253116D01*
X137664084Y-82250752D01*
X138358411Y-82004877D01*
X138364685Y-82002839D01*
X139070913Y-81793645D01*
X139077251Y-81791946D01*
X139793508Y-81619988D01*
X139799941Y-81618621D01*
X140524182Y-81484392D01*
X140530680Y-81483362D01*
X141260938Y-81387222D01*
X141267500Y-81386532D01*
X141356954Y-81379492D01*
X142001826Y-81328739D01*
X142008379Y-81328396D01*
X142744716Y-81309114D01*
X142751284Y-81309114D01*
X143487621Y-81328396D01*
G37*
%TD.AperFunction*%
%TD*%
M02*
