%TF.GenerationSoftware,KiCad,Pcbnew,8.0.1-rc1*%
%TF.CreationDate,2024-03-31T01:12:23-05:00*%
%TF.ProjectId,dome_rgbwauv_pcb,646f6d65-5f72-4676-9277-6175765f7063,rev?*%
%TF.SameCoordinates,Original*%
%TF.FileFunction,Paste,Top*%
%TF.FilePolarity,Positive*%
%FSLAX46Y46*%
G04 Gerber Fmt 4.6, Leading zero omitted, Abs format (unit mm)*
G04 Created by KiCad (PCBNEW 8.0.1-rc1) date 2024-03-31 01:12:23*
%MOMM*%
%LPD*%
G01*
G04 APERTURE LIST*
G04 Aperture macros list*
%AMRoundRect*
0 Rectangle with rounded corners*
0 $1 Rounding radius*
0 $2 $3 $4 $5 $6 $7 $8 $9 X,Y pos of 4 corners*
0 Add a 4 corners polygon primitive as box body*
4,1,4,$2,$3,$4,$5,$6,$7,$8,$9,$2,$3,0*
0 Add four circle primitives for the rounded corners*
1,1,$1+$1,$2,$3*
1,1,$1+$1,$4,$5*
1,1,$1+$1,$6,$7*
1,1,$1+$1,$8,$9*
0 Add four rect primitives between the rounded corners*
20,1,$1+$1,$2,$3,$4,$5,0*
20,1,$1+$1,$4,$5,$6,$7,0*
20,1,$1+$1,$6,$7,$8,$9,0*
20,1,$1+$1,$8,$9,$2,$3,0*%
G04 Aperture macros list end*
%ADD10RoundRect,0.200000X-0.200000X-0.275000X0.200000X-0.275000X0.200000X0.275000X-0.200000X0.275000X0*%
%ADD11RoundRect,0.200000X-0.275000X0.200000X-0.275000X-0.200000X0.275000X-0.200000X0.275000X0.200000X0*%
%ADD12RoundRect,0.200000X-0.800000X-0.200000X0.800000X-0.200000X0.800000X0.200000X-0.800000X0.200000X0*%
%ADD13RoundRect,0.200000X-0.812500X-0.200000X0.812500X-0.200000X0.812500X0.200000X-0.812500X0.200000X0*%
%ADD14RoundRect,0.225000X0.250000X-0.225000X0.250000X0.225000X-0.250000X0.225000X-0.250000X-0.225000X0*%
%ADD15R,1.070000X0.600000*%
%ADD16R,1.524000X0.660400*%
%ADD17RoundRect,0.200000X0.200000X0.275000X-0.200000X0.275000X-0.200000X-0.275000X0.200000X-0.275000X0*%
%ADD18RoundRect,0.225000X-0.225000X-0.250000X0.225000X-0.250000X0.225000X0.250000X-0.225000X0.250000X0*%
G04 APERTURE END LIST*
D10*
%TO.C,R15*%
X99363044Y-106448659D03*
X101013044Y-106448659D03*
%TD*%
D11*
%TO.C,R7*%
X118938044Y-88798659D03*
X118938044Y-90448659D03*
%TD*%
%TO.C,R5*%
X113500000Y-91500000D03*
X113500000Y-93150000D03*
%TD*%
D12*
%TO.C,U1*%
X140478144Y-90746759D03*
D13*
X140490644Y-92246759D03*
X140490644Y-93746759D03*
X140490644Y-95246759D03*
X140490644Y-96746759D03*
X140490644Y-98246759D03*
D12*
X127778144Y-90746759D03*
D13*
X127765644Y-92246759D03*
X127765644Y-93746759D03*
X127765644Y-95246759D03*
X127765644Y-96746759D03*
X127765644Y-98246759D03*
%TD*%
D11*
%TO.C,R2*%
X104000000Y-51925000D03*
X104000000Y-53575000D03*
%TD*%
%TO.C,R13*%
X105938044Y-99298659D03*
X105938044Y-100948659D03*
%TD*%
D14*
%TO.C,C1*%
X102000000Y-53525000D03*
X102000000Y-51975000D03*
%TD*%
D15*
%TO.C,Q1*%
X114708044Y-94998659D03*
X114708044Y-96898659D03*
X117188044Y-95948659D03*
%TD*%
D16*
%TO.C,IC1*%
X97964644Y-55043659D03*
X97964644Y-56313659D03*
X97964644Y-57583659D03*
X97964644Y-58853659D03*
X103911444Y-58853659D03*
X103911444Y-57583659D03*
X103911444Y-56313659D03*
X103911444Y-55043659D03*
%TD*%
D15*
%TO.C,Q2*%
X118208044Y-91998659D03*
X118208044Y-93898659D03*
X120688044Y-92948659D03*
%TD*%
D16*
%TO.C,IC2*%
X112276600Y-54845000D03*
X112276600Y-56115000D03*
X112276600Y-57385000D03*
X112276600Y-58655000D03*
X118223400Y-58655000D03*
X118223400Y-57385000D03*
X118223400Y-56115000D03*
X118223400Y-54845000D03*
%TD*%
D10*
%TO.C,R16*%
X102788044Y-101448659D03*
X104438044Y-101448659D03*
%TD*%
D15*
%TO.C,Q5*%
X103198044Y-106248659D03*
X103198044Y-108148659D03*
X105678044Y-107198659D03*
%TD*%
D10*
%TO.C,R8*%
X115538044Y-90198659D03*
X117188044Y-90198659D03*
%TD*%
D15*
%TO.C,Q6*%
X106948044Y-102248659D03*
X106948044Y-104148659D03*
X109428044Y-103198659D03*
%TD*%
D17*
%TO.C,R1*%
X108150000Y-53250000D03*
X106500000Y-53250000D03*
%TD*%
D15*
%TO.C,Q4*%
X110698044Y-98448659D03*
X110698044Y-100348659D03*
X113178044Y-99398659D03*
%TD*%
%TO.C,Q3*%
X122948044Y-89748659D03*
X122948044Y-91648659D03*
X125428044Y-90698659D03*
%TD*%
D10*
%TO.C,R6*%
X111038044Y-94698659D03*
X112688044Y-94698659D03*
%TD*%
%TO.C,R14*%
X107438044Y-98948659D03*
X109088044Y-98948659D03*
%TD*%
D11*
%TO.C,R11*%
X109013044Y-95623659D03*
X109013044Y-97273659D03*
%TD*%
D18*
%TO.C,C2*%
X120750000Y-57000000D03*
X122300000Y-57000000D03*
%TD*%
D17*
%TO.C,R4*%
X122325000Y-55000000D03*
X120675000Y-55000000D03*
%TD*%
D10*
%TO.C,R10*%
X120688044Y-88448659D03*
X122338044Y-88448659D03*
%TD*%
D11*
%TO.C,R9*%
X124113044Y-86623659D03*
X124113044Y-88273659D03*
%TD*%
D10*
%TO.C,R3*%
X109250000Y-61250000D03*
X110900000Y-61250000D03*
%TD*%
D11*
%TO.C,R12*%
X102688044Y-103198659D03*
X102688044Y-104848659D03*
%TD*%
M02*
