%TF.GenerationSoftware,KiCad,Pcbnew,8.0.1-rc1*%
%TF.CreationDate,2024-03-31T01:12:23-05:00*%
%TF.ProjectId,dome_rgbwauv_pcb,646f6d65-5f72-4676-9277-6175765f7063,rev?*%
%TF.SameCoordinates,Original*%
%TF.FileFunction,Copper,L1,Top*%
%TF.FilePolarity,Positive*%
%FSLAX46Y46*%
G04 Gerber Fmt 4.6, Leading zero omitted, Abs format (unit mm)*
G04 Created by KiCad (PCBNEW 8.0.1-rc1) date 2024-03-31 01:12:23*
%MOMM*%
%LPD*%
G01*
G04 APERTURE LIST*
G04 Aperture macros list*
%AMRoundRect*
0 Rectangle with rounded corners*
0 $1 Rounding radius*
0 $2 $3 $4 $5 $6 $7 $8 $9 X,Y pos of 4 corners*
0 Add a 4 corners polygon primitive as box body*
4,1,4,$2,$3,$4,$5,$6,$7,$8,$9,$2,$3,0*
0 Add four circle primitives for the rounded corners*
1,1,$1+$1,$2,$3*
1,1,$1+$1,$4,$5*
1,1,$1+$1,$6,$7*
1,1,$1+$1,$8,$9*
0 Add four rect primitives between the rounded corners*
20,1,$1+$1,$2,$3,$4,$5,0*
20,1,$1+$1,$4,$5,$6,$7,0*
20,1,$1+$1,$6,$7,$8,$9,0*
20,1,$1+$1,$8,$9,$2,$3,0*%
G04 Aperture macros list end*
%TA.AperFunction,SMDPad,CuDef*%
%ADD10RoundRect,0.200000X-0.200000X-0.275000X0.200000X-0.275000X0.200000X0.275000X-0.200000X0.275000X0*%
%TD*%
%TA.AperFunction,SMDPad,CuDef*%
%ADD11RoundRect,0.200000X-0.275000X0.200000X-0.275000X-0.200000X0.275000X-0.200000X0.275000X0.200000X0*%
%TD*%
%TA.AperFunction,SMDPad,CuDef*%
%ADD12RoundRect,0.200000X-0.800000X-0.200000X0.800000X-0.200000X0.800000X0.200000X-0.800000X0.200000X0*%
%TD*%
%TA.AperFunction,SMDPad,CuDef*%
%ADD13RoundRect,0.200000X-0.812500X-0.200000X0.812500X-0.200000X0.812500X0.200000X-0.812500X0.200000X0*%
%TD*%
%TA.AperFunction,ComponentPad*%
%ADD14R,1.700000X1.700000*%
%TD*%
%TA.AperFunction,ComponentPad*%
%ADD15O,1.700000X1.700000*%
%TD*%
%TA.AperFunction,SMDPad,CuDef*%
%ADD16RoundRect,0.225000X0.250000X-0.225000X0.250000X0.225000X-0.250000X0.225000X-0.250000X-0.225000X0*%
%TD*%
%TA.AperFunction,SMDPad,CuDef*%
%ADD17R,1.070000X0.600000*%
%TD*%
%TA.AperFunction,SMDPad,CuDef*%
%ADD18R,1.524000X0.660400*%
%TD*%
%TA.AperFunction,SMDPad,CuDef*%
%ADD19RoundRect,0.200000X0.200000X0.275000X-0.200000X0.275000X-0.200000X-0.275000X0.200000X-0.275000X0*%
%TD*%
%TA.AperFunction,SMDPad,CuDef*%
%ADD20RoundRect,0.225000X-0.225000X-0.250000X0.225000X-0.250000X0.225000X0.250000X-0.225000X0.250000X0*%
%TD*%
%TA.AperFunction,ComponentPad*%
%ADD21RoundRect,0.250000X-0.725000X0.600000X-0.725000X-0.600000X0.725000X-0.600000X0.725000X0.600000X0*%
%TD*%
%TA.AperFunction,ComponentPad*%
%ADD22O,1.950000X1.700000*%
%TD*%
%TA.AperFunction,ComponentPad*%
%ADD23RoundRect,0.250000X0.725000X-0.600000X0.725000X0.600000X-0.725000X0.600000X-0.725000X-0.600000X0*%
%TD*%
%TA.AperFunction,ViaPad*%
%ADD24C,0.800000*%
%TD*%
%TA.AperFunction,Conductor*%
%ADD25C,0.508000*%
%TD*%
%TA.AperFunction,Conductor*%
%ADD26C,0.254000*%
%TD*%
G04 APERTURE END LIST*
D10*
%TO.P,R15,1*%
%TO.N,5vIN*%
X99363044Y-106448659D03*
%TO.P,R15,2*%
%TO.N,Net-(Q5-G)*%
X101013044Y-106448659D03*
%TD*%
D11*
%TO.P,R7,1*%
%TO.N,Net-(JP2-B)*%
X118938044Y-88798659D03*
%TO.P,R7,2*%
%TO.N,Net-(Q2-G)*%
X118938044Y-90448659D03*
%TD*%
%TO.P,R5,1*%
%TO.N,Net-(JP1-B)*%
X113500000Y-91500000D03*
%TO.P,R5,2*%
%TO.N,Net-(Q1-G)*%
X113500000Y-93150000D03*
%TD*%
D12*
%TO.P,U1,1,B+*%
%TO.N,5vIN*%
X140478144Y-90746759D03*
D13*
%TO.P,U1,2,G+*%
X140490644Y-92246759D03*
%TO.P,U1,3,R+*%
X140490644Y-93746759D03*
%TO.P,U1,4,W+*%
X140490644Y-95246759D03*
%TO.P,U1,5,P+*%
X140490644Y-96746759D03*
%TO.P,U1,6,Y+*%
X140490644Y-98246759D03*
D12*
%TO.P,U1,7,B-*%
%TO.N,blue*%
X127778144Y-90746759D03*
D13*
%TO.P,U1,8,G-*%
%TO.N,green*%
X127765644Y-92246759D03*
%TO.P,U1,9,R-*%
%TO.N,red*%
X127765644Y-93746759D03*
%TO.P,U1,10,W-*%
%TO.N,white*%
X127765644Y-95246759D03*
%TO.P,U1,11,P-*%
%TO.N,purple*%
X127765644Y-96746759D03*
%TO.P,U1,12,Y-*%
%TO.N,yellow*%
X127765644Y-98246759D03*
%TD*%
D14*
%TO.P,JP1,1,A*%
%TO.N,red*%
X111188044Y-65658659D03*
D15*
%TO.P,JP1,2,C*%
%TO.N,red_chipOut*%
X111188044Y-68198659D03*
%TO.P,JP1,3,B*%
%TO.N,Net-(JP1-B)*%
X111188044Y-70738659D03*
%TD*%
D11*
%TO.P,R2,1*%
%TO.N,5vIN*%
X104000000Y-51925000D03*
%TO.P,R2,2*%
%TO.N,Net-(IC1-VDD)*%
X104000000Y-53575000D03*
%TD*%
%TO.P,R13,1*%
%TO.N,Net-(JP6-B)*%
X105938044Y-99298659D03*
%TO.P,R13,2*%
%TO.N,Net-(Q6-G)*%
X105938044Y-100948659D03*
%TD*%
D16*
%TO.P,C1,1*%
%TO.N,Net-(IC1-VDD)*%
X102000000Y-53525000D03*
%TO.P,C1,2*%
%TO.N,GND*%
X102000000Y-51975000D03*
%TD*%
D14*
%TO.P,JP2,1,A*%
%TO.N,green*%
X106438044Y-65923659D03*
D15*
%TO.P,JP2,2,C*%
%TO.N,green_chipOut*%
X106438044Y-68463659D03*
%TO.P,JP2,3,B*%
%TO.N,Net-(JP2-B)*%
X106438044Y-71003659D03*
%TD*%
D17*
%TO.P,Q1,1,G*%
%TO.N,Net-(Q1-G)*%
X114708044Y-94998659D03*
%TO.P,Q1,2,S*%
%TO.N,GND*%
X114708044Y-96898659D03*
%TO.P,Q1,3,D*%
%TO.N,red*%
X117188044Y-95948659D03*
%TD*%
D18*
%TO.P,IC1,1,R*%
%TO.N,red_chipOut*%
X97964644Y-55043659D03*
%TO.P,IC1,2,G*%
%TO.N,green_chipOut*%
X97964644Y-56313659D03*
%TO.P,IC1,3,B*%
%TO.N,blue_chipOut*%
X97964644Y-57583659D03*
%TO.P,IC1,4,GND*%
%TO.N,GND*%
X97964644Y-58853659D03*
%TO.P,IC1,5,DO*%
%TO.N,DOI*%
X103911444Y-58853659D03*
%TO.P,IC1,6,DIN*%
%TO.N,Net-(IC1-DIN)*%
X103911444Y-57583659D03*
%TO.P,IC1,7,SET*%
%TO.N,unconnected-(IC1-SET-Pad7)*%
X103911444Y-56313659D03*
%TO.P,IC1,8,VDD*%
%TO.N,Net-(IC1-VDD)*%
X103911444Y-55043659D03*
%TD*%
D17*
%TO.P,Q2,1,G*%
%TO.N,Net-(Q2-G)*%
X118208044Y-91998659D03*
%TO.P,Q2,2,S*%
%TO.N,GND*%
X118208044Y-93898659D03*
%TO.P,Q2,3,D*%
%TO.N,green*%
X120688044Y-92948659D03*
%TD*%
D18*
%TO.P,IC2,1,R*%
%TO.N,white_chipOut*%
X112276600Y-54845000D03*
%TO.P,IC2,2,G*%
%TO.N,purple_chipOut*%
X112276600Y-56115000D03*
%TO.P,IC2,3,B*%
%TO.N,yellow_chipOut*%
X112276600Y-57385000D03*
%TO.P,IC2,4,GND*%
%TO.N,GND*%
X112276600Y-58655000D03*
%TO.P,IC2,5,DO*%
%TO.N,DO*%
X118223400Y-58655000D03*
%TO.P,IC2,6,DIN*%
%TO.N,Net-(IC2-DIN)*%
X118223400Y-57385000D03*
%TO.P,IC2,7,SET*%
%TO.N,unconnected-(IC2-SET-Pad7)*%
X118223400Y-56115000D03*
%TO.P,IC2,8,VDD*%
%TO.N,Net-(IC2-VDD)*%
X118223400Y-54845000D03*
%TD*%
D10*
%TO.P,R16,1*%
%TO.N,5vIN*%
X102788044Y-101448659D03*
%TO.P,R16,2*%
%TO.N,Net-(Q6-G)*%
X104438044Y-101448659D03*
%TD*%
D17*
%TO.P,Q5,1,G*%
%TO.N,Net-(Q5-G)*%
X103198044Y-106248659D03*
%TO.P,Q5,2,S*%
%TO.N,GND*%
X103198044Y-108148659D03*
%TO.P,Q5,3,D*%
%TO.N,yellow*%
X105678044Y-107198659D03*
%TD*%
D14*
%TO.P,JP5,1,A*%
%TO.N,yellow*%
X125188044Y-65868659D03*
D15*
%TO.P,JP5,2,C*%
%TO.N,yellow_chipOut*%
X125188044Y-68408659D03*
%TO.P,JP5,3,B*%
%TO.N,Net-(JP5-B)*%
X125188044Y-70948659D03*
%TD*%
D14*
%TO.P,JP3,1,A*%
%TO.N,blue*%
X101188044Y-65923659D03*
D15*
%TO.P,JP3,2,C*%
%TO.N,blue_chipOut*%
X101188044Y-68463659D03*
%TO.P,JP3,3,B*%
%TO.N,Net-(JP3-B)*%
X101188044Y-71003659D03*
%TD*%
D10*
%TO.P,R8,1*%
%TO.N,5vIN*%
X115538044Y-90198659D03*
%TO.P,R8,2*%
%TO.N,Net-(Q2-G)*%
X117188044Y-90198659D03*
%TD*%
D17*
%TO.P,Q6,1,G*%
%TO.N,Net-(Q6-G)*%
X106948044Y-102248659D03*
%TO.P,Q6,2,S*%
%TO.N,GND*%
X106948044Y-104148659D03*
%TO.P,Q6,3,D*%
%TO.N,purple*%
X109428044Y-103198659D03*
%TD*%
D19*
%TO.P,R1,1*%
%TO.N,DIN*%
X108150000Y-53250000D03*
%TO.P,R1,2*%
%TO.N,Net-(IC1-DIN)*%
X106500000Y-53250000D03*
%TD*%
D17*
%TO.P,Q4,1,G*%
%TO.N,Net-(Q4-G)*%
X110698044Y-98448659D03*
%TO.P,Q4,2,S*%
%TO.N,GND*%
X110698044Y-100348659D03*
%TO.P,Q4,3,D*%
%TO.N,white*%
X113178044Y-99398659D03*
%TD*%
%TO.P,Q3,1,G*%
%TO.N,Net-(Q3-G)*%
X122948044Y-89748659D03*
%TO.P,Q3,2,S*%
%TO.N,GND*%
X122948044Y-91648659D03*
%TO.P,Q3,3,D*%
%TO.N,blue*%
X125428044Y-90698659D03*
%TD*%
D10*
%TO.P,R6,1*%
%TO.N,5vIN*%
X111038044Y-94698659D03*
%TO.P,R6,2*%
%TO.N,Net-(Q1-G)*%
X112688044Y-94698659D03*
%TD*%
%TO.P,R14,1*%
%TO.N,5vIN*%
X107438044Y-98948659D03*
%TO.P,R14,2*%
%TO.N,Net-(Q4-G)*%
X109088044Y-98948659D03*
%TD*%
D11*
%TO.P,R11,1*%
%TO.N,Net-(JP4-B)*%
X109013044Y-95623659D03*
%TO.P,R11,2*%
%TO.N,Net-(Q4-G)*%
X109013044Y-97273659D03*
%TD*%
D20*
%TO.P,C2,1*%
%TO.N,Net-(IC2-VDD)*%
X120750000Y-57000000D03*
%TO.P,C2,2*%
%TO.N,GND*%
X122300000Y-57000000D03*
%TD*%
D19*
%TO.P,R4,1*%
%TO.N,5vIN*%
X122325000Y-55000000D03*
%TO.P,R4,2*%
%TO.N,Net-(IC2-VDD)*%
X120675000Y-55000000D03*
%TD*%
D10*
%TO.P,R10,1*%
%TO.N,5vIN*%
X120688044Y-88448659D03*
%TO.P,R10,2*%
%TO.N,Net-(Q3-G)*%
X122338044Y-88448659D03*
%TD*%
D11*
%TO.P,R9,1*%
%TO.N,Net-(JP3-B)*%
X124113044Y-86623659D03*
%TO.P,R9,2*%
%TO.N,Net-(Q3-G)*%
X124113044Y-88273659D03*
%TD*%
D10*
%TO.P,R3,1*%
%TO.N,DOI*%
X109250000Y-61250000D03*
%TO.P,R3,2*%
%TO.N,Net-(IC2-DIN)*%
X110900000Y-61250000D03*
%TD*%
D14*
%TO.P,JP4,1,A*%
%TO.N,white*%
X116138044Y-65698659D03*
D15*
%TO.P,JP4,2,C*%
%TO.N,white_chipOut*%
X116138044Y-68238659D03*
%TO.P,JP4,3,B*%
%TO.N,Net-(JP4-B)*%
X116138044Y-70778659D03*
%TD*%
D14*
%TO.P,JP6,1,A*%
%TO.N,purple*%
X120688044Y-65698659D03*
D15*
%TO.P,JP6,2,C*%
%TO.N,purple_chipOut*%
X120688044Y-68238659D03*
%TO.P,JP6,3,B*%
%TO.N,Net-(JP6-B)*%
X120688044Y-70778659D03*
%TD*%
D11*
%TO.P,R12,1*%
%TO.N,Net-(JP5-B)*%
X102688044Y-103198659D03*
%TO.P,R12,2*%
%TO.N,Net-(Q5-G)*%
X102688044Y-104848659D03*
%TD*%
D21*
%TO.P,J2,1,Pin_1*%
%TO.N,GND*%
X175588044Y-76873659D03*
D22*
%TO.P,J2,2,Pin_2*%
%TO.N,DO*%
X175588044Y-79373659D03*
%TO.P,J2,3,Pin_3*%
%TO.N,5vIN*%
X175588044Y-81873659D03*
%TD*%
D23*
%TO.P,J1,1,Pin_1*%
%TO.N,5vIN*%
X93788044Y-114778659D03*
D22*
%TO.P,J1,2,Pin_2*%
%TO.N,DIN*%
X93788044Y-112278659D03*
%TO.P,J1,3,Pin_3*%
%TO.N,GND*%
X93788044Y-109778659D03*
%TD*%
D24*
%TO.N,green*%
X125625000Y-92246759D03*
X129125000Y-89100000D03*
%TO.N,red*%
X124800000Y-93746759D03*
X129150000Y-99725000D03*
%TO.N,5vIN*%
X148975000Y-88850000D03*
X140450000Y-88775000D03*
%TO.N,purple*%
X122343351Y-97793351D03*
X127400000Y-101800000D03*
%TO.N,white*%
X123946000Y-95114254D03*
X128525000Y-100700000D03*
%TO.N,GND*%
X106750000Y-105250000D03*
X110500000Y-101750000D03*
X98000000Y-61000000D03*
X101500000Y-108250000D03*
X114750000Y-98250000D03*
X121250000Y-91500000D03*
X123750000Y-57000000D03*
X110000000Y-58500000D03*
X118250000Y-95000000D03*
X100250000Y-52500000D03*
%TO.N,DO*%
X121250000Y-58750000D03*
%TO.N,5vIN*%
X124250000Y-55000000D03*
X124000000Y-50500000D03*
X105500000Y-52000000D03*
X105500000Y-49250000D03*
%TO.N,white_chipOut*%
X112250000Y-53500000D03*
%TO.N,Net-(JP1-B)*%
X114250000Y-89750000D03*
X113000000Y-73250000D03*
%TO.N,Net-(JP2-B)*%
X107750000Y-73500000D03*
X117354000Y-86250000D03*
%TO.N,Net-(JP4-B)*%
X118500000Y-73250000D03*
X109000000Y-93500000D03*
%TO.N,Net-(JP5-B)*%
X128000000Y-71500000D03*
X104750000Y-103000000D03*
%TO.N,Net-(JP6-B)*%
X106000000Y-98000000D03*
X122500000Y-72500000D03*
%TD*%
D25*
%TO.N,red*%
X129125000Y-99725000D02*
X129150000Y-99725000D01*
X142375000Y-99775000D02*
X129075000Y-99775000D01*
X143354044Y-98795956D02*
X142375000Y-99775000D01*
X143354044Y-77612132D02*
X143354044Y-98795956D01*
X140274572Y-74532659D02*
X143354044Y-77612132D01*
X117522044Y-74532659D02*
X140274572Y-74532659D01*
X112492044Y-69502659D02*
X117522044Y-74532659D01*
X112492044Y-66962659D02*
X112492044Y-69502659D01*
X111188044Y-65658659D02*
X112492044Y-66962659D01*
%TO.N,yellow*%
X145478043Y-99675748D02*
X141860440Y-103293351D01*
X145478044Y-76732343D02*
X145478043Y-99675748D01*
X125188044Y-65868659D02*
X134614360Y-65868659D01*
%TO.N,purple*%
X142352528Y-101800000D02*
X127400000Y-101800000D01*
X144770044Y-99382484D02*
X142352528Y-101800000D01*
X144770044Y-77025606D02*
X144770044Y-99382484D01*
%TO.N,yellow*%
X141860440Y-103293351D02*
X118843351Y-103293351D01*
%TO.N,purple*%
X140861100Y-73116660D02*
X144770044Y-77025606D01*
X123884044Y-71488794D02*
X125511909Y-73116659D01*
X125511909Y-73116659D02*
X140861100Y-73116660D01*
X120688044Y-65698659D02*
X123884044Y-68894659D01*
%TO.N,white*%
X144062044Y-99089220D02*
X142451264Y-100700000D01*
X144062044Y-77318869D02*
X144062044Y-99089220D01*
X140567836Y-73824659D02*
X144062044Y-77318869D01*
X119384044Y-71484659D02*
X121724044Y-73824659D01*
X142451264Y-100700000D02*
X128525000Y-100700000D01*
X121724044Y-73824659D02*
X140567836Y-73824659D01*
X119384044Y-68944659D02*
X119384044Y-71484659D01*
%TO.N,purple*%
X123884044Y-68894659D02*
X123884044Y-71488794D01*
%TO.N,white*%
X116138044Y-65698659D02*
X119384044Y-68944659D01*
%TO.N,yellow*%
X134614360Y-65868659D02*
X145478044Y-76732343D01*
%TO.N,red*%
X129075000Y-99775000D02*
X129125000Y-99725000D01*
%TO.N,green*%
X125625000Y-92246759D02*
X127765644Y-92246759D01*
X129175000Y-89150000D02*
X129125000Y-89100000D01*
X125021550Y-92246759D02*
X125625000Y-92246759D01*
X132237967Y-89150000D02*
X129175000Y-89150000D01*
X142646044Y-78741923D02*
X132237967Y-89150000D01*
X142646044Y-77905395D02*
X142646044Y-78741923D01*
X139981308Y-75240659D02*
X142646044Y-77905395D01*
X109884044Y-69369659D02*
X109884044Y-71624703D01*
X106438044Y-65923659D02*
X109884044Y-69369659D01*
X109884044Y-71624703D02*
X113500000Y-75240659D01*
X113500000Y-75240659D02*
X139981308Y-75240659D01*
%TO.N,red*%
X124800000Y-93746759D02*
X127765644Y-93746759D01*
X123389944Y-93746759D02*
X124800000Y-93746759D01*
%TO.N,green*%
X124319650Y-92948659D02*
X125021550Y-92246759D01*
X120688044Y-92948659D02*
X124319650Y-92948659D01*
%TO.N,white*%
X123522449Y-95114254D02*
X123946000Y-95114254D01*
X119238044Y-99398659D02*
X123522449Y-95114254D01*
X113178044Y-99398659D02*
X119238044Y-99398659D01*
X124078505Y-95246759D02*
X123946000Y-95114254D01*
X127765644Y-95246759D02*
X124078505Y-95246759D01*
%TO.N,5vIN*%
X140478144Y-88803144D02*
X140450000Y-88775000D01*
X140478144Y-90746759D02*
X140478144Y-88803144D01*
%TO.N,red*%
X128621759Y-93746759D02*
X127765644Y-93746759D01*
%TO.N,yellow*%
X114938044Y-107198659D02*
X118843351Y-103293351D01*
X118843351Y-103293351D02*
X123889944Y-98246759D01*
%TO.N,purple*%
X122343351Y-97793351D02*
X123389944Y-96746759D01*
X116938044Y-103198659D02*
X122343351Y-97793351D01*
%TO.N,green*%
X128778144Y-92246759D02*
X127765644Y-92246759D01*
%TO.N,blue*%
X127778144Y-82596856D02*
X127778144Y-90746759D01*
X132357193Y-78017807D02*
X127778144Y-82596856D01*
X141757193Y-78017807D02*
X132357193Y-78017807D01*
X139688044Y-75948659D02*
X141757193Y-78017807D01*
%TO.N,purple_chipOut*%
X119384044Y-64615956D02*
X124963297Y-59036703D01*
X119384044Y-66934659D02*
X119384044Y-64615956D01*
X124963297Y-59036703D02*
X128708000Y-59036703D01*
X120688044Y-68238659D02*
X119384044Y-66934659D01*
%TO.N,yellow_chipOut*%
X123884044Y-64564659D02*
X126808000Y-61640703D01*
X123884044Y-67104659D02*
X123884044Y-64564659D01*
X125188044Y-68408659D02*
X123884044Y-67104659D01*
X126808000Y-61640703D02*
X129416000Y-61640703D01*
%TO.N,red_chipOut*%
X99888644Y-56899259D02*
X111188044Y-68198659D01*
X99888644Y-56237459D02*
X99888644Y-56899259D01*
X98694844Y-55043659D02*
X99888644Y-56237459D01*
X97964644Y-55043659D02*
X98694844Y-55043659D01*
%TO.N,green_chipOut*%
X99180644Y-56930644D02*
X98563659Y-56313659D01*
X98563659Y-56313659D02*
X97964644Y-56313659D01*
X99180644Y-61206259D02*
X99180644Y-56930644D01*
X106438044Y-68463659D02*
X99180644Y-61206259D01*
%TO.N,blue_chipOut*%
X96500000Y-58500000D02*
X97416341Y-57583659D01*
X96500000Y-66250000D02*
X96500000Y-58500000D01*
X98713659Y-68463659D02*
X96500000Y-66250000D01*
X97416341Y-57583659D02*
X97964644Y-57583659D01*
X101188044Y-68463659D02*
X98713659Y-68463659D01*
%TO.N,blue*%
X107438044Y-75188044D02*
X107438044Y-75948659D01*
X103000000Y-67735615D02*
X103000000Y-70750000D01*
X101188044Y-65923659D02*
X103000000Y-67735615D01*
X103000000Y-70750000D02*
X107438044Y-75188044D01*
%TO.N,Net-(IC1-VDD)*%
X104000000Y-54955103D02*
X103911444Y-55043659D01*
X104000000Y-53575000D02*
X104000000Y-54955103D01*
X103950000Y-53525000D02*
X104000000Y-53575000D01*
X102000000Y-53525000D02*
X103950000Y-53525000D01*
%TO.N,GND*%
X118208044Y-93898659D02*
X118208044Y-94958044D01*
X97964644Y-60964644D02*
X98000000Y-61000000D01*
X114708044Y-98208044D02*
X114750000Y-98250000D01*
X106948044Y-104148659D02*
X106948044Y-105051956D01*
X106948044Y-105051956D02*
X106750000Y-105250000D01*
X110155000Y-58655000D02*
X110000000Y-58500000D01*
X121398659Y-91648659D02*
X121250000Y-91500000D01*
X122300000Y-57000000D02*
X123750000Y-57000000D01*
X110698044Y-100348659D02*
X110698044Y-101551956D01*
X101601341Y-108148659D02*
X101500000Y-108250000D01*
X110698044Y-101551956D02*
X110500000Y-101750000D01*
X97964644Y-58853659D02*
X97964644Y-60964644D01*
X112276600Y-58655000D02*
X110155000Y-58655000D01*
X102000000Y-51975000D02*
X100775000Y-51975000D01*
X100775000Y-51975000D02*
X100250000Y-52500000D01*
X103198044Y-108148659D02*
X101601341Y-108148659D01*
X122948044Y-91648659D02*
X121398659Y-91648659D01*
X114708044Y-96898659D02*
X114708044Y-98208044D01*
X118208044Y-94958044D02*
X118250000Y-95000000D01*
%TO.N,Net-(IC2-VDD)*%
X120750000Y-57000000D02*
X120750000Y-55075000D01*
X118378400Y-55000000D02*
X118223400Y-54845000D01*
X120675000Y-55000000D02*
X118378400Y-55000000D01*
X120750000Y-55075000D02*
X120675000Y-55000000D01*
%TO.N,red*%
X117188044Y-95948659D02*
X121188044Y-95948659D01*
X121188044Y-95948659D02*
X123389944Y-93746759D01*
X127663744Y-93848659D02*
X127765644Y-93746759D01*
%TO.N,blue*%
X127730044Y-90698659D02*
X127778144Y-90746759D01*
X107438044Y-75948659D02*
X139688044Y-75948659D01*
X125428044Y-90698659D02*
X127730044Y-90698659D01*
%TO.N,Net-(IC1-DIN)*%
X103911444Y-57583659D02*
X105181444Y-57583659D01*
X106500000Y-56265103D02*
X106500000Y-53250000D01*
X105181444Y-57583659D02*
X106500000Y-56265103D01*
%TO.N,DOI*%
X106853659Y-58853659D02*
X109250000Y-61250000D01*
X103911444Y-58853659D02*
X103181244Y-58853659D01*
X103911444Y-58853659D02*
X106853659Y-58853659D01*
%TO.N,purple_chipOut*%
X120688044Y-68238659D02*
X120688044Y-68292794D01*
%TO.N,purple*%
X109428044Y-103198659D02*
X116938044Y-103198659D01*
X123389944Y-96746759D02*
X127765644Y-96746759D01*
%TO.N,yellow*%
X123889944Y-98246759D02*
X127765644Y-98246759D01*
X105678044Y-107198659D02*
X114938044Y-107198659D01*
%TO.N,DO*%
X118318400Y-58750000D02*
X118223400Y-58655000D01*
X121250000Y-58750000D02*
X118318400Y-58750000D01*
%TO.N,5vIN*%
X105425000Y-51925000D02*
X105500000Y-52000000D01*
X122325000Y-55000000D02*
X124250000Y-55000000D01*
X104000000Y-51925000D02*
X105425000Y-51925000D01*
%TO.N,DIN*%
X105971000Y-51071000D02*
X108150000Y-53250000D01*
X95750000Y-110316703D02*
X95750000Y-55500000D01*
X93788044Y-112278659D02*
X95750000Y-110316703D01*
X95750000Y-55500000D02*
X100179000Y-51071000D01*
X100179000Y-51071000D02*
X105971000Y-51071000D01*
%TO.N,yellow_chipOut*%
X109750000Y-56128400D02*
X109750000Y-52250000D01*
X129416000Y-55913474D02*
X129416000Y-61640703D01*
X109750000Y-52250000D02*
X125752527Y-52250000D01*
X112276600Y-57385000D02*
X111006600Y-57385000D01*
X125752527Y-52250000D02*
X129416000Y-55913474D01*
X111006600Y-57385000D02*
X109750000Y-56128400D01*
%TO.N,white_chipOut*%
X112276600Y-54845000D02*
X112276600Y-53526600D01*
X112276600Y-53526600D02*
X112250000Y-53500000D01*
%TO.N,purple_chipOut*%
X116458000Y-53292000D02*
X125793263Y-53292000D01*
X125793263Y-53292000D02*
X128708000Y-56206737D01*
X112276600Y-56115000D02*
X113635000Y-56115000D01*
X128708000Y-56206737D02*
X128708000Y-59036703D01*
X113635000Y-56115000D02*
X116458000Y-53292000D01*
%TO.N,Net-(IC2-DIN)*%
X110900000Y-61250000D02*
X113628200Y-61250000D01*
X117493200Y-57385000D02*
X118223400Y-57385000D01*
X113628200Y-61250000D02*
X117493200Y-57385000D01*
%TO.N,Net-(JP1-B)*%
X113500000Y-90500000D02*
X114250000Y-89750000D01*
X113500000Y-91500000D02*
X113500000Y-90500000D01*
X111188044Y-71438044D02*
X113000000Y-73250000D01*
X111188044Y-70738659D02*
X111188044Y-71438044D01*
%TO.N,Net-(JP2-B)*%
X118938044Y-87834044D02*
X117354000Y-86250000D01*
X106438044Y-72188044D02*
X107750000Y-73500000D01*
X106438044Y-71003659D02*
X106438044Y-72188044D01*
X118938044Y-88798659D02*
X118938044Y-87834044D01*
%TO.N,Net-(JP3-B)*%
X101188044Y-71003659D02*
X107684385Y-77500000D01*
X107684385Y-77500000D02*
X122500000Y-77500000D01*
X122500000Y-77500000D02*
X124113044Y-79113044D01*
X124113044Y-79113044D02*
X124113044Y-86623659D01*
%TO.N,Net-(JP4-B)*%
X116138044Y-70888044D02*
X118500000Y-73250000D01*
X109000000Y-95610615D02*
X109013044Y-95623659D01*
X116138044Y-70778659D02*
X116138044Y-70888044D01*
X109000000Y-93500000D02*
X109000000Y-95610615D01*
%TO.N,Net-(JP5-B)*%
X102886703Y-103000000D02*
X102688044Y-103198659D01*
X104750000Y-103000000D02*
X102886703Y-103000000D01*
X127448659Y-70948659D02*
X128000000Y-71500000D01*
X125188044Y-70948659D02*
X127448659Y-70948659D01*
%TO.N,Net-(JP6-B)*%
X120778659Y-70778659D02*
X122500000Y-72500000D01*
X120688044Y-70778659D02*
X120778659Y-70778659D01*
X106000000Y-99236703D02*
X105938044Y-99298659D01*
X106000000Y-98000000D02*
X106000000Y-99236703D01*
D26*
%TO.N,Net-(Q1-G)*%
X114708044Y-94358044D02*
X113500000Y-93150000D01*
X114188044Y-94478659D02*
X114708044Y-94998659D01*
X114408044Y-94698659D02*
X114708044Y-94998659D01*
X114708044Y-94998659D02*
X114708044Y-94358044D01*
X112688044Y-94698659D02*
X114408044Y-94698659D01*
%TO.N,Net-(Q2-G)*%
X118938044Y-91268659D02*
X118208044Y-91998659D01*
X118938044Y-90448659D02*
X118938044Y-91268659D01*
X117188044Y-90978659D02*
X118208044Y-91998659D01*
X117188044Y-90198659D02*
X117188044Y-90978659D01*
%TO.N,Net-(Q3-G)*%
X122338044Y-89138659D02*
X122948044Y-89748659D01*
X122338044Y-88448659D02*
X122338044Y-89138659D01*
X124113044Y-88273659D02*
X122513044Y-88273659D01*
X122513044Y-88273659D02*
X122338044Y-88448659D01*
%TO.N,Net-(Q4-G)*%
X109088044Y-98948659D02*
X109088044Y-97348659D01*
X109013044Y-97273659D02*
X109523044Y-97273659D01*
X109523044Y-97273659D02*
X110698044Y-98448659D01*
X109088044Y-97348659D02*
X109013044Y-97273659D01*
%TO.N,Net-(Q5-G)*%
X102998044Y-106448659D02*
X103198044Y-106248659D01*
X101013044Y-106448659D02*
X102998044Y-106448659D01*
X102688044Y-105738659D02*
X103198044Y-106248659D01*
X102688044Y-104848659D02*
X102688044Y-105738659D01*
D25*
%TO.N,Net-(Q6-G)*%
X104438044Y-101448659D02*
X105438044Y-101448659D01*
X106948044Y-101958659D02*
X105938044Y-100948659D01*
X105438044Y-101448659D02*
X105938044Y-100948659D01*
X106948044Y-102248659D02*
X106948044Y-101958659D01*
%TD*%
%TA.AperFunction,Conductor*%
%TO.N,5vIN*%
G36*
X142510878Y-80057941D02*
G01*
X142566811Y-80099813D01*
X142591228Y-80165277D01*
X142591544Y-80174123D01*
X142591544Y-98428756D01*
X142571859Y-98495795D01*
X142555225Y-98516437D01*
X142095481Y-98976181D01*
X142034158Y-99009666D01*
X142007800Y-99012500D01*
X141998964Y-99012500D01*
X141931925Y-98992815D01*
X141886170Y-98940011D01*
X141876226Y-98870853D01*
X141892847Y-98824350D01*
X141946163Y-98736154D01*
X141996734Y-98573865D01*
X142003144Y-98503331D01*
X142003144Y-98496759D01*
X140364644Y-98496759D01*
X140297605Y-98477074D01*
X140251850Y-98424270D01*
X140240644Y-98372759D01*
X140240644Y-96996759D01*
X140740644Y-96996759D01*
X140740644Y-97996759D01*
X142003143Y-97996759D01*
X142003143Y-97990176D01*
X141996735Y-97919656D01*
X141996734Y-97919651D01*
X141946162Y-97757362D01*
X141858217Y-97611883D01*
X141830775Y-97584442D01*
X141797289Y-97523119D01*
X141802273Y-97453427D01*
X141830775Y-97409076D01*
X141858217Y-97381634D01*
X141946163Y-97236154D01*
X141996734Y-97073865D01*
X142003144Y-97003331D01*
X142003144Y-96996759D01*
X140740644Y-96996759D01*
X140240644Y-96996759D01*
X140240644Y-95496759D01*
X140740644Y-95496759D01*
X140740644Y-96496759D01*
X142003143Y-96496759D01*
X142003143Y-96490176D01*
X141996735Y-96419656D01*
X141996734Y-96419651D01*
X141946162Y-96257362D01*
X141858217Y-96111883D01*
X141830775Y-96084442D01*
X141797289Y-96023119D01*
X141802273Y-95953427D01*
X141830775Y-95909076D01*
X141858217Y-95881634D01*
X141946163Y-95736154D01*
X141996734Y-95573865D01*
X142003144Y-95503331D01*
X142003144Y-95496759D01*
X140740644Y-95496759D01*
X140240644Y-95496759D01*
X140240644Y-93996759D01*
X140740644Y-93996759D01*
X140740644Y-94996759D01*
X142003143Y-94996759D01*
X142003143Y-94990176D01*
X141996735Y-94919656D01*
X141996734Y-94919651D01*
X141946162Y-94757362D01*
X141858217Y-94611883D01*
X141830775Y-94584442D01*
X141797289Y-94523119D01*
X141802273Y-94453427D01*
X141830775Y-94409076D01*
X141858217Y-94381634D01*
X141946163Y-94236154D01*
X141996734Y-94073865D01*
X142003144Y-94003331D01*
X142003144Y-93996759D01*
X140740644Y-93996759D01*
X140240644Y-93996759D01*
X140240644Y-92496759D01*
X140740644Y-92496759D01*
X140740644Y-93496759D01*
X142003143Y-93496759D01*
X142003143Y-93490176D01*
X141996735Y-93419656D01*
X141996734Y-93419651D01*
X141946162Y-93257362D01*
X141858217Y-93111883D01*
X141830775Y-93084442D01*
X141797289Y-93023119D01*
X141802273Y-92953427D01*
X141830775Y-92909076D01*
X141858217Y-92881634D01*
X141946163Y-92736154D01*
X141996734Y-92573865D01*
X142003144Y-92503331D01*
X142003144Y-92496759D01*
X140740644Y-92496759D01*
X140240644Y-92496759D01*
X140240644Y-91669956D01*
X140230978Y-91652255D01*
X140228144Y-91625897D01*
X140228144Y-90996759D01*
X140728144Y-90996759D01*
X140728144Y-91323561D01*
X140737810Y-91341263D01*
X140740644Y-91367621D01*
X140740644Y-91996759D01*
X142003143Y-91996759D01*
X142003143Y-91990176D01*
X141996735Y-91919656D01*
X141996734Y-91919651D01*
X141946162Y-91757362D01*
X141858216Y-91611881D01*
X141818274Y-91571939D01*
X141784789Y-91510616D01*
X141789773Y-91440924D01*
X141818278Y-91396572D01*
X141833218Y-91381633D01*
X141921163Y-91236154D01*
X141971734Y-91073865D01*
X141978144Y-91003331D01*
X141978144Y-90996759D01*
X140728144Y-90996759D01*
X140228144Y-90996759D01*
X140228144Y-89846759D01*
X140728144Y-89846759D01*
X140728144Y-90496759D01*
X141978143Y-90496759D01*
X141978143Y-90490176D01*
X141971735Y-90419656D01*
X141971734Y-90419651D01*
X141921162Y-90257362D01*
X141833216Y-90111881D01*
X141713021Y-89991686D01*
X141567539Y-89903739D01*
X141567540Y-89903739D01*
X141405249Y-89853168D01*
X141405250Y-89853168D01*
X141334716Y-89846759D01*
X140728144Y-89846759D01*
X140228144Y-89846759D01*
X139621561Y-89846759D01*
X139551041Y-89853167D01*
X139551036Y-89853168D01*
X139388747Y-89903740D01*
X139243266Y-89991686D01*
X139243265Y-89991687D01*
X139222181Y-90012772D01*
X139160858Y-90046257D01*
X139091166Y-90041273D01*
X139035233Y-89999401D01*
X139010816Y-89933937D01*
X139010500Y-89925091D01*
X139010500Y-89745651D01*
X139004349Y-89739500D01*
X133026167Y-89739500D01*
X132959128Y-89719815D01*
X132913373Y-89667011D01*
X132903429Y-89597853D01*
X132932454Y-89534297D01*
X132938486Y-89527819D01*
X142379863Y-80086442D01*
X142441186Y-80052957D01*
X142510878Y-80057941D01*
G37*
%TD.AperFunction*%
%TA.AperFunction,Conductor*%
G36*
X125493102Y-54074185D02*
G01*
X125513744Y-54090819D01*
X127909181Y-56486256D01*
X127942666Y-56547579D01*
X127945500Y-56573937D01*
X127945500Y-58150203D01*
X127925815Y-58217242D01*
X127873011Y-58262997D01*
X127821500Y-58274203D01*
X124888195Y-58274203D01*
X124740889Y-58303504D01*
X124740883Y-58303506D01*
X124602120Y-58360983D01*
X124602111Y-58360988D01*
X124477232Y-58444430D01*
X124477228Y-58444433D01*
X118791775Y-64129885D01*
X118791772Y-64129888D01*
X118742600Y-64203479D01*
X118742601Y-64203480D01*
X118708325Y-64254778D01*
X118650847Y-64393542D01*
X118650845Y-64393548D01*
X118621544Y-64540853D01*
X118621544Y-66804459D01*
X118601859Y-66871498D01*
X118549055Y-66917253D01*
X118479897Y-66927197D01*
X118416341Y-66898172D01*
X118409863Y-66892140D01*
X117532863Y-66015140D01*
X117499378Y-65953817D01*
X117496544Y-65927459D01*
X117496544Y-64800021D01*
X117496543Y-64800004D01*
X117493201Y-64768929D01*
X117490033Y-64739458D01*
X117438933Y-64602455D01*
X117351305Y-64485398D01*
X117234248Y-64397770D01*
X117097247Y-64346670D01*
X117036698Y-64340159D01*
X117036682Y-64340159D01*
X115239406Y-64340159D01*
X115239389Y-64340159D01*
X115178841Y-64346670D01*
X115178839Y-64346670D01*
X115041839Y-64397770D01*
X114924783Y-64485398D01*
X114837155Y-64602454D01*
X114786055Y-64739454D01*
X114786055Y-64739456D01*
X114779544Y-64800004D01*
X114779544Y-66597313D01*
X114786055Y-66657861D01*
X114786055Y-66657863D01*
X114822085Y-66754459D01*
X114837155Y-66794863D01*
X114924783Y-66911920D01*
X115041840Y-66999548D01*
X115093781Y-67018921D01*
X115159639Y-67043486D01*
X115215572Y-67085358D01*
X115239988Y-67150822D01*
X115225136Y-67219095D01*
X115207534Y-67243650D01*
X115062323Y-67401389D01*
X115062320Y-67401393D01*
X114939184Y-67589866D01*
X114848747Y-67796044D01*
X114793480Y-68014287D01*
X114793478Y-68014299D01*
X114774888Y-68238653D01*
X114774888Y-68238664D01*
X114793478Y-68463018D01*
X114793480Y-68463030D01*
X114848747Y-68681273D01*
X114939184Y-68887451D01*
X115062320Y-69075924D01*
X115062328Y-69075935D01*
X115214800Y-69241561D01*
X115214805Y-69241566D01*
X115239126Y-69260496D01*
X115392468Y-69379848D01*
X115392473Y-69379850D01*
X115392475Y-69379852D01*
X115428974Y-69399605D01*
X115478564Y-69448824D01*
X115493672Y-69517041D01*
X115469501Y-69582596D01*
X115428974Y-69617713D01*
X115392475Y-69637465D01*
X115392466Y-69637471D01*
X115214805Y-69775751D01*
X115214800Y-69775756D01*
X115062328Y-69941382D01*
X115062320Y-69941393D01*
X114939184Y-70129866D01*
X114848747Y-70336045D01*
X114848744Y-70336053D01*
X114812404Y-70479556D01*
X114776865Y-70539711D01*
X114714444Y-70571103D01*
X114644961Y-70563765D01*
X114604518Y-70536796D01*
X114013478Y-69945756D01*
X113290863Y-69223140D01*
X113257378Y-69161817D01*
X113254544Y-69135459D01*
X113254544Y-66887556D01*
X113225242Y-66740251D01*
X113225241Y-66740250D01*
X113225241Y-66740246D01*
X113167762Y-66601480D01*
X113138240Y-66557297D01*
X113084316Y-66476593D01*
X113084314Y-66476590D01*
X112582863Y-65975139D01*
X112549378Y-65913816D01*
X112546544Y-65887458D01*
X112546544Y-64760021D01*
X112546543Y-64760004D01*
X112541209Y-64710398D01*
X112540033Y-64699458D01*
X112488933Y-64562455D01*
X112401305Y-64445398D01*
X112284248Y-64357770D01*
X112254488Y-64346670D01*
X112147247Y-64306670D01*
X112086698Y-64300159D01*
X112086682Y-64300159D01*
X110289406Y-64300159D01*
X110289389Y-64300159D01*
X110228841Y-64306670D01*
X110228839Y-64306670D01*
X110091839Y-64357770D01*
X109974783Y-64445398D01*
X109887155Y-64562454D01*
X109836055Y-64699454D01*
X109836055Y-64699456D01*
X109829544Y-64760004D01*
X109829544Y-65462459D01*
X109809859Y-65529498D01*
X109757055Y-65575253D01*
X109687897Y-65585197D01*
X109624341Y-65556172D01*
X109617863Y-65550140D01*
X103971763Y-59904040D01*
X103938278Y-59842717D01*
X103943262Y-59773025D01*
X103985134Y-59717092D01*
X104050598Y-59692675D01*
X104059444Y-59692359D01*
X104722082Y-59692359D01*
X104722098Y-59692358D01*
X104749136Y-59689450D01*
X104782645Y-59685848D01*
X104919648Y-59634748D01*
X104919652Y-59634744D01*
X104925919Y-59631324D01*
X104985341Y-59616159D01*
X106486459Y-59616159D01*
X106553498Y-59635844D01*
X106574140Y-59652478D01*
X108305181Y-61383519D01*
X108338666Y-61444842D01*
X108341500Y-61471199D01*
X108341500Y-61582272D01*
X108347985Y-61653645D01*
X108347988Y-61653655D01*
X108399171Y-61817909D01*
X108399172Y-61817911D01*
X108399173Y-61817913D01*
X108482751Y-61956168D01*
X108488186Y-61965158D01*
X108609841Y-62086813D01*
X108609843Y-62086814D01*
X108609845Y-62086816D01*
X108757087Y-62175827D01*
X108921351Y-62227013D01*
X108992735Y-62233500D01*
X109507264Y-62233499D01*
X109507272Y-62233499D01*
X109578645Y-62227014D01*
X109578648Y-62227013D01*
X109578649Y-62227013D01*
X109742913Y-62175827D01*
X109890155Y-62086816D01*
X109928151Y-62048820D01*
X109987319Y-61989653D01*
X110048642Y-61956168D01*
X110118334Y-61961152D01*
X110162681Y-61989653D01*
X110259841Y-62086813D01*
X110259843Y-62086814D01*
X110259845Y-62086816D01*
X110407087Y-62175827D01*
X110571351Y-62227013D01*
X110642735Y-62233500D01*
X111157264Y-62233499D01*
X111157272Y-62233499D01*
X111228645Y-62227014D01*
X111228648Y-62227013D01*
X111228649Y-62227013D01*
X111392913Y-62175827D01*
X111540155Y-62086816D01*
X111578151Y-62048820D01*
X111639474Y-62015334D01*
X111665833Y-62012500D01*
X113703302Y-62012500D01*
X113818157Y-61989653D01*
X113850613Y-61983197D01*
X113989379Y-61925718D01*
X114015148Y-61908500D01*
X114114265Y-61842273D01*
X116796553Y-59159983D01*
X116857874Y-59126500D01*
X116927565Y-59131484D01*
X116983499Y-59173356D01*
X117000413Y-59204331D01*
X117010511Y-59231404D01*
X117098139Y-59348461D01*
X117215196Y-59436089D01*
X117352199Y-59487189D01*
X117379450Y-59490118D01*
X117412745Y-59493699D01*
X117412762Y-59493700D01*
X118136576Y-59493700D01*
X118160768Y-59496083D01*
X118243298Y-59512500D01*
X118243300Y-59512500D01*
X120713568Y-59512500D01*
X120780607Y-59532185D01*
X120786452Y-59536181D01*
X120793244Y-59541115D01*
X120793243Y-59541115D01*
X120793245Y-59541116D01*
X120793248Y-59541118D01*
X120967712Y-59618794D01*
X121154513Y-59658500D01*
X121345487Y-59658500D01*
X121532288Y-59618794D01*
X121706752Y-59541118D01*
X121861253Y-59428866D01*
X121989040Y-59286944D01*
X122084527Y-59121556D01*
X122143542Y-58939928D01*
X122163504Y-58750000D01*
X122143542Y-58560072D01*
X122088355Y-58390225D01*
X122084529Y-58378450D01*
X122084528Y-58378449D01*
X122084527Y-58378444D01*
X121989040Y-58213056D01*
X121968703Y-58190470D01*
X121938475Y-58127481D01*
X121947100Y-58058146D01*
X121991841Y-58004480D01*
X122058494Y-57983522D01*
X122060855Y-57983500D01*
X122573867Y-57983500D01*
X122573872Y-57983500D01*
X122674336Y-57973236D01*
X122837101Y-57919302D01*
X122983040Y-57829285D01*
X123013506Y-57798819D01*
X123074829Y-57765334D01*
X123101187Y-57762500D01*
X123213568Y-57762500D01*
X123280607Y-57782185D01*
X123286452Y-57786181D01*
X123293244Y-57791115D01*
X123293243Y-57791115D01*
X123293245Y-57791116D01*
X123293248Y-57791118D01*
X123467712Y-57868794D01*
X123654513Y-57908500D01*
X123845487Y-57908500D01*
X124032288Y-57868794D01*
X124206752Y-57791118D01*
X124361253Y-57678866D01*
X124489040Y-57536944D01*
X124584527Y-57371556D01*
X124643542Y-57189928D01*
X124663504Y-57000000D01*
X124643542Y-56810072D01*
X124584527Y-56628444D01*
X124489040Y-56463056D01*
X124361253Y-56321134D01*
X124206752Y-56208882D01*
X124032288Y-56131206D01*
X124032286Y-56131205D01*
X123845487Y-56091500D01*
X123654513Y-56091500D01*
X123467714Y-56131205D01*
X123467712Y-56131206D01*
X123300937Y-56205459D01*
X123293244Y-56208884D01*
X123286452Y-56213819D01*
X123220645Y-56237298D01*
X123213568Y-56237500D01*
X123101187Y-56237500D01*
X123034148Y-56217815D01*
X123013506Y-56201181D01*
X122983040Y-56170715D01*
X122983036Y-56170712D01*
X122865495Y-56098211D01*
X122818770Y-56046263D01*
X122807549Y-55977300D01*
X122835392Y-55913218D01*
X122866442Y-55886556D01*
X122959877Y-55830072D01*
X123080072Y-55709877D01*
X123168019Y-55564395D01*
X123218590Y-55402106D01*
X123225000Y-55331572D01*
X123225000Y-55250000D01*
X122199000Y-55250000D01*
X122131961Y-55230315D01*
X122086206Y-55177511D01*
X122075000Y-55126000D01*
X122075000Y-54874000D01*
X122094685Y-54806961D01*
X122147489Y-54761206D01*
X122199000Y-54750000D01*
X123224999Y-54750000D01*
X123224999Y-54668417D01*
X123218591Y-54597897D01*
X123218590Y-54597892D01*
X123168018Y-54435603D01*
X123080072Y-54290122D01*
X123056131Y-54266181D01*
X123022646Y-54204858D01*
X123027630Y-54135166D01*
X123069502Y-54079233D01*
X123134966Y-54054816D01*
X123143812Y-54054500D01*
X125426063Y-54054500D01*
X125493102Y-54074185D01*
G37*
%TD.AperFunction*%
%TA.AperFunction,Conductor*%
G36*
X105670839Y-51853185D02*
G01*
X105691481Y-51869819D01*
X105981643Y-52159981D01*
X106015128Y-52221304D01*
X106010144Y-52290996D01*
X105968272Y-52346929D01*
X105958113Y-52353778D01*
X105859844Y-52413184D01*
X105859840Y-52413187D01*
X105738186Y-52534841D01*
X105649173Y-52682086D01*
X105597986Y-52846354D01*
X105591500Y-52917737D01*
X105591500Y-53582272D01*
X105597985Y-53653645D01*
X105597988Y-53653655D01*
X105649171Y-53817909D01*
X105649172Y-53817911D01*
X105649173Y-53817913D01*
X105719617Y-53934441D01*
X105737500Y-53998590D01*
X105737500Y-55897903D01*
X105717815Y-55964942D01*
X105701181Y-55985584D01*
X105393625Y-56293140D01*
X105332302Y-56326625D01*
X105262610Y-56321641D01*
X105206677Y-56279769D01*
X105182260Y-56214305D01*
X105181944Y-56205459D01*
X105181944Y-55934821D01*
X105181943Y-55934804D01*
X105175650Y-55876280D01*
X105175433Y-55874258D01*
X105175431Y-55874254D01*
X105175431Y-55874251D01*
X105121234Y-55728945D01*
X105122680Y-55728405D01*
X105109935Y-55669812D01*
X105122016Y-55628664D01*
X105121234Y-55628373D01*
X105175431Y-55483066D01*
X105175432Y-55483063D01*
X105175433Y-55483060D01*
X105179035Y-55449551D01*
X105181943Y-55422513D01*
X105181944Y-55422496D01*
X105181944Y-54664821D01*
X105181943Y-54664804D01*
X105178601Y-54633729D01*
X105175433Y-54604258D01*
X105175430Y-54604251D01*
X105130392Y-54483500D01*
X105124333Y-54467255D01*
X105036705Y-54350198D01*
X104932795Y-54272411D01*
X104890925Y-54216479D01*
X104885941Y-54146788D01*
X104900987Y-54109001D01*
X104925827Y-54067913D01*
X104977013Y-53903649D01*
X104983500Y-53832265D01*
X104983499Y-53317736D01*
X104983499Y-53317727D01*
X104977014Y-53246354D01*
X104977011Y-53246344D01*
X104925828Y-53082090D01*
X104925827Y-53082089D01*
X104925827Y-53082087D01*
X104836816Y-52934845D01*
X104836814Y-52934843D01*
X104836813Y-52934841D01*
X104733641Y-52831669D01*
X104700156Y-52770346D01*
X104705140Y-52700654D01*
X104733642Y-52656306D01*
X104830071Y-52559878D01*
X104830072Y-52559877D01*
X104918019Y-52414395D01*
X104968590Y-52252106D01*
X104975000Y-52181572D01*
X104975000Y-52175000D01*
X103874000Y-52175000D01*
X103806961Y-52155315D01*
X103761206Y-52102511D01*
X103750000Y-52051000D01*
X103750000Y-51957500D01*
X103769685Y-51890461D01*
X103822489Y-51844706D01*
X103874000Y-51833500D01*
X105603800Y-51833500D01*
X105670839Y-51853185D01*
G37*
%TD.AperFunction*%
%TA.AperFunction,Conductor*%
G36*
X177960863Y-46230071D02*
G01*
X177971144Y-46230502D01*
X178331448Y-46260669D01*
X178350223Y-46262241D01*
X178360979Y-46263618D01*
X178735635Y-46328317D01*
X178746211Y-46330623D01*
X179113820Y-46427814D01*
X179124135Y-46431030D01*
X179481853Y-46559965D01*
X179491856Y-46564073D01*
X179836947Y-46723768D01*
X179846538Y-46728727D01*
X179966763Y-46797705D01*
X180176340Y-46917948D01*
X180185499Y-46923750D01*
X180497495Y-47141047D01*
X180506106Y-47147621D01*
X180624861Y-47246803D01*
X180797936Y-47391353D01*
X180805946Y-47398661D01*
X181075352Y-47666939D01*
X181082694Y-47674919D01*
X181327638Y-47965714D01*
X181334254Y-47974304D01*
X181552863Y-48285391D01*
X181558703Y-48294527D01*
X181749292Y-48623510D01*
X181754312Y-48633121D01*
X181915436Y-48977501D01*
X181919597Y-48987514D01*
X182050019Y-49344653D01*
X182053290Y-49354990D01*
X182152014Y-49722157D01*
X182154369Y-49732742D01*
X182220641Y-50107135D01*
X182222062Y-50117884D01*
X182255364Y-50496521D01*
X182255841Y-50507384D01*
X182256627Y-138496451D01*
X182256195Y-138506795D01*
X182224468Y-138885832D01*
X182223092Y-138896588D01*
X182158397Y-139271265D01*
X182156086Y-139281859D01*
X182058909Y-139649435D01*
X182055682Y-139659787D01*
X181926762Y-140017479D01*
X181922643Y-140027509D01*
X181762972Y-140372564D01*
X181757993Y-140382196D01*
X181568780Y-140711993D01*
X181562978Y-140721153D01*
X181345686Y-141033148D01*
X181339106Y-141041767D01*
X181095377Y-141333600D01*
X181088069Y-141341610D01*
X180819790Y-141611022D01*
X180811810Y-141618364D01*
X180521014Y-141863315D01*
X180512424Y-141869931D01*
X180201344Y-142088539D01*
X180192208Y-142094380D01*
X179863214Y-142284979D01*
X179853603Y-142289999D01*
X179509217Y-142451127D01*
X179499204Y-142455288D01*
X179142069Y-142585712D01*
X179131731Y-142588983D01*
X178764555Y-142687710D01*
X178753971Y-142690065D01*
X178379574Y-142756338D01*
X178368824Y-142757759D01*
X177991128Y-142790979D01*
X177980265Y-142791456D01*
X90990250Y-142792242D01*
X90979906Y-142791810D01*
X90600872Y-142760083D01*
X90590116Y-142758707D01*
X90215442Y-142694012D01*
X90204853Y-142691702D01*
X89974117Y-142630702D01*
X89837274Y-142594524D01*
X89826923Y-142591297D01*
X89469238Y-142462378D01*
X89459207Y-142458259D01*
X89114144Y-142298581D01*
X89104512Y-142293601D01*
X88774727Y-142104393D01*
X88765567Y-142098591D01*
X88453575Y-141881298D01*
X88444956Y-141874718D01*
X88439224Y-141869931D01*
X88153127Y-141630988D01*
X88145117Y-141623680D01*
X87875710Y-141355401D01*
X87868368Y-141347421D01*
X87623418Y-141056619D01*
X87616802Y-141048028D01*
X87398201Y-140736950D01*
X87392361Y-140727815D01*
X87201772Y-140398828D01*
X87196751Y-140389216D01*
X87035628Y-140044829D01*
X87031467Y-140034817D01*
X86901043Y-139677665D01*
X86897773Y-139667326D01*
X86850479Y-139491424D01*
X86799052Y-139300151D01*
X86796701Y-139289581D01*
X86795334Y-139281859D01*
X86730434Y-138915181D01*
X86729014Y-138904436D01*
X86712589Y-138717653D01*
X86695724Y-138525865D01*
X86695248Y-138514980D01*
X86695251Y-138502172D01*
X86695820Y-136149945D01*
X122135544Y-136149945D01*
X122168797Y-136359898D01*
X122234488Y-136562073D01*
X122330995Y-136751479D01*
X122455934Y-136923445D01*
X122606257Y-137073768D01*
X122778223Y-137198707D01*
X122778225Y-137198708D01*
X122778228Y-137198710D01*
X122967632Y-137295216D01*
X123169801Y-137360905D01*
X123379757Y-137394159D01*
X123379758Y-137394159D01*
X123592330Y-137394159D01*
X123592331Y-137394159D01*
X123802287Y-137360905D01*
X124004456Y-137295216D01*
X124193860Y-137198710D01*
X124215833Y-137182745D01*
X124365830Y-137073768D01*
X124365832Y-137073765D01*
X124365836Y-137073763D01*
X124516148Y-136923451D01*
X124516150Y-136923447D01*
X124516153Y-136923445D01*
X124641092Y-136751479D01*
X124641091Y-136751479D01*
X124641095Y-136751475D01*
X124735524Y-136566147D01*
X132627644Y-136566147D01*
X132659305Y-136806644D01*
X132722091Y-137040963D01*
X132787431Y-137198707D01*
X132814920Y-137265071D01*
X132936208Y-137475148D01*
X132936210Y-137475151D01*
X132936211Y-137475152D01*
X133083877Y-137667595D01*
X133083883Y-137667602D01*
X133255400Y-137839119D01*
X133255406Y-137839124D01*
X133447855Y-137986795D01*
X133657932Y-138108083D01*
X133882044Y-138200913D01*
X134116355Y-138263697D01*
X134296730Y-138287443D01*
X134356855Y-138295359D01*
X134356856Y-138295359D01*
X134599433Y-138295359D01*
X134647532Y-138289026D01*
X134839933Y-138263697D01*
X135074244Y-138200913D01*
X135298356Y-138108083D01*
X135508433Y-137986795D01*
X135700882Y-137839124D01*
X135872409Y-137667597D01*
X136020080Y-137475148D01*
X136141368Y-137265071D01*
X136234198Y-137040959D01*
X136296982Y-136806648D01*
X136328644Y-136566147D01*
X136328644Y-136323571D01*
X136296982Y-136083070D01*
X136234198Y-135848759D01*
X136141368Y-135624647D01*
X136020080Y-135414570D01*
X135872409Y-135222121D01*
X135872404Y-135222115D01*
X135700887Y-135050598D01*
X135700880Y-135050592D01*
X135508437Y-134902926D01*
X135508436Y-134902925D01*
X135508433Y-134902923D01*
X135316487Y-134792103D01*
X135298358Y-134781636D01*
X135298349Y-134781632D01*
X135074248Y-134688806D01*
X134839929Y-134626020D01*
X134599433Y-134594359D01*
X134599432Y-134594359D01*
X134356856Y-134594359D01*
X134356855Y-134594359D01*
X134116358Y-134626020D01*
X133882039Y-134688806D01*
X133657938Y-134781632D01*
X133657929Y-134781636D01*
X133447850Y-134902926D01*
X133255407Y-135050592D01*
X133255400Y-135050598D01*
X133083883Y-135222115D01*
X133083877Y-135222122D01*
X132936211Y-135414565D01*
X132814921Y-135624644D01*
X132814917Y-135624653D01*
X132722091Y-135848754D01*
X132659305Y-136083073D01*
X132627644Y-136323570D01*
X132627644Y-136566147D01*
X124735524Y-136566147D01*
X124737601Y-136562071D01*
X124803290Y-136359902D01*
X124836544Y-136149946D01*
X124836544Y-135937372D01*
X124803290Y-135727416D01*
X124737601Y-135525247D01*
X124641095Y-135335843D01*
X124641093Y-135335840D01*
X124641092Y-135335838D01*
X124516153Y-135163872D01*
X124365830Y-135013549D01*
X124193864Y-134888610D01*
X124004458Y-134792103D01*
X124004457Y-134792102D01*
X124004456Y-134792102D01*
X123802287Y-134726413D01*
X123802285Y-134726412D01*
X123802284Y-134726412D01*
X123641001Y-134700867D01*
X123592331Y-134693159D01*
X123379757Y-134693159D01*
X123331086Y-134700867D01*
X123169804Y-134726412D01*
X122967629Y-134792103D01*
X122778223Y-134888610D01*
X122606257Y-135013549D01*
X122455934Y-135163872D01*
X122330995Y-135335838D01*
X122234488Y-135525244D01*
X122168797Y-135727419D01*
X122135544Y-135937372D01*
X122135544Y-136149945D01*
X86695820Y-136149945D01*
X86705869Y-94618047D01*
X91187544Y-94618047D01*
X91219205Y-94858544D01*
X91281991Y-95092863D01*
X91361742Y-95285398D01*
X91374820Y-95316971D01*
X91496108Y-95527048D01*
X91496110Y-95527051D01*
X91496111Y-95527052D01*
X91643777Y-95719495D01*
X91643783Y-95719502D01*
X91815300Y-95891019D01*
X91815306Y-95891024D01*
X92007755Y-96038695D01*
X92217832Y-96159983D01*
X92441944Y-96252813D01*
X92676255Y-96315597D01*
X92856630Y-96339343D01*
X92916755Y-96347259D01*
X92916756Y-96347259D01*
X93159333Y-96347259D01*
X93207432Y-96340926D01*
X93399833Y-96315597D01*
X93634144Y-96252813D01*
X93858256Y-96159983D01*
X94068333Y-96038695D01*
X94260782Y-95891024D01*
X94432309Y-95719497D01*
X94579980Y-95527048D01*
X94701268Y-95316971D01*
X94714346Y-95285398D01*
X94748939Y-95201884D01*
X94792780Y-95147480D01*
X94859074Y-95125415D01*
X94926773Y-95142694D01*
X94974384Y-95193831D01*
X94987500Y-95249336D01*
X94987500Y-108636734D01*
X94967815Y-108703773D01*
X94915011Y-108749528D01*
X94845853Y-108759472D01*
X94790615Y-108737052D01*
X94625056Y-108616767D01*
X94625055Y-108616766D01*
X94625053Y-108616765D01*
X94564013Y-108585663D01*
X94434527Y-108519686D01*
X94434524Y-108519685D01*
X94231161Y-108453610D01*
X94125560Y-108436884D01*
X94019960Y-108420159D01*
X93556128Y-108420159D01*
X93485728Y-108431309D01*
X93344926Y-108453610D01*
X93141563Y-108519685D01*
X93141560Y-108519686D01*
X92951034Y-108616765D01*
X92778037Y-108742455D01*
X92626840Y-108893652D01*
X92501150Y-109066649D01*
X92404071Y-109257175D01*
X92404070Y-109257178D01*
X92337995Y-109460541D01*
X92304544Y-109671743D01*
X92304544Y-109885574D01*
X92337995Y-110096776D01*
X92404070Y-110300139D01*
X92404071Y-110300142D01*
X92501150Y-110490668D01*
X92626838Y-110663663D01*
X92778040Y-110814865D01*
X92880388Y-110889225D01*
X92934226Y-110928341D01*
X92976891Y-110983671D01*
X92982870Y-111053285D01*
X92950264Y-111115080D01*
X92934226Y-111128977D01*
X92865341Y-111179024D01*
X92778040Y-111242453D01*
X92778038Y-111242455D01*
X92778037Y-111242455D01*
X92626840Y-111393652D01*
X92501150Y-111566649D01*
X92404071Y-111757175D01*
X92404070Y-111757178D01*
X92337995Y-111960541D01*
X92304544Y-112171743D01*
X92304544Y-112385574D01*
X92337995Y-112596776D01*
X92404070Y-112800139D01*
X92404071Y-112800142D01*
X92501150Y-112990668D01*
X92626838Y-113163663D01*
X92626840Y-113163665D01*
X92765114Y-113301939D01*
X92798599Y-113363262D01*
X92793615Y-113432954D01*
X92751743Y-113488887D01*
X92742530Y-113495158D01*
X92594703Y-113586339D01*
X92594699Y-113586342D01*
X92470728Y-113710313D01*
X92378687Y-113859534D01*
X92378685Y-113859539D01*
X92323538Y-114025961D01*
X92323537Y-114025968D01*
X92313044Y-114128672D01*
X92313044Y-114528659D01*
X93383898Y-114528659D01*
X93345414Y-114595316D01*
X93313044Y-114716124D01*
X93313044Y-114841194D01*
X93345414Y-114962002D01*
X93383898Y-115028659D01*
X92313045Y-115028659D01*
X92313045Y-115428645D01*
X92323538Y-115531356D01*
X92378685Y-115697778D01*
X92378687Y-115697783D01*
X92470728Y-115847004D01*
X92594698Y-115970974D01*
X92743919Y-116063015D01*
X92743924Y-116063017D01*
X92910346Y-116118164D01*
X92910353Y-116118165D01*
X93013063Y-116128658D01*
X93538043Y-116128658D01*
X93538044Y-116128657D01*
X93538044Y-115182804D01*
X93604701Y-115221289D01*
X93725509Y-115253659D01*
X93850579Y-115253659D01*
X93971387Y-115221289D01*
X94038044Y-115182804D01*
X94038044Y-116128658D01*
X94563016Y-116128658D01*
X94563030Y-116128657D01*
X94665741Y-116118164D01*
X94832163Y-116063017D01*
X94832168Y-116063015D01*
X94981389Y-115970974D01*
X95105359Y-115847004D01*
X95197400Y-115697783D01*
X95197402Y-115697778D01*
X95252549Y-115531356D01*
X95252550Y-115531349D01*
X95263043Y-115428645D01*
X95263044Y-115428632D01*
X95263044Y-115028659D01*
X94192190Y-115028659D01*
X94230674Y-114962002D01*
X94263044Y-114841194D01*
X94263044Y-114716124D01*
X94230674Y-114595316D01*
X94192190Y-114528659D01*
X95263043Y-114528659D01*
X95263043Y-114128687D01*
X95263042Y-114128672D01*
X95252549Y-114025961D01*
X95197402Y-113859539D01*
X95197400Y-113859534D01*
X95105359Y-113710313D01*
X94981388Y-113586342D01*
X94981384Y-113586339D01*
X94833557Y-113495158D01*
X94786832Y-113443210D01*
X94775611Y-113374248D01*
X94803454Y-113310166D01*
X94810951Y-113301961D01*
X94949250Y-113163663D01*
X95074938Y-112990668D01*
X95172016Y-112800142D01*
X95238093Y-112596775D01*
X95271544Y-112385575D01*
X95271544Y-112171743D01*
X95240648Y-111976676D01*
X95249602Y-111907385D01*
X95275437Y-111869602D01*
X96342273Y-110802768D01*
X96425718Y-110677882D01*
X96483197Y-110539116D01*
X96512500Y-110391803D01*
X96512500Y-110241603D01*
X96512500Y-106698659D01*
X98463045Y-106698659D01*
X98463045Y-106780241D01*
X98469452Y-106850761D01*
X98469453Y-106850766D01*
X98520025Y-107013055D01*
X98607971Y-107158536D01*
X98728166Y-107278731D01*
X98873648Y-107366678D01*
X98873647Y-107366678D01*
X99035938Y-107417249D01*
X99035937Y-107417249D01*
X99106452Y-107423657D01*
X99106470Y-107423658D01*
X99613044Y-107423658D01*
X99619625Y-107423658D01*
X99690146Y-107417250D01*
X99690151Y-107417249D01*
X99852440Y-107366677D01*
X99997921Y-107278731D01*
X99997922Y-107278730D01*
X100094350Y-107182301D01*
X100155673Y-107148815D01*
X100225364Y-107153799D01*
X100269713Y-107182300D01*
X100372885Y-107285472D01*
X100372887Y-107285473D01*
X100372889Y-107285475D01*
X100520131Y-107374486D01*
X100684395Y-107425672D01*
X100747713Y-107431426D01*
X100812694Y-107457095D01*
X100853483Y-107513823D01*
X100857127Y-107583597D01*
X100828641Y-107637887D01*
X100760959Y-107713057D01*
X100665473Y-107878443D01*
X100665470Y-107878450D01*
X100606459Y-108060068D01*
X100606458Y-108060072D01*
X100586496Y-108250000D01*
X100606458Y-108439928D01*
X100606459Y-108439931D01*
X100665470Y-108621549D01*
X100665473Y-108621556D01*
X100760960Y-108786944D01*
X100857040Y-108893652D01*
X100872803Y-108911159D01*
X100888747Y-108928866D01*
X101043248Y-109041118D01*
X101217712Y-109118794D01*
X101404513Y-109158500D01*
X101595487Y-109158500D01*
X101782288Y-109118794D01*
X101956752Y-109041118D01*
X102103030Y-108934840D01*
X102168834Y-108911361D01*
X102175914Y-108911159D01*
X102425597Y-108911159D01*
X102468931Y-108918977D01*
X102553842Y-108950648D01*
X102614389Y-108957158D01*
X102614406Y-108957159D01*
X103781682Y-108957159D01*
X103781698Y-108957158D01*
X103808736Y-108954250D01*
X103842245Y-108950648D01*
X103979248Y-108899548D01*
X104096305Y-108811920D01*
X104183933Y-108694863D01*
X104235033Y-108557860D01*
X104239137Y-108519685D01*
X104241543Y-108497313D01*
X104241544Y-108497296D01*
X104241544Y-107800021D01*
X104241543Y-107800004D01*
X104238201Y-107768929D01*
X104235033Y-107739458D01*
X104225185Y-107713056D01*
X104212566Y-107679223D01*
X104183933Y-107602455D01*
X104096305Y-107485398D01*
X103979248Y-107397770D01*
X103934839Y-107381206D01*
X103842247Y-107346670D01*
X103781698Y-107340159D01*
X103781682Y-107340159D01*
X102614406Y-107340159D01*
X102614389Y-107340159D01*
X102553842Y-107346669D01*
X102468931Y-107378341D01*
X102425597Y-107386159D01*
X101851877Y-107386159D01*
X101784838Y-107366474D01*
X101739083Y-107313670D01*
X101729139Y-107244512D01*
X101758164Y-107180956D01*
X101764196Y-107174478D01*
X101774860Y-107163814D01*
X101780914Y-107153799D01*
X101786833Y-107144009D01*
X101838361Y-107096822D01*
X101892950Y-107084159D01*
X103060636Y-107084159D01*
X103060637Y-107084158D01*
X103095060Y-107077311D01*
X103184396Y-107059542D01*
X103208587Y-107057159D01*
X103781682Y-107057159D01*
X103781698Y-107057158D01*
X103808736Y-107054250D01*
X103842245Y-107050648D01*
X103979248Y-106999548D01*
X104096305Y-106911920D01*
X104183933Y-106794863D01*
X104235033Y-106657860D01*
X104238635Y-106624351D01*
X104241543Y-106597313D01*
X104241544Y-106597296D01*
X104241544Y-105900021D01*
X104241543Y-105900004D01*
X104238201Y-105868929D01*
X104235033Y-105839458D01*
X104183933Y-105702455D01*
X104096305Y-105585398D01*
X103979248Y-105497770D01*
X103842247Y-105446670D01*
X103781698Y-105440159D01*
X103781682Y-105440159D01*
X103751670Y-105440159D01*
X103684631Y-105420474D01*
X103638876Y-105367670D01*
X103628932Y-105298512D01*
X103633285Y-105279269D01*
X103634814Y-105274362D01*
X103642405Y-105250000D01*
X105836496Y-105250000D01*
X105856458Y-105439928D01*
X105856459Y-105439931D01*
X105915470Y-105621549D01*
X105915473Y-105621556D01*
X106010960Y-105786944D01*
X106138747Y-105928866D01*
X106293248Y-106041118D01*
X106467712Y-106118794D01*
X106654513Y-106158500D01*
X106845487Y-106158500D01*
X107032288Y-106118794D01*
X107206752Y-106041118D01*
X107361253Y-105928866D01*
X107489040Y-105786944D01*
X107584527Y-105621556D01*
X107643542Y-105439928D01*
X107652162Y-105357909D01*
X107660918Y-105323430D01*
X107681241Y-105274368D01*
X107710440Y-105127581D01*
X107710544Y-105127056D01*
X107710544Y-104975619D01*
X107730229Y-104908580D01*
X107760234Y-104876352D01*
X107846305Y-104811920D01*
X107933933Y-104694863D01*
X107985033Y-104557860D01*
X107989103Y-104520003D01*
X107991543Y-104497313D01*
X107991544Y-104497296D01*
X107991544Y-103800021D01*
X107991543Y-103800004D01*
X107987510Y-103762500D01*
X107985033Y-103739458D01*
X107933933Y-103602455D01*
X107846305Y-103485398D01*
X107729248Y-103397770D01*
X107592247Y-103346670D01*
X107531698Y-103340159D01*
X107531682Y-103340159D01*
X106364406Y-103340159D01*
X106364389Y-103340159D01*
X106303841Y-103346670D01*
X106303839Y-103346670D01*
X106166839Y-103397770D01*
X106049783Y-103485398D01*
X105962155Y-103602454D01*
X105911055Y-103739454D01*
X105911055Y-103739456D01*
X105904544Y-103800004D01*
X105904544Y-104497313D01*
X105911055Y-104557861D01*
X105911055Y-104557863D01*
X105965015Y-104702530D01*
X105970000Y-104772222D01*
X105956222Y-104807864D01*
X105915472Y-104878446D01*
X105915470Y-104878450D01*
X105856459Y-105060068D01*
X105856458Y-105060072D01*
X105836496Y-105250000D01*
X103642405Y-105250000D01*
X103665057Y-105177308D01*
X103671544Y-105105924D01*
X103671543Y-104591395D01*
X103671543Y-104591394D01*
X103671543Y-104591386D01*
X103665058Y-104520013D01*
X103665055Y-104520003D01*
X103613872Y-104355749D01*
X103613871Y-104355748D01*
X103613871Y-104355746D01*
X103524860Y-104208504D01*
X103524858Y-104208502D01*
X103524857Y-104208500D01*
X103427696Y-104111339D01*
X103394211Y-104050016D01*
X103399195Y-103980324D01*
X103427692Y-103935981D01*
X103524860Y-103838814D01*
X103534812Y-103822350D01*
X103586338Y-103775164D01*
X103640929Y-103762500D01*
X104213568Y-103762500D01*
X104280607Y-103782185D01*
X104286452Y-103786181D01*
X104293244Y-103791115D01*
X104293243Y-103791115D01*
X104293245Y-103791116D01*
X104293248Y-103791118D01*
X104467712Y-103868794D01*
X104654513Y-103908500D01*
X104845487Y-103908500D01*
X105032288Y-103868794D01*
X105206752Y-103791118D01*
X105361253Y-103678866D01*
X105489040Y-103536944D01*
X105584527Y-103371556D01*
X105643542Y-103189928D01*
X105663504Y-103000000D01*
X105643542Y-102810072D01*
X105584527Y-102628444D01*
X105489040Y-102463056D01*
X105452445Y-102422414D01*
X105446253Y-102415536D01*
X105416023Y-102352544D01*
X105424648Y-102283209D01*
X105469390Y-102229544D01*
X105514211Y-102210947D01*
X105595771Y-102194722D01*
X105660457Y-102181856D01*
X105733094Y-102151768D01*
X105802560Y-102144300D01*
X105865039Y-102175574D01*
X105900692Y-102235663D01*
X105904544Y-102266330D01*
X105904544Y-102597313D01*
X105911055Y-102657861D01*
X105911055Y-102657863D01*
X105960138Y-102789456D01*
X105962155Y-102794863D01*
X106049783Y-102911920D01*
X106166840Y-102999548D01*
X106303843Y-103050648D01*
X106331094Y-103053577D01*
X106364389Y-103057158D01*
X106364406Y-103057159D01*
X107531682Y-103057159D01*
X107531698Y-103057158D01*
X107558736Y-103054250D01*
X107592245Y-103050648D01*
X107729248Y-102999548D01*
X107846305Y-102911920D01*
X107933933Y-102794863D01*
X107985033Y-102657860D01*
X107988635Y-102624351D01*
X107991543Y-102597313D01*
X107991544Y-102597296D01*
X107991544Y-101900021D01*
X107991543Y-101900004D01*
X107986414Y-101852308D01*
X107985033Y-101839458D01*
X107979050Y-101823418D01*
X107960754Y-101774363D01*
X107933933Y-101702455D01*
X107846305Y-101585398D01*
X107729248Y-101497770D01*
X107592247Y-101446670D01*
X107548506Y-101441967D01*
X107483956Y-101415229D01*
X107474082Y-101406359D01*
X106957862Y-100890139D01*
X106924377Y-100828816D01*
X106921543Y-100802458D01*
X106921543Y-100691386D01*
X106915058Y-100620014D01*
X106915055Y-100620003D01*
X106863872Y-100455749D01*
X106863871Y-100455748D01*
X106863871Y-100455746D01*
X106774860Y-100308504D01*
X106774858Y-100308502D01*
X106774857Y-100308500D01*
X106677696Y-100211339D01*
X106644211Y-100150016D01*
X106649195Y-100080324D01*
X106677692Y-100035981D01*
X106774860Y-99938814D01*
X106789477Y-99914633D01*
X106841003Y-99867445D01*
X106909862Y-99855605D01*
X106946485Y-99865705D01*
X106948647Y-99866678D01*
X107110938Y-99917249D01*
X107110937Y-99917249D01*
X107181452Y-99923657D01*
X107181470Y-99923658D01*
X107188043Y-99923657D01*
X107188044Y-99923657D01*
X107188044Y-97973659D01*
X107188043Y-97973658D01*
X107181480Y-97973659D01*
X107181461Y-97973660D01*
X107110941Y-97980067D01*
X107062137Y-97995275D01*
X106992277Y-97996425D01*
X106932884Y-97959624D01*
X106902816Y-97896555D01*
X106901930Y-97889882D01*
X106893542Y-97810072D01*
X106834527Y-97628444D01*
X106739040Y-97463056D01*
X106611253Y-97321134D01*
X106456752Y-97208882D01*
X106282288Y-97131206D01*
X106282286Y-97131205D01*
X106095487Y-97091500D01*
X105904513Y-97091500D01*
X105717714Y-97131205D01*
X105543246Y-97208883D01*
X105388745Y-97321135D01*
X105260959Y-97463057D01*
X105165473Y-97628443D01*
X105165470Y-97628450D01*
X105106459Y-97810068D01*
X105106458Y-97810072D01*
X105086496Y-98000000D01*
X105106458Y-98189928D01*
X105106459Y-98189931D01*
X105165470Y-98371549D01*
X105165475Y-98371561D01*
X105199413Y-98430343D01*
X105215886Y-98498243D01*
X105193033Y-98564270D01*
X105179708Y-98580023D01*
X105101229Y-98658502D01*
X105012217Y-98805745D01*
X104961030Y-98970013D01*
X104954544Y-99041396D01*
X104954544Y-99555931D01*
X104961029Y-99627304D01*
X104961032Y-99627314D01*
X105012215Y-99791568D01*
X105012216Y-99791570D01*
X105012217Y-99791572D01*
X105093284Y-99925673D01*
X105101230Y-99938817D01*
X105198391Y-100035978D01*
X105231876Y-100097301D01*
X105226892Y-100166993D01*
X105198391Y-100211340D01*
X105101231Y-100308499D01*
X105101230Y-100308500D01*
X105015468Y-100450368D01*
X104963940Y-100497556D01*
X104895080Y-100509394D01*
X104872462Y-100504604D01*
X104826351Y-100490236D01*
X104766693Y-100471646D01*
X104695309Y-100465159D01*
X104695306Y-100465159D01*
X104180771Y-100465159D01*
X104109398Y-100471644D01*
X104109388Y-100471647D01*
X103945134Y-100522830D01*
X103797885Y-100611845D01*
X103797884Y-100611846D01*
X103694714Y-100715017D01*
X103633391Y-100748502D01*
X103563699Y-100743518D01*
X103519352Y-100715017D01*
X103422921Y-100618586D01*
X103277439Y-100530639D01*
X103277440Y-100530639D01*
X103115149Y-100480068D01*
X103115150Y-100480068D01*
X103044616Y-100473659D01*
X103038044Y-100473659D01*
X103038044Y-101574659D01*
X103018359Y-101641698D01*
X102965555Y-101687453D01*
X102914044Y-101698659D01*
X101888045Y-101698659D01*
X101888045Y-101780241D01*
X101894452Y-101850761D01*
X101894453Y-101850766D01*
X101945025Y-102013055D01*
X102032971Y-102158536D01*
X102071869Y-102197434D01*
X102105354Y-102258757D01*
X102100370Y-102328449D01*
X102058498Y-102384382D01*
X102048339Y-102391231D01*
X101972888Y-102436843D01*
X101972884Y-102436846D01*
X101851230Y-102558500D01*
X101762217Y-102705745D01*
X101711030Y-102870013D01*
X101704544Y-102941396D01*
X101704544Y-103455931D01*
X101711029Y-103527304D01*
X101711032Y-103527314D01*
X101762215Y-103691568D01*
X101762216Y-103691570D01*
X101762217Y-103691572D01*
X101851226Y-103838811D01*
X101851230Y-103838817D01*
X101948391Y-103935978D01*
X101981876Y-103997301D01*
X101976892Y-104066993D01*
X101948391Y-104111340D01*
X101851231Y-104208499D01*
X101851230Y-104208500D01*
X101762217Y-104355745D01*
X101711030Y-104520013D01*
X101704544Y-104591396D01*
X101704544Y-105105931D01*
X101711029Y-105177304D01*
X101711032Y-105177314D01*
X101762215Y-105341569D01*
X101762217Y-105341572D01*
X101821677Y-105439931D01*
X101822215Y-105440820D01*
X101840051Y-105508375D01*
X101818533Y-105574848D01*
X101764493Y-105619136D01*
X101695088Y-105627177D01*
X101651948Y-105611087D01*
X101609453Y-105585398D01*
X101505957Y-105522832D01*
X101341693Y-105471646D01*
X101341691Y-105471645D01*
X101341689Y-105471645D01*
X101291711Y-105467103D01*
X101270309Y-105465159D01*
X101270306Y-105465159D01*
X100755771Y-105465159D01*
X100684398Y-105471644D01*
X100684388Y-105471647D01*
X100520134Y-105522830D01*
X100372885Y-105611845D01*
X100372884Y-105611846D01*
X100269714Y-105715017D01*
X100208391Y-105748502D01*
X100138699Y-105743518D01*
X100094352Y-105715017D01*
X99997921Y-105618586D01*
X99852439Y-105530639D01*
X99852440Y-105530639D01*
X99690149Y-105480068D01*
X99690150Y-105480068D01*
X99619616Y-105473659D01*
X99613044Y-105473659D01*
X99613044Y-107423658D01*
X99106470Y-107423658D01*
X99113043Y-107423657D01*
X99113044Y-107423657D01*
X99113044Y-106698659D01*
X98463045Y-106698659D01*
X96512500Y-106698659D01*
X96512500Y-106198659D01*
X98463044Y-106198659D01*
X99113044Y-106198659D01*
X99113044Y-105473659D01*
X99113043Y-105473658D01*
X99106480Y-105473659D01*
X99106461Y-105473660D01*
X99035941Y-105480067D01*
X99035936Y-105480068D01*
X98873647Y-105530640D01*
X98728166Y-105618586D01*
X98607971Y-105738781D01*
X98520024Y-105884263D01*
X98469453Y-106046552D01*
X98463044Y-106117086D01*
X98463044Y-106198659D01*
X96512500Y-106198659D01*
X96512500Y-101198659D01*
X101888044Y-101198659D01*
X102538044Y-101198659D01*
X102538044Y-100473659D01*
X102538043Y-100473658D01*
X102531480Y-100473659D01*
X102531461Y-100473660D01*
X102460941Y-100480067D01*
X102460936Y-100480068D01*
X102298647Y-100530640D01*
X102153166Y-100618586D01*
X102032971Y-100738781D01*
X101945024Y-100884263D01*
X101894453Y-101046552D01*
X101888044Y-101117086D01*
X101888044Y-101198659D01*
X96512500Y-101198659D01*
X96512500Y-67640200D01*
X96532185Y-67573161D01*
X96584989Y-67527406D01*
X96654147Y-67517462D01*
X96717703Y-67546487D01*
X96724181Y-67552519D01*
X98227590Y-69055929D01*
X98227598Y-69055935D01*
X98352469Y-69139371D01*
X98352472Y-69139372D01*
X98352480Y-69139378D01*
X98450602Y-69180021D01*
X98491246Y-69196856D01*
X98527320Y-69204031D01*
X98638556Y-69226159D01*
X98638559Y-69226159D01*
X98638560Y-69226159D01*
X98788759Y-69226159D01*
X99996368Y-69226159D01*
X100063407Y-69245844D01*
X100100177Y-69282338D01*
X100112322Y-69300928D01*
X100214172Y-69411565D01*
X100264804Y-69466565D01*
X100442468Y-69604848D01*
X100442473Y-69604850D01*
X100442475Y-69604852D01*
X100478974Y-69624605D01*
X100528564Y-69673824D01*
X100543672Y-69742041D01*
X100519501Y-69807596D01*
X100478974Y-69842713D01*
X100442475Y-69862465D01*
X100442466Y-69862471D01*
X100264805Y-70000751D01*
X100264800Y-70000756D01*
X100112328Y-70166382D01*
X100112320Y-70166393D01*
X99989184Y-70354866D01*
X99898747Y-70561044D01*
X99843480Y-70779287D01*
X99843478Y-70779299D01*
X99824888Y-71003653D01*
X99824888Y-71003664D01*
X99843478Y-71228018D01*
X99843480Y-71228030D01*
X99898747Y-71446273D01*
X99989184Y-71652451D01*
X100112319Y-71840922D01*
X100112328Y-71840935D01*
X100264800Y-72006561D01*
X100264805Y-72006566D01*
X100311753Y-72043107D01*
X100442468Y-72144848D01*
X100442469Y-72144848D01*
X100442471Y-72144850D01*
X100551404Y-72203801D01*
X100640470Y-72252001D01*
X100853409Y-72325103D01*
X101075475Y-72362159D01*
X101300611Y-72362159D01*
X101300613Y-72362159D01*
X101381283Y-72348697D01*
X101450645Y-72357079D01*
X101489372Y-72383325D01*
X107198316Y-78092270D01*
X107198324Y-78092276D01*
X107323195Y-78175712D01*
X107323198Y-78175714D01*
X107323206Y-78175719D01*
X107337919Y-78181813D01*
X107392455Y-78204403D01*
X107392460Y-78204404D01*
X107392462Y-78204405D01*
X107461972Y-78233197D01*
X107461976Y-78233197D01*
X107461977Y-78233198D01*
X107609282Y-78262500D01*
X107609285Y-78262500D01*
X107609286Y-78262500D01*
X107759485Y-78262500D01*
X122132800Y-78262500D01*
X122199839Y-78282185D01*
X122220481Y-78298819D01*
X123314225Y-79392563D01*
X123347710Y-79453886D01*
X123350544Y-79480244D01*
X123350544Y-85857825D01*
X123330859Y-85924864D01*
X123314225Y-85945506D01*
X123276231Y-85983499D01*
X123276230Y-85983500D01*
X123187217Y-86130745D01*
X123136030Y-86295013D01*
X123129544Y-86366396D01*
X123129544Y-86880931D01*
X123136029Y-86952304D01*
X123136032Y-86952314D01*
X123187215Y-87116568D01*
X123187216Y-87116570D01*
X123187217Y-87116572D01*
X123276228Y-87263814D01*
X123276230Y-87263817D01*
X123373391Y-87360978D01*
X123406876Y-87422301D01*
X123401892Y-87491993D01*
X123373392Y-87536340D01*
X123307890Y-87601841D01*
X123246570Y-87635325D01*
X123220211Y-87638159D01*
X123054579Y-87638159D01*
X122987540Y-87618474D01*
X122978262Y-87611882D01*
X122978201Y-87611845D01*
X122978199Y-87611843D01*
X122830957Y-87522832D01*
X122666693Y-87471646D01*
X122666691Y-87471645D01*
X122666689Y-87471645D01*
X122616711Y-87467103D01*
X122595309Y-87465159D01*
X122595306Y-87465159D01*
X122080771Y-87465159D01*
X122009398Y-87471644D01*
X122009388Y-87471647D01*
X121845134Y-87522830D01*
X121697885Y-87611845D01*
X121697884Y-87611846D01*
X121594714Y-87715017D01*
X121533391Y-87748502D01*
X121463699Y-87743518D01*
X121419352Y-87715017D01*
X121322921Y-87618586D01*
X121177439Y-87530639D01*
X121177440Y-87530639D01*
X121015149Y-87480068D01*
X121015150Y-87480068D01*
X120944616Y-87473659D01*
X120938044Y-87473659D01*
X120938044Y-89423658D01*
X120944625Y-89423658D01*
X121015146Y-89417250D01*
X121015151Y-89417249D01*
X121177440Y-89366677D01*
X121322921Y-89278731D01*
X121322922Y-89278730D01*
X121419350Y-89182301D01*
X121480673Y-89148815D01*
X121550364Y-89153799D01*
X121594713Y-89182299D01*
X121697889Y-89285475D01*
X121697891Y-89285476D01*
X121702824Y-89290409D01*
X121729704Y-89330638D01*
X121774869Y-89439678D01*
X121774874Y-89439687D01*
X121844417Y-89543765D01*
X121844418Y-89543766D01*
X121844419Y-89543767D01*
X121868225Y-89567573D01*
X121901710Y-89628894D01*
X121904544Y-89655254D01*
X121904544Y-90097313D01*
X121911055Y-90157861D01*
X121911055Y-90157863D01*
X121960138Y-90289456D01*
X121962155Y-90294863D01*
X122049783Y-90411920D01*
X122166840Y-90499548D01*
X122303843Y-90550648D01*
X122331094Y-90553577D01*
X122364389Y-90557158D01*
X122364406Y-90557159D01*
X123531682Y-90557159D01*
X123531698Y-90557158D01*
X123558736Y-90554250D01*
X123592245Y-90550648D01*
X123729248Y-90499548D01*
X123846305Y-90411920D01*
X123933933Y-90294863D01*
X123985033Y-90157860D01*
X123990052Y-90111178D01*
X123991543Y-90097313D01*
X123991544Y-90097296D01*
X123991544Y-89400021D01*
X123991543Y-89400004D01*
X123985033Y-89339458D01*
X123983902Y-89334671D01*
X123987643Y-89264902D01*
X124028511Y-89208231D01*
X124093530Y-89182651D01*
X124104579Y-89182158D01*
X124445315Y-89182158D01*
X124516688Y-89175673D01*
X124516691Y-89175672D01*
X124516693Y-89175672D01*
X124680957Y-89124486D01*
X124828199Y-89035475D01*
X124949860Y-88913814D01*
X125038871Y-88766572D01*
X125090057Y-88602308D01*
X125096544Y-88530924D01*
X125096543Y-88016395D01*
X125096543Y-88016386D01*
X125090058Y-87945013D01*
X125090055Y-87945003D01*
X125038872Y-87780749D01*
X125038871Y-87780748D01*
X125038871Y-87780746D01*
X124949860Y-87633504D01*
X124949858Y-87633502D01*
X124949857Y-87633500D01*
X124852697Y-87536340D01*
X124819212Y-87475017D01*
X124824196Y-87405325D01*
X124852697Y-87360978D01*
X124949856Y-87263818D01*
X124949857Y-87263817D01*
X124949860Y-87263814D01*
X125038871Y-87116572D01*
X125090057Y-86952308D01*
X125096544Y-86880924D01*
X125096543Y-86366395D01*
X125096543Y-86366394D01*
X125096543Y-86366386D01*
X125090058Y-86295013D01*
X125090055Y-86295003D01*
X125038872Y-86130749D01*
X125038871Y-86130748D01*
X125038871Y-86130746D01*
X124949860Y-85983504D01*
X124949858Y-85983502D01*
X124949857Y-85983500D01*
X124911863Y-85945506D01*
X124878378Y-85884183D01*
X124875544Y-85857825D01*
X124875544Y-79037941D01*
X124846242Y-78890637D01*
X124846241Y-78890631D01*
X124829406Y-78849987D01*
X124788763Y-78751865D01*
X124728483Y-78661650D01*
X124705320Y-78626983D01*
X124705314Y-78626975D01*
X123001179Y-76922840D01*
X122967694Y-76861517D01*
X122972678Y-76791825D01*
X123014550Y-76735892D01*
X123080014Y-76711475D01*
X123088860Y-76711159D01*
X139320844Y-76711159D01*
X139387883Y-76730844D01*
X139408525Y-76747478D01*
X139704673Y-77043626D01*
X139738158Y-77104949D01*
X139733174Y-77174641D01*
X139691302Y-77230574D01*
X139625838Y-77254991D01*
X139616992Y-77255307D01*
X132282091Y-77255307D01*
X132134785Y-77284608D01*
X132134779Y-77284610D01*
X131996016Y-77342087D01*
X131996007Y-77342092D01*
X131871128Y-77425534D01*
X131871124Y-77425537D01*
X127185875Y-82110785D01*
X127185874Y-82110786D01*
X127102425Y-82235678D01*
X127044947Y-82374442D01*
X127044945Y-82374448D01*
X127015644Y-82521753D01*
X127015644Y-89716405D01*
X126995959Y-89783444D01*
X126943155Y-89829199D01*
X126902865Y-89839896D01*
X126849498Y-89844744D01*
X126849488Y-89844747D01*
X126685233Y-89895930D01*
X126661397Y-89910339D01*
X126648268Y-89918276D01*
X126584120Y-89936159D01*
X126200491Y-89936159D01*
X126157157Y-89928341D01*
X126072245Y-89896669D01*
X126011698Y-89890159D01*
X126011682Y-89890159D01*
X124844406Y-89890159D01*
X124844389Y-89890159D01*
X124783841Y-89896670D01*
X124783839Y-89896670D01*
X124646839Y-89947770D01*
X124529783Y-90035398D01*
X124442155Y-90152454D01*
X124391055Y-90289454D01*
X124391055Y-90289456D01*
X124384544Y-90350004D01*
X124384544Y-91047313D01*
X124391055Y-91107861D01*
X124391055Y-91107863D01*
X124440138Y-91239456D01*
X124442155Y-91244863D01*
X124529783Y-91361920D01*
X124537399Y-91367621D01*
X124598692Y-91413506D01*
X124640563Y-91469440D01*
X124645547Y-91539131D01*
X124612061Y-91600454D01*
X124593272Y-91615874D01*
X124535481Y-91654488D01*
X124535478Y-91654491D01*
X124203225Y-91986745D01*
X124141902Y-92020230D01*
X124072210Y-92015246D01*
X124016277Y-91973374D01*
X123991860Y-91907910D01*
X123991544Y-91899064D01*
X123991544Y-91300021D01*
X123991543Y-91300004D01*
X123987094Y-91258628D01*
X123985033Y-91239458D01*
X123978687Y-91222445D01*
X123959630Y-91171351D01*
X123933933Y-91102455D01*
X123846305Y-90985398D01*
X123729248Y-90897770D01*
X123592247Y-90846670D01*
X123531698Y-90840159D01*
X123531682Y-90840159D01*
X122364406Y-90840159D01*
X122364389Y-90840159D01*
X122303842Y-90846669D01*
X122218931Y-90878341D01*
X122175597Y-90886159D01*
X121975010Y-90886159D01*
X121907971Y-90866474D01*
X121882860Y-90845131D01*
X121861254Y-90821135D01*
X121833105Y-90800683D01*
X121706752Y-90708882D01*
X121532288Y-90631206D01*
X121532286Y-90631205D01*
X121345487Y-90591500D01*
X121154513Y-90591500D01*
X120967714Y-90631205D01*
X120793246Y-90708883D01*
X120638745Y-90821135D01*
X120510959Y-90963057D01*
X120415473Y-91128443D01*
X120415470Y-91128450D01*
X120356459Y-91310068D01*
X120356458Y-91310072D01*
X120336496Y-91500000D01*
X120356458Y-91689928D01*
X120356459Y-91689931D01*
X120415470Y-91871549D01*
X120415473Y-91871556D01*
X120463164Y-91954159D01*
X120479637Y-92022059D01*
X120456784Y-92088086D01*
X120401863Y-92131277D01*
X120355777Y-92140159D01*
X120104389Y-92140159D01*
X120043841Y-92146670D01*
X120043839Y-92146670D01*
X119906839Y-92197770D01*
X119789783Y-92285398D01*
X119702155Y-92402454D01*
X119651055Y-92539454D01*
X119651055Y-92539456D01*
X119644544Y-92600004D01*
X119644544Y-93297313D01*
X119651055Y-93357861D01*
X119651055Y-93357863D01*
X119700138Y-93489456D01*
X119702155Y-93494863D01*
X119789783Y-93611920D01*
X119906840Y-93699548D01*
X120043843Y-93750648D01*
X120071094Y-93753577D01*
X120104389Y-93757158D01*
X120104406Y-93757159D01*
X121271682Y-93757159D01*
X121271698Y-93757158D01*
X121332245Y-93750648D01*
X121332248Y-93750647D01*
X121417157Y-93718976D01*
X121460491Y-93711159D01*
X122047844Y-93711159D01*
X122114883Y-93730844D01*
X122160638Y-93783648D01*
X122170582Y-93852806D01*
X122141557Y-93916362D01*
X122135525Y-93922840D01*
X120908525Y-95149840D01*
X120847202Y-95183325D01*
X120820844Y-95186159D01*
X119281654Y-95186159D01*
X119214615Y-95166474D01*
X119168860Y-95113670D01*
X119158333Y-95049198D01*
X119163504Y-95000000D01*
X119143542Y-94810072D01*
X119095916Y-94663494D01*
X119093921Y-94593653D01*
X119114578Y-94550867D01*
X119193933Y-94444863D01*
X119245033Y-94307860D01*
X119248635Y-94274351D01*
X119251543Y-94247313D01*
X119251544Y-94247296D01*
X119251544Y-93550021D01*
X119251543Y-93550004D01*
X119246166Y-93500000D01*
X119245033Y-93489458D01*
X119241001Y-93478649D01*
X119214376Y-93407264D01*
X119193933Y-93352455D01*
X119106305Y-93235398D01*
X118989248Y-93147770D01*
X118937434Y-93128444D01*
X118852247Y-93096670D01*
X118791698Y-93090159D01*
X118791682Y-93090159D01*
X117624406Y-93090159D01*
X117624389Y-93090159D01*
X117563841Y-93096670D01*
X117563839Y-93096670D01*
X117426839Y-93147770D01*
X117309783Y-93235398D01*
X117222155Y-93352454D01*
X117171055Y-93489454D01*
X117171055Y-93489456D01*
X117164544Y-93550004D01*
X117164544Y-94247313D01*
X117171055Y-94307861D01*
X117171055Y-94307863D01*
X117208807Y-94409076D01*
X117222155Y-94444863D01*
X117309783Y-94561920D01*
X117341138Y-94585392D01*
X117383007Y-94641322D01*
X117387992Y-94711014D01*
X117384757Y-94722974D01*
X117356459Y-94810066D01*
X117356459Y-94810068D01*
X117356458Y-94810072D01*
X117338230Y-94983504D01*
X117336496Y-95000003D01*
X117336496Y-95000004D01*
X117336832Y-95003203D01*
X117336496Y-95005039D01*
X117336496Y-95006498D01*
X117336229Y-95006498D01*
X117324260Y-95071932D01*
X117276526Y-95122954D01*
X117213511Y-95140159D01*
X116604389Y-95140159D01*
X116543841Y-95146670D01*
X116543839Y-95146670D01*
X116406839Y-95197770D01*
X116289783Y-95285398D01*
X116202155Y-95402454D01*
X116151055Y-95539454D01*
X116151055Y-95539456D01*
X116144544Y-95600004D01*
X116144544Y-96297313D01*
X116151055Y-96357861D01*
X116151055Y-96357863D01*
X116200138Y-96489456D01*
X116202155Y-96494863D01*
X116289783Y-96611920D01*
X116406840Y-96699548D01*
X116543843Y-96750648D01*
X116571094Y-96753577D01*
X116604389Y-96757158D01*
X116604406Y-96757159D01*
X117771682Y-96757159D01*
X117771698Y-96757158D01*
X117832245Y-96750648D01*
X117917157Y-96718977D01*
X117960491Y-96711159D01*
X120547844Y-96711159D01*
X120614883Y-96730844D01*
X120660638Y-96783648D01*
X120670582Y-96852806D01*
X120641557Y-96916362D01*
X120635525Y-96922840D01*
X118958525Y-98599840D01*
X118897202Y-98633325D01*
X118870844Y-98636159D01*
X115750454Y-98636159D01*
X115683415Y-98616474D01*
X115637660Y-98563670D01*
X115627716Y-98494512D01*
X115632523Y-98473841D01*
X115633432Y-98471040D01*
X115643542Y-98439928D01*
X115663504Y-98250000D01*
X115643542Y-98060072D01*
X115584527Y-97878444D01*
X115579013Y-97868893D01*
X115518530Y-97764132D01*
X115502057Y-97696232D01*
X115524910Y-97630205D01*
X115551605Y-97602867D01*
X115606305Y-97561920D01*
X115693933Y-97444863D01*
X115745033Y-97307860D01*
X115748635Y-97274351D01*
X115751543Y-97247313D01*
X115751544Y-97247296D01*
X115751544Y-96550021D01*
X115751543Y-96550004D01*
X115748201Y-96518929D01*
X115745033Y-96489458D01*
X115693933Y-96352455D01*
X115606305Y-96235398D01*
X115489248Y-96147770D01*
X115352247Y-96096670D01*
X115291698Y-96090159D01*
X115291682Y-96090159D01*
X114124406Y-96090159D01*
X114124389Y-96090159D01*
X114063841Y-96096670D01*
X114063839Y-96096670D01*
X113926839Y-96147770D01*
X113809783Y-96235398D01*
X113722155Y-96352454D01*
X113671055Y-96489454D01*
X113671055Y-96489456D01*
X113664544Y-96550004D01*
X113664544Y-97247313D01*
X113671055Y-97307861D01*
X113671055Y-97307863D01*
X113722155Y-97444863D01*
X113809784Y-97561921D01*
X113895854Y-97626352D01*
X113937726Y-97682285D01*
X113945544Y-97725619D01*
X113945544Y-97793133D01*
X113928931Y-97855133D01*
X113915473Y-97878442D01*
X113863156Y-98039458D01*
X113856458Y-98060072D01*
X113838230Y-98233504D01*
X113836496Y-98250000D01*
X113856458Y-98439928D01*
X113856554Y-98440376D01*
X113856533Y-98440641D01*
X113857138Y-98446390D01*
X113856086Y-98446500D01*
X113851239Y-98510043D01*
X113809103Y-98565777D01*
X113743523Y-98589884D01*
X113735264Y-98590159D01*
X112594389Y-98590159D01*
X112533841Y-98596670D01*
X112533839Y-98596670D01*
X112396839Y-98647770D01*
X112279783Y-98735398D01*
X112192155Y-98852454D01*
X112141055Y-98989454D01*
X112141055Y-98989456D01*
X112134544Y-99050004D01*
X112134544Y-99747313D01*
X112141055Y-99807861D01*
X112141055Y-99807863D01*
X112190138Y-99939456D01*
X112192155Y-99944863D01*
X112279783Y-100061920D01*
X112396840Y-100149548D01*
X112533843Y-100200648D01*
X112561094Y-100203577D01*
X112594389Y-100207158D01*
X112594406Y-100207159D01*
X113761682Y-100207159D01*
X113761698Y-100207158D01*
X113822245Y-100200648D01*
X113907157Y-100168977D01*
X113950491Y-100161159D01*
X118597844Y-100161159D01*
X118664883Y-100180844D01*
X118710638Y-100233648D01*
X118720582Y-100302806D01*
X118691557Y-100366362D01*
X118685525Y-100372840D01*
X116658525Y-102399840D01*
X116597202Y-102433325D01*
X116570844Y-102436159D01*
X111367665Y-102436159D01*
X111300626Y-102416474D01*
X111254871Y-102363670D01*
X111244927Y-102294512D01*
X111260278Y-102250159D01*
X111272180Y-102229544D01*
X111334527Y-102121556D01*
X111393542Y-101939928D01*
X111402162Y-101857909D01*
X111410921Y-101823424D01*
X111420837Y-101799486D01*
X111431241Y-101774369D01*
X111448530Y-101687453D01*
X111460544Y-101627058D01*
X111460544Y-101175619D01*
X111480229Y-101108580D01*
X111510234Y-101076352D01*
X111596305Y-101011920D01*
X111683933Y-100894863D01*
X111735033Y-100757860D01*
X111739639Y-100715017D01*
X111741543Y-100697313D01*
X111741544Y-100697296D01*
X111741544Y-100000021D01*
X111741543Y-100000004D01*
X111738201Y-99968929D01*
X111735033Y-99939458D01*
X111734791Y-99938810D01*
X111707887Y-99866677D01*
X111683933Y-99802455D01*
X111596305Y-99685398D01*
X111479248Y-99597770D01*
X111342247Y-99546670D01*
X111281698Y-99540159D01*
X111281682Y-99540159D01*
X110114406Y-99540159D01*
X110114395Y-99540159D01*
X110113024Y-99540307D01*
X110112707Y-99540249D01*
X110111081Y-99540337D01*
X110111060Y-99539952D01*
X110044265Y-99527899D01*
X109993129Y-99480287D01*
X109975852Y-99412587D01*
X109981387Y-99380130D01*
X109990057Y-99352308D01*
X109990057Y-99352306D01*
X109992009Y-99346043D01*
X109994449Y-99346803D01*
X110021488Y-99295070D01*
X110082191Y-99260475D01*
X110111085Y-99257886D01*
X110111085Y-99257159D01*
X111281682Y-99257159D01*
X111281698Y-99257158D01*
X111308736Y-99254250D01*
X111342245Y-99250648D01*
X111479248Y-99199548D01*
X111596305Y-99111920D01*
X111683933Y-98994863D01*
X111735033Y-98857860D01*
X111740636Y-98805745D01*
X111741543Y-98797313D01*
X111741544Y-98797296D01*
X111741544Y-98100021D01*
X111741543Y-98100004D01*
X111737249Y-98060068D01*
X111735033Y-98039458D01*
X111733547Y-98035475D01*
X111705256Y-97959624D01*
X111683933Y-97902455D01*
X111596305Y-97785398D01*
X111479248Y-97697770D01*
X111437732Y-97682285D01*
X111342247Y-97646670D01*
X111281698Y-97640159D01*
X111281682Y-97640159D01*
X110839639Y-97640159D01*
X110772600Y-97620474D01*
X110751958Y-97603840D01*
X109963129Y-96815011D01*
X109943569Y-96786671D01*
X109942752Y-96787166D01*
X109924612Y-96757159D01*
X109849860Y-96633504D01*
X109849858Y-96633502D01*
X109849857Y-96633500D01*
X109752697Y-96536340D01*
X109719212Y-96475017D01*
X109724196Y-96405325D01*
X109752697Y-96360978D01*
X109849856Y-96263818D01*
X109849857Y-96263817D01*
X109849860Y-96263814D01*
X109938871Y-96116572D01*
X109990057Y-95952308D01*
X109996544Y-95880924D01*
X109996543Y-95379535D01*
X110016227Y-95312497D01*
X110069031Y-95266742D01*
X110138190Y-95256798D01*
X110201746Y-95285823D01*
X110226660Y-95315386D01*
X110282971Y-95408536D01*
X110403166Y-95528731D01*
X110548648Y-95616678D01*
X110548647Y-95616678D01*
X110710938Y-95667249D01*
X110710937Y-95667249D01*
X110781452Y-95673657D01*
X110781470Y-95673658D01*
X111288044Y-95673658D01*
X111294625Y-95673658D01*
X111365146Y-95667250D01*
X111365151Y-95667249D01*
X111527440Y-95616677D01*
X111672921Y-95528731D01*
X111672922Y-95528730D01*
X111769350Y-95432301D01*
X111830673Y-95398815D01*
X111900364Y-95403799D01*
X111944713Y-95432300D01*
X112047885Y-95535472D01*
X112047887Y-95535473D01*
X112047889Y-95535475D01*
X112195131Y-95624486D01*
X112359395Y-95675672D01*
X112430779Y-95682159D01*
X112945308Y-95682158D01*
X112945316Y-95682158D01*
X113016689Y-95675673D01*
X113016692Y-95675672D01*
X113016693Y-95675672D01*
X113180957Y-95624486D01*
X113328199Y-95535475D01*
X113449860Y-95413814D01*
X113453051Y-95408536D01*
X113455351Y-95404732D01*
X113506877Y-95357543D01*
X113575736Y-95345703D01*
X113640066Y-95372970D01*
X113677650Y-95425544D01*
X113720138Y-95539456D01*
X113722155Y-95544863D01*
X113809783Y-95661920D01*
X113926840Y-95749548D01*
X114063843Y-95800648D01*
X114091094Y-95803577D01*
X114124389Y-95807158D01*
X114124406Y-95807159D01*
X115291682Y-95807159D01*
X115291698Y-95807158D01*
X115318736Y-95804250D01*
X115352245Y-95800648D01*
X115489248Y-95749548D01*
X115606305Y-95661920D01*
X115693933Y-95544863D01*
X115742814Y-95413809D01*
X115745032Y-95407863D01*
X115745032Y-95407862D01*
X115745033Y-95407860D01*
X115749491Y-95366394D01*
X115751543Y-95347313D01*
X115751544Y-95347296D01*
X115751544Y-94650021D01*
X115751543Y-94650004D01*
X115746876Y-94606603D01*
X115745033Y-94589458D01*
X115743515Y-94585389D01*
X115720290Y-94523119D01*
X115693933Y-94452455D01*
X115606305Y-94335398D01*
X115489248Y-94247770D01*
X115467537Y-94239672D01*
X115375395Y-94205304D01*
X115319462Y-94163433D01*
X115304169Y-94136575D01*
X115271220Y-94057028D01*
X115271213Y-94057015D01*
X115201670Y-93952937D01*
X115165095Y-93916362D01*
X115113152Y-93864419D01*
X114519818Y-93271085D01*
X114486333Y-93209762D01*
X114483499Y-93183404D01*
X114483499Y-92892727D01*
X114477014Y-92821355D01*
X114477011Y-92821344D01*
X114425828Y-92657090D01*
X114425827Y-92657089D01*
X114425827Y-92657087D01*
X114336816Y-92509845D01*
X114336814Y-92509843D01*
X114336813Y-92509841D01*
X114239653Y-92412681D01*
X114206168Y-92351358D01*
X114211152Y-92281666D01*
X114239653Y-92237319D01*
X114336812Y-92140159D01*
X114336813Y-92140158D01*
X114336816Y-92140155D01*
X114425827Y-91992913D01*
X114477013Y-91828649D01*
X114483500Y-91757265D01*
X114483499Y-91242736D01*
X114483499Y-91242735D01*
X114483499Y-91242727D01*
X114477014Y-91171354D01*
X114477011Y-91171344D01*
X114425828Y-91007090D01*
X114425827Y-91007089D01*
X114425827Y-91007087D01*
X114342492Y-90869234D01*
X114324657Y-90801684D01*
X114346174Y-90735210D01*
X114360924Y-90717412D01*
X114413936Y-90664400D01*
X114475257Y-90630917D01*
X114475598Y-90630843D01*
X114532212Y-90618810D01*
X114601877Y-90624126D01*
X114657611Y-90666263D01*
X114676376Y-90703209D01*
X114695025Y-90763055D01*
X114782971Y-90908536D01*
X114903166Y-91028731D01*
X115048648Y-91116678D01*
X115048647Y-91116678D01*
X115210938Y-91167249D01*
X115210937Y-91167249D01*
X115281452Y-91173657D01*
X115281470Y-91173658D01*
X115788044Y-91173658D01*
X115794625Y-91173658D01*
X115865146Y-91167250D01*
X115865151Y-91167249D01*
X116027440Y-91116677D01*
X116172921Y-91028731D01*
X116172922Y-91028730D01*
X116269350Y-90932301D01*
X116330673Y-90898815D01*
X116400364Y-90903799D01*
X116444713Y-90932299D01*
X116525668Y-91013254D01*
X116559152Y-91074575D01*
X116559603Y-91076742D01*
X116576964Y-91164022D01*
X116576967Y-91164032D01*
X116624867Y-91279674D01*
X116624874Y-91279687D01*
X116694418Y-91383766D01*
X116694421Y-91383770D01*
X117128225Y-91817573D01*
X117161710Y-91878896D01*
X117164544Y-91905254D01*
X117164544Y-92347313D01*
X117171055Y-92407861D01*
X117171055Y-92407863D01*
X117220138Y-92539456D01*
X117222155Y-92544863D01*
X117309783Y-92661920D01*
X117426840Y-92749548D01*
X117540488Y-92791937D01*
X117553850Y-92796921D01*
X117563843Y-92800648D01*
X117591094Y-92803577D01*
X117624389Y-92807158D01*
X117624406Y-92807159D01*
X118791682Y-92807159D01*
X118791698Y-92807158D01*
X118818736Y-92804250D01*
X118852245Y-92800648D01*
X118989248Y-92749548D01*
X119106305Y-92661920D01*
X119193933Y-92544863D01*
X119245033Y-92407860D01*
X119248635Y-92374351D01*
X119251543Y-92347313D01*
X119251544Y-92347296D01*
X119251544Y-91905254D01*
X119271229Y-91838215D01*
X119287858Y-91817577D01*
X119431669Y-91673767D01*
X119501217Y-91569681D01*
X119510884Y-91546344D01*
X119524462Y-91513562D01*
X119549122Y-91454028D01*
X119573544Y-91331250D01*
X119573544Y-91328564D01*
X119573942Y-91327208D01*
X119574141Y-91325189D01*
X119574523Y-91325226D01*
X119593229Y-91261525D01*
X119633395Y-91222446D01*
X119653199Y-91210475D01*
X119774860Y-91088814D01*
X119863871Y-90941572D01*
X119915057Y-90777308D01*
X119921544Y-90705924D01*
X119921543Y-90191395D01*
X119921543Y-90191386D01*
X119915058Y-90120013D01*
X119915055Y-90120003D01*
X119863872Y-89955749D01*
X119863871Y-89955748D01*
X119863871Y-89955746D01*
X119774860Y-89808504D01*
X119774858Y-89808502D01*
X119774857Y-89808500D01*
X119677697Y-89711340D01*
X119644212Y-89650017D01*
X119649196Y-89580325D01*
X119677697Y-89535978D01*
X119774856Y-89438818D01*
X119774857Y-89438817D01*
X119774860Y-89438814D01*
X119858149Y-89301037D01*
X119909673Y-89253853D01*
X119978533Y-89242014D01*
X120042862Y-89269282D01*
X120051944Y-89277509D01*
X120053166Y-89278731D01*
X120198648Y-89366678D01*
X120198647Y-89366678D01*
X120360938Y-89417249D01*
X120360937Y-89417249D01*
X120431452Y-89423657D01*
X120431470Y-89423658D01*
X120438043Y-89423657D01*
X120438044Y-89423657D01*
X120438044Y-87473659D01*
X120438043Y-87473658D01*
X120431480Y-87473659D01*
X120431461Y-87473660D01*
X120360941Y-87480067D01*
X120360936Y-87480068D01*
X120198647Y-87530640D01*
X120053166Y-87618586D01*
X119932971Y-87738781D01*
X119920441Y-87759509D01*
X119868912Y-87806695D01*
X119800052Y-87818533D01*
X119735724Y-87791263D01*
X119696351Y-87733543D01*
X119692708Y-87719548D01*
X119671284Y-87611846D01*
X119671241Y-87611631D01*
X119647433Y-87554155D01*
X119647433Y-87554154D01*
X119613766Y-87472872D01*
X119613764Y-87472869D01*
X119613763Y-87472866D01*
X119612948Y-87471647D01*
X119530318Y-87347980D01*
X119530312Y-87347973D01*
X118271062Y-86088724D01*
X118240813Y-86039362D01*
X118203610Y-85924864D01*
X118188529Y-85878449D01*
X118188526Y-85878443D01*
X118093040Y-85713056D01*
X117965253Y-85571134D01*
X117810752Y-85458882D01*
X117636288Y-85381206D01*
X117636286Y-85381205D01*
X117449487Y-85341500D01*
X117258513Y-85341500D01*
X117071714Y-85381205D01*
X116897246Y-85458883D01*
X116742745Y-85571135D01*
X116614959Y-85713057D01*
X116519473Y-85878443D01*
X116519470Y-85878450D01*
X116467187Y-86039361D01*
X116460458Y-86060072D01*
X116440496Y-86250000D01*
X116460458Y-86439928D01*
X116460459Y-86439931D01*
X116519470Y-86621549D01*
X116519473Y-86621556D01*
X116614960Y-86786944D01*
X116742747Y-86928866D01*
X116897248Y-87041118D01*
X117071712Y-87118794D01*
X117071714Y-87118794D01*
X117071715Y-87118795D01*
X117128163Y-87130793D01*
X117189645Y-87163985D01*
X117190064Y-87164402D01*
X118063782Y-88038120D01*
X118097267Y-88099443D01*
X118092283Y-88169135D01*
X118082219Y-88189947D01*
X118070973Y-88208552D01*
X118012217Y-88305745D01*
X117961030Y-88470013D01*
X117955840Y-88527125D01*
X117955496Y-88530924D01*
X117954544Y-88541396D01*
X117954544Y-89055931D01*
X117961029Y-89127304D01*
X117961030Y-89127309D01*
X117984635Y-89203060D01*
X117985785Y-89272920D01*
X117948984Y-89332312D01*
X117885915Y-89362380D01*
X117816602Y-89353576D01*
X117802110Y-89346072D01*
X117680957Y-89272832D01*
X117516693Y-89221646D01*
X117516691Y-89221645D01*
X117516689Y-89221645D01*
X117466711Y-89217103D01*
X117445309Y-89215159D01*
X117445306Y-89215159D01*
X116930771Y-89215159D01*
X116859398Y-89221644D01*
X116859388Y-89221647D01*
X116695134Y-89272830D01*
X116547885Y-89361845D01*
X116547884Y-89361846D01*
X116444714Y-89465017D01*
X116383391Y-89498502D01*
X116313699Y-89493518D01*
X116269352Y-89465017D01*
X116172921Y-89368586D01*
X116027439Y-89280639D01*
X116027440Y-89280639D01*
X115865149Y-89230068D01*
X115865150Y-89230068D01*
X115794616Y-89223659D01*
X115788044Y-89223659D01*
X115788044Y-91173658D01*
X115281470Y-91173658D01*
X115288043Y-91173657D01*
X115288044Y-91173657D01*
X115288044Y-89223659D01*
X115288043Y-89223658D01*
X115281480Y-89223659D01*
X115281461Y-89223660D01*
X115210941Y-89230067D01*
X115210933Y-89230068D01*
X115125005Y-89256845D01*
X115055145Y-89257997D01*
X114995753Y-89221196D01*
X114990381Y-89214546D01*
X114989041Y-89213057D01*
X114989040Y-89213056D01*
X114861253Y-89071134D01*
X114706752Y-88958882D01*
X114532288Y-88881206D01*
X114532286Y-88881205D01*
X114345487Y-88841500D01*
X114154513Y-88841500D01*
X113967714Y-88881205D01*
X113793246Y-88958883D01*
X113638745Y-89071135D01*
X113510959Y-89213057D01*
X113415473Y-89378443D01*
X113415471Y-89378447D01*
X113363186Y-89539362D01*
X113332936Y-89588724D01*
X112907729Y-90013932D01*
X112907728Y-90013933D01*
X112875022Y-90062882D01*
X112852028Y-90097297D01*
X112842753Y-90111178D01*
X112842752Y-90111178D01*
X112824283Y-90138818D01*
X112824281Y-90138822D01*
X112766803Y-90277586D01*
X112766801Y-90277592D01*
X112737500Y-90424897D01*
X112737500Y-90734166D01*
X112717815Y-90801205D01*
X112701181Y-90821847D01*
X112663187Y-90859840D01*
X112663186Y-90859841D01*
X112574173Y-91007086D01*
X112522986Y-91171354D01*
X112518717Y-91218335D01*
X112516779Y-91239671D01*
X112516500Y-91242737D01*
X112516500Y-91757272D01*
X112522985Y-91828645D01*
X112522988Y-91828655D01*
X112574171Y-91992909D01*
X112574172Y-91992911D01*
X112574173Y-91992913D01*
X112593175Y-92024346D01*
X112663186Y-92140158D01*
X112760347Y-92237319D01*
X112793832Y-92298642D01*
X112788848Y-92368334D01*
X112760347Y-92412681D01*
X112663187Y-92509840D01*
X112663186Y-92509841D01*
X112574173Y-92657086D01*
X112522986Y-92821354D01*
X112516500Y-92892737D01*
X112516500Y-93407272D01*
X112522985Y-93478645D01*
X112522988Y-93478655D01*
X112546550Y-93554269D01*
X112547702Y-93624129D01*
X112510901Y-93683521D01*
X112447832Y-93713589D01*
X112433565Y-93714764D01*
X112433578Y-93714905D01*
X112433570Y-93714905D01*
X112433576Y-93715033D01*
X112430773Y-93715159D01*
X112359398Y-93721644D01*
X112359388Y-93721647D01*
X112195134Y-93772830D01*
X112047885Y-93861845D01*
X112047884Y-93861846D01*
X111944714Y-93965017D01*
X111883391Y-93998502D01*
X111813699Y-93993518D01*
X111769352Y-93965017D01*
X111672921Y-93868586D01*
X111527439Y-93780639D01*
X111527440Y-93780639D01*
X111365149Y-93730068D01*
X111365150Y-93730068D01*
X111294616Y-93723659D01*
X111288044Y-93723659D01*
X111288044Y-95673658D01*
X110781470Y-95673658D01*
X110788043Y-95673657D01*
X110788044Y-95673657D01*
X110788044Y-94948659D01*
X110138045Y-94948659D01*
X110138045Y-95015410D01*
X110118360Y-95082449D01*
X110065556Y-95128204D01*
X109996398Y-95138148D01*
X109932842Y-95109123D01*
X109907928Y-95079560D01*
X109861768Y-95003203D01*
X109849860Y-94983504D01*
X109849858Y-94983502D01*
X109849857Y-94983500D01*
X109798819Y-94932462D01*
X109765334Y-94871139D01*
X109762500Y-94844781D01*
X109762500Y-94448659D01*
X110138044Y-94448659D01*
X110788044Y-94448659D01*
X110788044Y-93723659D01*
X110788043Y-93723658D01*
X110781480Y-93723659D01*
X110781461Y-93723660D01*
X110710941Y-93730067D01*
X110710936Y-93730068D01*
X110548647Y-93780640D01*
X110403166Y-93868586D01*
X110282971Y-93988781D01*
X110195024Y-94134263D01*
X110144453Y-94296552D01*
X110138044Y-94367086D01*
X110138044Y-94448659D01*
X109762500Y-94448659D01*
X109762500Y-94029535D01*
X109779113Y-93967535D01*
X109787542Y-93952936D01*
X109834527Y-93871556D01*
X109893542Y-93689928D01*
X109913504Y-93500000D01*
X109893542Y-93310072D01*
X109834527Y-93128444D01*
X109739040Y-92963056D01*
X109611253Y-92821134D01*
X109456752Y-92708882D01*
X109282288Y-92631206D01*
X109282286Y-92631205D01*
X109095487Y-92591500D01*
X108904513Y-92591500D01*
X108717714Y-92631205D01*
X108543246Y-92708883D01*
X108388745Y-92821135D01*
X108260959Y-92963057D01*
X108165473Y-93128443D01*
X108165470Y-93128450D01*
X108106459Y-93310068D01*
X108106458Y-93310072D01*
X108086496Y-93500000D01*
X108106458Y-93689928D01*
X108106459Y-93689931D01*
X108165470Y-93871549D01*
X108165473Y-93871556D01*
X108220887Y-93967535D01*
X108237500Y-94029535D01*
X108237500Y-94870869D01*
X108217815Y-94937908D01*
X108201181Y-94958550D01*
X108176231Y-94983499D01*
X108176230Y-94983500D01*
X108087217Y-95130745D01*
X108036030Y-95295013D01*
X108029544Y-95366396D01*
X108029544Y-95880931D01*
X108036029Y-95952304D01*
X108036032Y-95952314D01*
X108087215Y-96116568D01*
X108087216Y-96116570D01*
X108087217Y-96116572D01*
X108172328Y-96257362D01*
X108176230Y-96263817D01*
X108273391Y-96360978D01*
X108306876Y-96422301D01*
X108301892Y-96491993D01*
X108273391Y-96536340D01*
X108176231Y-96633499D01*
X108176230Y-96633500D01*
X108087217Y-96780745D01*
X108036030Y-96945013D01*
X108029544Y-97016396D01*
X108029544Y-97530931D01*
X108036029Y-97602304D01*
X108036032Y-97602314D01*
X108087215Y-97766568D01*
X108087216Y-97766570D01*
X108087217Y-97766572D01*
X108170538Y-97904402D01*
X108188374Y-97971954D01*
X108166857Y-98038428D01*
X108112816Y-98082716D01*
X108043411Y-98090757D01*
X108000272Y-98074667D01*
X107927444Y-98030641D01*
X107927440Y-98030639D01*
X107765149Y-97980068D01*
X107765150Y-97980068D01*
X107694616Y-97973659D01*
X107688044Y-97973659D01*
X107688044Y-99923658D01*
X107694625Y-99923658D01*
X107765146Y-99917250D01*
X107765151Y-99917249D01*
X107927440Y-99866677D01*
X108072921Y-99778731D01*
X108072922Y-99778730D01*
X108169350Y-99682301D01*
X108230673Y-99648815D01*
X108300364Y-99653799D01*
X108344713Y-99682300D01*
X108447885Y-99785472D01*
X108447887Y-99785473D01*
X108447889Y-99785475D01*
X108595131Y-99874486D01*
X108759395Y-99925672D01*
X108830779Y-99932159D01*
X109345308Y-99932158D01*
X109345316Y-99932158D01*
X109416689Y-99925673D01*
X109416692Y-99925672D01*
X109416693Y-99925672D01*
X109452116Y-99914634D01*
X109493654Y-99901691D01*
X109563514Y-99900539D01*
X109622906Y-99937340D01*
X109652974Y-100000409D01*
X109654544Y-100020076D01*
X109654544Y-100697313D01*
X109661055Y-100757861D01*
X109661055Y-100757863D01*
X109708201Y-100884263D01*
X109712155Y-100894863D01*
X109799783Y-101011920D01*
X109799784Y-101011921D01*
X109803314Y-101016636D01*
X109827731Y-101082100D01*
X109812879Y-101150373D01*
X109796199Y-101173917D01*
X109760961Y-101213054D01*
X109760957Y-101213059D01*
X109665473Y-101378443D01*
X109665470Y-101378450D01*
X109626701Y-101497770D01*
X109606458Y-101560072D01*
X109586496Y-101750000D01*
X109606458Y-101939928D01*
X109606459Y-101939931D01*
X109665470Y-102121549D01*
X109665473Y-102121556D01*
X109713164Y-102204159D01*
X109729637Y-102272059D01*
X109706784Y-102338086D01*
X109651863Y-102381277D01*
X109605777Y-102390159D01*
X108844389Y-102390159D01*
X108783841Y-102396670D01*
X108783839Y-102396670D01*
X108646839Y-102447770D01*
X108529783Y-102535398D01*
X108442155Y-102652454D01*
X108391055Y-102789454D01*
X108391055Y-102789456D01*
X108384544Y-102850004D01*
X108384544Y-103547313D01*
X108391055Y-103607861D01*
X108391055Y-103607863D01*
X108440138Y-103739456D01*
X108442155Y-103744863D01*
X108529783Y-103861920D01*
X108646840Y-103949548D01*
X108783843Y-104000648D01*
X108811094Y-104003577D01*
X108844389Y-104007158D01*
X108844406Y-104007159D01*
X110011682Y-104007159D01*
X110011698Y-104007158D01*
X110072245Y-104000648D01*
X110126735Y-103980324D01*
X110157157Y-103968976D01*
X110200491Y-103961159D01*
X116797842Y-103961159D01*
X116864881Y-103980844D01*
X116910636Y-104033648D01*
X116920580Y-104102806D01*
X116891555Y-104166362D01*
X116885523Y-104172840D01*
X114658525Y-106399840D01*
X114597202Y-106433325D01*
X114570844Y-106436159D01*
X106450491Y-106436159D01*
X106407157Y-106428341D01*
X106322245Y-106396669D01*
X106261698Y-106390159D01*
X106261682Y-106390159D01*
X105094406Y-106390159D01*
X105094389Y-106390159D01*
X105033841Y-106396670D01*
X105033839Y-106396670D01*
X104896839Y-106447770D01*
X104779783Y-106535398D01*
X104692155Y-106652454D01*
X104641055Y-106789454D01*
X104641055Y-106789456D01*
X104634544Y-106850004D01*
X104634544Y-107547313D01*
X104641055Y-107607861D01*
X104641055Y-107607863D01*
X104690138Y-107739456D01*
X104692155Y-107744863D01*
X104779783Y-107861920D01*
X104896840Y-107949548D01*
X105033843Y-108000648D01*
X105061094Y-108003577D01*
X105094389Y-108007158D01*
X105094406Y-108007159D01*
X106261682Y-108007159D01*
X106261698Y-108007158D01*
X106322245Y-108000648D01*
X106407157Y-107968977D01*
X106450491Y-107961159D01*
X115013146Y-107961159D01*
X115112248Y-107941445D01*
X115160457Y-107931856D01*
X115299223Y-107874377D01*
X115317866Y-107861920D01*
X115424109Y-107790932D01*
X119122870Y-104092169D01*
X119184193Y-104058685D01*
X119210551Y-104055851D01*
X141935542Y-104055851D01*
X142034644Y-104036137D01*
X142082853Y-104026548D01*
X142221619Y-103969069D01*
X142225888Y-103966216D01*
X142234482Y-103960475D01*
X142312268Y-103908500D01*
X142346505Y-103885624D01*
X146070315Y-100161813D01*
X146153761Y-100036927D01*
X146211240Y-99898161D01*
X146225002Y-99828975D01*
X146240543Y-99750848D01*
X146240543Y-94618047D01*
X174067744Y-94618047D01*
X174099405Y-94858544D01*
X174162191Y-95092863D01*
X174241942Y-95285398D01*
X174255020Y-95316971D01*
X174376308Y-95527048D01*
X174376310Y-95527051D01*
X174376311Y-95527052D01*
X174523977Y-95719495D01*
X174523983Y-95719502D01*
X174695500Y-95891019D01*
X174695506Y-95891024D01*
X174887955Y-96038695D01*
X175098032Y-96159983D01*
X175322144Y-96252813D01*
X175556455Y-96315597D01*
X175736830Y-96339343D01*
X175796955Y-96347259D01*
X175796956Y-96347259D01*
X176039533Y-96347259D01*
X176087632Y-96340926D01*
X176280033Y-96315597D01*
X176514344Y-96252813D01*
X176738456Y-96159983D01*
X176948533Y-96038695D01*
X177140982Y-95891024D01*
X177312509Y-95719497D01*
X177460180Y-95527048D01*
X177581468Y-95316971D01*
X177674298Y-95092859D01*
X177737082Y-94858548D01*
X177768744Y-94618047D01*
X177768744Y-94375471D01*
X177737082Y-94134970D01*
X177674298Y-93900659D01*
X177581468Y-93676547D01*
X177460180Y-93466470D01*
X177330369Y-93297297D01*
X177312510Y-93274022D01*
X177312504Y-93274015D01*
X177140987Y-93102498D01*
X177140980Y-93102492D01*
X176948537Y-92954826D01*
X176948536Y-92954825D01*
X176948533Y-92954823D01*
X176776905Y-92855733D01*
X176738458Y-92833536D01*
X176738449Y-92833532D01*
X176514348Y-92740706D01*
X176280029Y-92677920D01*
X176039533Y-92646259D01*
X176039532Y-92646259D01*
X175796956Y-92646259D01*
X175796955Y-92646259D01*
X175556458Y-92677920D01*
X175322139Y-92740706D01*
X175098038Y-92833532D01*
X175098029Y-92833536D01*
X174887950Y-92954826D01*
X174695507Y-93102492D01*
X174695500Y-93102498D01*
X174523983Y-93274015D01*
X174523977Y-93274022D01*
X174376311Y-93466465D01*
X174376308Y-93466469D01*
X174376308Y-93466470D01*
X174369273Y-93478655D01*
X174255021Y-93676544D01*
X174255017Y-93676553D01*
X174162191Y-93900654D01*
X174099405Y-94134973D01*
X174067744Y-94375470D01*
X174067744Y-94618047D01*
X146240543Y-94618047D01*
X146240544Y-79480574D01*
X174104544Y-79480574D01*
X174137995Y-79691776D01*
X174204070Y-79895139D01*
X174204071Y-79895142D01*
X174284483Y-80052957D01*
X174301150Y-80085668D01*
X174426838Y-80258663D01*
X174578040Y-80409865D01*
X174578043Y-80409867D01*
X174741456Y-80528594D01*
X174784122Y-80583924D01*
X174790101Y-80653537D01*
X174757495Y-80715332D01*
X174741457Y-80729230D01*
X174583579Y-80843935D01*
X174433320Y-80994194D01*
X174433316Y-80994199D01*
X174308423Y-81166101D01*
X174211948Y-81355441D01*
X174146286Y-81557529D01*
X174146286Y-81557532D01*
X174135813Y-81623659D01*
X175183898Y-81623659D01*
X175145414Y-81690316D01*
X175113044Y-81811124D01*
X175113044Y-81936194D01*
X175145414Y-82057002D01*
X175183898Y-82123659D01*
X174135813Y-82123659D01*
X174146286Y-82189785D01*
X174146286Y-82189788D01*
X174211948Y-82391876D01*
X174308423Y-82581216D01*
X174433316Y-82753118D01*
X174433320Y-82753123D01*
X174583579Y-82903382D01*
X174583584Y-82903386D01*
X174755486Y-83028279D01*
X174944826Y-83124754D01*
X175146916Y-83190416D01*
X175338044Y-83220688D01*
X175338044Y-82277804D01*
X175404701Y-82316289D01*
X175525509Y-82348659D01*
X175650579Y-82348659D01*
X175771387Y-82316289D01*
X175838044Y-82277804D01*
X175838044Y-83220687D01*
X176029171Y-83190416D01*
X176231261Y-83124754D01*
X176420601Y-83028279D01*
X176592503Y-82903386D01*
X176592508Y-82903382D01*
X176742767Y-82753123D01*
X176742771Y-82753118D01*
X176867664Y-82581216D01*
X176964139Y-82391876D01*
X177029801Y-82189788D01*
X177029801Y-82189785D01*
X177040275Y-82123659D01*
X175992190Y-82123659D01*
X176030674Y-82057002D01*
X176063044Y-81936194D01*
X176063044Y-81811124D01*
X176030674Y-81690316D01*
X175992190Y-81623659D01*
X177040275Y-81623659D01*
X177029801Y-81557532D01*
X177029801Y-81557529D01*
X176964139Y-81355441D01*
X176867664Y-81166101D01*
X176742771Y-80994199D01*
X176742767Y-80994194D01*
X176592508Y-80843935D01*
X176592503Y-80843931D01*
X176434631Y-80729230D01*
X176391965Y-80673900D01*
X176385986Y-80604287D01*
X176418592Y-80542492D01*
X176434631Y-80528594D01*
X176598048Y-80409865D01*
X176749250Y-80258663D01*
X176874938Y-80085668D01*
X176972016Y-79895142D01*
X177038093Y-79691775D01*
X177071544Y-79480575D01*
X177071544Y-79266743D01*
X177038093Y-79055543D01*
X176984510Y-78890629D01*
X176972017Y-78852178D01*
X176972016Y-78852175D01*
X176874937Y-78661649D01*
X176849745Y-78626975D01*
X176749250Y-78488655D01*
X176617150Y-78356555D01*
X176583665Y-78295232D01*
X176588649Y-78225540D01*
X176630521Y-78169607D01*
X176639712Y-78163349D01*
X176786696Y-78072689D01*
X176912074Y-77947311D01*
X177005159Y-77796397D01*
X177060931Y-77628085D01*
X177071544Y-77524204D01*
X177071543Y-76223115D01*
X177060931Y-76119233D01*
X177005159Y-75950921D01*
X176912074Y-75800007D01*
X176786696Y-75674629D01*
X176635782Y-75581544D01*
X176635779Y-75581543D01*
X176467471Y-75525772D01*
X176363589Y-75515159D01*
X174812506Y-75515159D01*
X174812490Y-75515160D01*
X174708616Y-75525772D01*
X174540308Y-75581543D01*
X174540303Y-75581545D01*
X174389390Y-75674630D01*
X174264015Y-75800005D01*
X174170930Y-75950918D01*
X174170928Y-75950923D01*
X174115157Y-76119231D01*
X174104544Y-76223106D01*
X174104544Y-77524196D01*
X174104545Y-77524212D01*
X174115157Y-77628085D01*
X174170929Y-77796397D01*
X174264014Y-77947311D01*
X174389392Y-78072689D01*
X174536354Y-78163336D01*
X174583077Y-78215283D01*
X174594300Y-78284246D01*
X174566456Y-78348328D01*
X174558938Y-78356555D01*
X174426837Y-78488656D01*
X174301150Y-78661649D01*
X174204071Y-78852175D01*
X174204070Y-78852178D01*
X174137995Y-79055541D01*
X174104544Y-79266743D01*
X174104544Y-79480574D01*
X146240544Y-79480574D01*
X146240544Y-76657243D01*
X146240543Y-76657240D01*
X146240544Y-76657240D01*
X146211242Y-76509935D01*
X146211241Y-76509934D01*
X146211241Y-76509930D01*
X146153762Y-76371164D01*
X146153761Y-76371163D01*
X146153758Y-76371157D01*
X146070317Y-76246279D01*
X146047143Y-76223105D01*
X145964109Y-76140071D01*
X143258230Y-73434192D01*
X135100430Y-65276390D01*
X135100429Y-65276389D01*
X135100425Y-65276386D01*
X134975539Y-65192941D01*
X134836773Y-65135462D01*
X134836767Y-65135460D01*
X134689462Y-65106159D01*
X134689460Y-65106159D01*
X126670544Y-65106159D01*
X126603505Y-65086474D01*
X126557750Y-65033670D01*
X126546544Y-64982159D01*
X126546544Y-64970021D01*
X126546543Y-64970004D01*
X126543201Y-64938929D01*
X126540033Y-64909458D01*
X126488933Y-64772455D01*
X126401305Y-64655398D01*
X126284248Y-64567770D01*
X126277248Y-64565159D01*
X126147247Y-64516670D01*
X126086698Y-64510159D01*
X126086682Y-64510159D01*
X125316244Y-64510159D01*
X125249205Y-64490474D01*
X125203450Y-64437670D01*
X125193506Y-64368512D01*
X125222531Y-64304956D01*
X125228563Y-64298478D01*
X127087518Y-62439522D01*
X127148841Y-62406037D01*
X127175199Y-62403203D01*
X129491102Y-62403203D01*
X129590204Y-62383489D01*
X129638413Y-62373900D01*
X129777179Y-62316421D01*
X129902065Y-62232975D01*
X130008272Y-62126768D01*
X130091718Y-62001882D01*
X130149197Y-61863116D01*
X130175639Y-61730188D01*
X130178500Y-61715805D01*
X130178500Y-55838371D01*
X130149198Y-55691066D01*
X130149197Y-55691065D01*
X130149197Y-55691061D01*
X130091718Y-55552295D01*
X130082565Y-55538596D01*
X130008273Y-55427409D01*
X130008271Y-55427407D01*
X130008269Y-55427404D01*
X130008268Y-55427403D01*
X127250813Y-52669947D01*
X132627644Y-52669947D01*
X132659305Y-52910444D01*
X132722091Y-53144763D01*
X132793739Y-53317736D01*
X132814920Y-53368871D01*
X132936208Y-53578948D01*
X132936210Y-53578951D01*
X132936211Y-53578952D01*
X133083877Y-53771395D01*
X133083883Y-53771402D01*
X133255400Y-53942919D01*
X133255407Y-53942925D01*
X133349962Y-54015479D01*
X133447855Y-54090595D01*
X133657932Y-54211883D01*
X133882044Y-54304713D01*
X134116355Y-54367497D01*
X134296730Y-54391243D01*
X134356855Y-54399159D01*
X134356856Y-54399159D01*
X134599433Y-54399159D01*
X134647532Y-54392826D01*
X134839933Y-54367497D01*
X135074244Y-54304713D01*
X135298356Y-54211883D01*
X135508433Y-54090595D01*
X135700882Y-53942924D01*
X135872409Y-53771397D01*
X136020080Y-53578948D01*
X136115345Y-53413945D01*
X144469544Y-53413945D01*
X144495678Y-53578952D01*
X144502798Y-53623902D01*
X144565836Y-53817913D01*
X144568488Y-53826073D01*
X144664995Y-54015479D01*
X144789934Y-54187445D01*
X144940257Y-54337768D01*
X145112223Y-54462707D01*
X145112225Y-54462708D01*
X145112228Y-54462710D01*
X145301632Y-54559216D01*
X145503801Y-54624905D01*
X145713757Y-54658159D01*
X145713758Y-54658159D01*
X145926330Y-54658159D01*
X145926331Y-54658159D01*
X146136287Y-54624905D01*
X146338456Y-54559216D01*
X146527860Y-54462710D01*
X146555283Y-54442786D01*
X146699830Y-54337768D01*
X146699832Y-54337765D01*
X146699836Y-54337763D01*
X146850148Y-54187451D01*
X146850150Y-54187447D01*
X146850153Y-54187445D01*
X146975092Y-54015479D01*
X146975091Y-54015479D01*
X146975095Y-54015475D01*
X147071601Y-53826071D01*
X147137290Y-53623902D01*
X147170544Y-53413946D01*
X147170544Y-53201372D01*
X147137290Y-52991416D01*
X147071601Y-52789247D01*
X146975095Y-52599843D01*
X146975093Y-52599840D01*
X146975092Y-52599838D01*
X146850153Y-52427872D01*
X146699830Y-52277549D01*
X146527864Y-52152610D01*
X146338458Y-52056103D01*
X146338457Y-52056102D01*
X146338456Y-52056102D01*
X146136287Y-51990413D01*
X146136285Y-51990412D01*
X146136284Y-51990412D01*
X145975001Y-51964867D01*
X145926331Y-51957159D01*
X145713757Y-51957159D01*
X145665086Y-51964867D01*
X145503804Y-51990412D01*
X145301629Y-52056103D01*
X145112223Y-52152610D01*
X144940257Y-52277549D01*
X144789934Y-52427872D01*
X144664995Y-52599838D01*
X144568488Y-52789244D01*
X144502797Y-52991419D01*
X144469544Y-53201372D01*
X144469544Y-53413945D01*
X136115345Y-53413945D01*
X136141368Y-53368871D01*
X136234198Y-53144759D01*
X136296982Y-52910448D01*
X136328644Y-52669947D01*
X136328644Y-52427371D01*
X136328452Y-52425916D01*
X136305570Y-52252106D01*
X136296982Y-52186870D01*
X136234198Y-51952559D01*
X136141368Y-51728447D01*
X136020080Y-51518370D01*
X135872409Y-51325921D01*
X135872404Y-51325915D01*
X135700887Y-51154398D01*
X135700880Y-51154392D01*
X135508437Y-51006726D01*
X135508436Y-51006725D01*
X135508433Y-51006723D01*
X135298356Y-50885435D01*
X135298349Y-50885432D01*
X135074248Y-50792606D01*
X134839929Y-50729820D01*
X134599433Y-50698159D01*
X134599432Y-50698159D01*
X134356856Y-50698159D01*
X134356855Y-50698159D01*
X134116358Y-50729820D01*
X133882039Y-50792606D01*
X133657938Y-50885432D01*
X133657929Y-50885436D01*
X133447850Y-51006726D01*
X133255407Y-51154392D01*
X133255400Y-51154398D01*
X133083883Y-51325915D01*
X133083877Y-51325922D01*
X132936211Y-51518365D01*
X132814921Y-51728444D01*
X132814917Y-51728453D01*
X132722091Y-51952554D01*
X132659305Y-52186873D01*
X132627644Y-52427370D01*
X132627644Y-52669947D01*
X127250813Y-52669947D01*
X126238597Y-51657731D01*
X126238596Y-51657730D01*
X126113710Y-51574285D01*
X126113706Y-51574282D01*
X126113701Y-51574280D01*
X125974940Y-51516803D01*
X125974934Y-51516801D01*
X125827629Y-51487500D01*
X125827627Y-51487500D01*
X109825100Y-51487500D01*
X109674900Y-51487500D01*
X109674898Y-51487500D01*
X109527592Y-51516801D01*
X109527586Y-51516803D01*
X109388823Y-51574280D01*
X109388814Y-51574285D01*
X109263935Y-51657727D01*
X109263931Y-51657730D01*
X109157730Y-51763931D01*
X109157727Y-51763935D01*
X109074285Y-51888814D01*
X109074280Y-51888823D01*
X109016803Y-52027586D01*
X109016801Y-52027592D01*
X108987500Y-52174897D01*
X108987500Y-52313122D01*
X108967815Y-52380161D01*
X108915011Y-52425916D01*
X108845853Y-52435860D01*
X108797654Y-52415277D01*
X108796574Y-52417065D01*
X108790156Y-52413185D01*
X108790155Y-52413184D01*
X108642913Y-52324173D01*
X108478649Y-52272987D01*
X108478647Y-52272986D01*
X108478645Y-52272986D01*
X108428667Y-52268444D01*
X108407265Y-52266500D01*
X108407262Y-52266500D01*
X108296199Y-52266500D01*
X108229160Y-52246815D01*
X108208518Y-52230181D01*
X106457070Y-50478731D01*
X106457069Y-50478730D01*
X106457065Y-50478727D01*
X106332179Y-50395282D01*
X106193413Y-50337803D01*
X106193407Y-50337801D01*
X106046102Y-50308500D01*
X106046100Y-50308500D01*
X100103900Y-50308500D01*
X100103898Y-50308500D01*
X99956592Y-50337801D01*
X99956586Y-50337803D01*
X99817822Y-50395281D01*
X99692930Y-50478730D01*
X95157730Y-55013930D01*
X95087688Y-55118758D01*
X95087686Y-55118761D01*
X95074283Y-55138818D01*
X95074280Y-55138823D01*
X95016803Y-55277586D01*
X95016801Y-55277592D01*
X94987500Y-55424897D01*
X94987500Y-93744181D01*
X94967815Y-93811220D01*
X94915011Y-93856975D01*
X94845853Y-93866919D01*
X94782297Y-93837894D01*
X94748939Y-93791634D01*
X94701271Y-93676553D01*
X94701266Y-93676544D01*
X94671004Y-93624129D01*
X94579980Y-93466470D01*
X94450169Y-93297297D01*
X94432310Y-93274022D01*
X94432304Y-93274015D01*
X94260787Y-93102498D01*
X94260780Y-93102492D01*
X94068337Y-92954826D01*
X94068336Y-92954825D01*
X94068333Y-92954823D01*
X93896705Y-92855733D01*
X93858258Y-92833536D01*
X93858249Y-92833532D01*
X93634148Y-92740706D01*
X93399829Y-92677920D01*
X93159333Y-92646259D01*
X93159332Y-92646259D01*
X92916756Y-92646259D01*
X92916755Y-92646259D01*
X92676258Y-92677920D01*
X92441939Y-92740706D01*
X92217838Y-92833532D01*
X92217829Y-92833536D01*
X92007750Y-92954826D01*
X91815307Y-93102492D01*
X91815300Y-93102498D01*
X91643783Y-93274015D01*
X91643777Y-93274022D01*
X91496111Y-93466465D01*
X91496108Y-93466469D01*
X91496108Y-93466470D01*
X91489073Y-93478655D01*
X91374821Y-93676544D01*
X91374817Y-93676553D01*
X91281991Y-93900654D01*
X91219205Y-94134973D01*
X91187544Y-94375470D01*
X91187544Y-94618047D01*
X86705869Y-94618047D01*
X86716542Y-50504133D01*
X86716973Y-50493855D01*
X86748708Y-50114778D01*
X86750084Y-50104029D01*
X86782762Y-49914787D01*
X86814784Y-49729340D01*
X86817088Y-49718779D01*
X86914272Y-49351185D01*
X86917498Y-49340840D01*
X86932237Y-49299946D01*
X87046424Y-48983139D01*
X87050529Y-48973141D01*
X87210224Y-48628047D01*
X87215189Y-48618445D01*
X87404415Y-48288629D01*
X87410196Y-48279503D01*
X87627512Y-47967478D01*
X87634067Y-47958892D01*
X87877819Y-47667037D01*
X87885108Y-47659048D01*
X88153409Y-47389617D01*
X88161362Y-47382300D01*
X88452192Y-47137325D01*
X88460751Y-47130734D01*
X88771863Y-46912110D01*
X88780963Y-46906292D01*
X89109980Y-46715684D01*
X89119573Y-46710673D01*
X89463962Y-46549546D01*
X89473965Y-46545388D01*
X89831135Y-46414957D01*
X89841452Y-46411694D01*
X90208652Y-46312964D01*
X90219187Y-46310620D01*
X90593615Y-46244345D01*
X90604340Y-46242927D01*
X90982889Y-46209636D01*
X90993767Y-46209160D01*
X177960863Y-46230071D01*
G37*
%TD.AperFunction*%
%TD*%
M02*
