%TF.GenerationSoftware,KiCad,Pcbnew,8.0.1-rc1*%
%TF.CreationDate,2024-03-31T01:12:23-05:00*%
%TF.ProjectId,dome_rgbwauv_pcb,646f6d65-5f72-4676-9277-6175765f7063,rev?*%
%TF.SameCoordinates,Original*%
%TF.FileFunction,Other,Comment*%
%FSLAX46Y46*%
G04 Gerber Fmt 4.6, Leading zero omitted, Abs format (unit mm)*
G04 Created by KiCad (PCBNEW 8.0.1-rc1) date 2024-03-31 01:12:23*
%MOMM*%
%LPD*%
G01*
G04 APERTURE LIST*
%ADD10C,0.200000*%
%ADD11C,0.150000*%
G04 APERTURE END LIST*
D10*
%TO.C,Q1*%
X114398044Y-94998659D02*
G75*
G02*
X114198044Y-94998659I-100000J0D01*
G01*
X114198044Y-94998659D02*
G75*
G02*
X114398044Y-94998659I100000J0D01*
G01*
%TO.C,Q2*%
X117898044Y-91998659D02*
G75*
G02*
X117698044Y-91998659I-100000J0D01*
G01*
X117698044Y-91998659D02*
G75*
G02*
X117898044Y-91998659I100000J0D01*
G01*
%TO.C,Q5*%
X102888044Y-106248659D02*
G75*
G02*
X102688044Y-106248659I-100000J0D01*
G01*
X102688044Y-106248659D02*
G75*
G02*
X102888044Y-106248659I100000J0D01*
G01*
D11*
%TO.C,REF\u002A\u002A*%
X137328144Y-52548659D02*
G75*
G02*
X131628144Y-52548659I-2850000J0D01*
G01*
X131628144Y-52548659D02*
G75*
G02*
X137328144Y-52548659I2850000J0D01*
G01*
X178768244Y-94496759D02*
G75*
G02*
X173068244Y-94496759I-2850000J0D01*
G01*
X173068244Y-94496759D02*
G75*
G02*
X178768244Y-94496759I2850000J0D01*
G01*
X95888044Y-94496759D02*
G75*
G02*
X90188044Y-94496759I-2850000J0D01*
G01*
X90188044Y-94496759D02*
G75*
G02*
X95888044Y-94496759I2850000J0D01*
G01*
D10*
%TO.C,Q6*%
X106638044Y-102248659D02*
G75*
G02*
X106438044Y-102248659I-100000J0D01*
G01*
X106438044Y-102248659D02*
G75*
G02*
X106638044Y-102248659I100000J0D01*
G01*
D11*
%TO.C,REF\u002A\u002A*%
X137328144Y-136444859D02*
G75*
G02*
X131628144Y-136444859I-2850000J0D01*
G01*
X131628144Y-136444859D02*
G75*
G02*
X137328144Y-136444859I2850000J0D01*
G01*
D10*
%TO.C,Q4*%
X110388044Y-98448659D02*
G75*
G02*
X110188044Y-98448659I-100000J0D01*
G01*
X110188044Y-98448659D02*
G75*
G02*
X110388044Y-98448659I100000J0D01*
G01*
%TO.C,Q3*%
X122638044Y-89748659D02*
G75*
G02*
X122438044Y-89748659I-100000J0D01*
G01*
X122438044Y-89748659D02*
G75*
G02*
X122638044Y-89748659I100000J0D01*
G01*
D11*
%TO.C,H1*%
X148020044Y-53307659D02*
G75*
G02*
X143620044Y-53307659I-2200000J0D01*
G01*
X143620044Y-53307659D02*
G75*
G02*
X148020044Y-53307659I2200000J0D01*
G01*
%TO.C,H2*%
X125686044Y-136043659D02*
G75*
G02*
X121286044Y-136043659I-2200000J0D01*
G01*
X121286044Y-136043659D02*
G75*
G02*
X125686044Y-136043659I2200000J0D01*
G01*
%TD*%
M02*
