M48
; DRILL file {KiCad 8.0.1-rc1} date 2024-03-31T01:12:23-0500
; FORMAT={-:-/ absolute / inch / decimal}
; #@! TF.CreationDate,2024-03-31T01:12:23-05:00
; #@! TF.GenerationSoftware,Kicad,Pcbnew,8.0.1-rc1
; #@! TF.FileFunction,Plated,1,2,PTH
FMAT,2
INCH
; #@! TA.AperFunction,Plated,PTH,ViaDrill
T1C0.0157
; #@! TA.AperFunction,Plated,PTH,ComponentDrill
T2C0.0374
; #@! TA.AperFunction,Plated,PTH,ComponentDrill
T3C0.0394
%
G90
G05
T1
X3.8583Y-2.4016
X3.9469Y-2.0669
X3.9961Y-4.2618
X4.124Y-4.0551
X4.1535Y-1.939
X4.1535Y-2.0472
X4.1732Y-3.8583
X4.2028Y-4.1437
X4.2421Y-2.8937
X4.2913Y-3.6811
X4.3307Y-2.3031
X4.3504Y-4.0059
X4.4193Y-2.1063
X4.4488Y-2.8839
X4.498Y-3.5335
X4.5177Y-3.8681
X4.6202Y-3.3957
X4.6555Y-3.7402
X4.6654Y-2.8839
X4.7736Y-2.313
X4.7736Y-3.6024
X4.8167Y-3.8501
X4.8228Y-2.8543
X4.872Y-2.2441
X4.8798Y-3.7447
X4.8819Y-1.9882
X4.8917Y-2.1654
X4.9134Y-3.6908
X4.9459Y-3.6318
X5.0157Y-4.0079
X5.0394Y-2.815
X5.06Y-3.9646
X5.0837Y-3.5079
X5.0846Y-3.9262
X5.5295Y-3.4951
X5.8652Y-3.498
T2
X3.6924Y-4.322
X3.6924Y-4.4204
X3.6924Y-4.5188
X6.9129Y-3.0265
X6.9129Y-3.1249
X6.9129Y-3.2234
T3
X3.9838Y-2.5954
X3.9838Y-2.6954
X3.9838Y-2.7954
X4.1905Y-2.5954
X4.1905Y-2.6954
X4.1905Y-2.7954
X4.3775Y-2.585
X4.3775Y-2.685
X4.3775Y-2.785
X4.5724Y-2.5866
X4.5724Y-2.6866
X4.5724Y-2.7866
X4.7515Y-2.5866
X4.7515Y-2.6866
X4.7515Y-2.7866
X4.9287Y-2.5933
X4.9287Y-2.6933
X4.9287Y-2.7933
M30
